<svg width="195" height="56" viewBox="0 0 195 56" fill="none" xmlns="http://www.w3.org/2000/svg">
<path d="M34.0701 33.87V5.84998L24.17 0L0.150024 13.5V24.23L24.54 10.52V28.2201L9.39001 36.84V24.89L0 30.38V41.67L9.75 47.38L34.0701 33.87Z" fill="url(#paint0_linear_2002_509)"/>
<path d="M38.39 21.9902L38.25 36.3002L38.0701 36.4103L14.3501 50.1002L24.1801 55.8903L48.0701 41.9503V27.5002L38.39 21.9902Z" fill="url(#paint1_linear_2002_509)"/>
<path d="M19.7599 18.8202L13.98 22.1401V19.6902L19.7599 16.3701V18.8202Z" fill="url(#paint2_linear_2002_509)"/>
<path d="M19.7599 23.1501L13.98 26.4702V24.0201L19.7599 20.7002V23.1501Z" fill="url(#paint3_linear_2002_509)"/>
<path d="M19.7599 27.9099L13.98 31.2299V28.7799L19.7599 25.46V27.9099Z" fill="url(#paint4_linear_2002_509)"/>
<path d="M38.25 7.37988V15.59L48.0701 21.34V13.08L38.25 7.37988Z" fill="url(#paint5_linear_2002_509)"/>
<path d="M65.01 17.9705C65.01 17.5105 65.22 17.2803 65.64 17.2803H79.41C79.66 17.2803 79.83 17.3505 79.94 17.4905C80.04 17.6305 80.1 17.8003 80.1 18.0103V20.5303C80.1 20.7003 80.04 20.8605 79.92 20.9905C79.8 21.1205 79.62 21.1904 79.38 21.1904H69.22V25.5203H77.05C77.24 25.5003 77.39 25.5404 77.51 25.6404C77.62 25.7404 77.6801 25.9104 77.6801 26.1504V28.7405C77.6801 28.9105 77.63 29.0604 77.54 29.2004C77.44 29.3304 77.29 29.4004 77.08 29.4004H69.22V34.5903H79.75C80.02 34.5903 80.19 34.6503 80.28 34.7603C80.37 34.8803 80.41 35.0503 80.41 35.2903V37.9004C80.41 38.3004 80.2 38.5002 79.78 38.5002H65.63C65.46 38.5002 65.31 38.4504 65.19 38.3604C65.07 38.2604 65 38.1104 65 37.9004V17.9705H65.01Z" fill="white"/>
<path d="M82.1498 38.0002C82.2498 37.8502 82.3398 37.6903 82.4398 37.5403C82.5298 37.3803 82.6399 37.2203 82.7399 37.0603L89.0098 27.7903C87.8598 26.0803 86.7198 24.3804 85.5898 22.7004C84.4598 21.0204 83.3898 19.4404 82.3798 17.9404L82.3098 17.8403C82.2198 17.7003 82.1799 17.5903 82.1799 17.5103C82.1799 17.4003 82.2298 17.3403 82.3398 17.3303C82.4498 17.3203 82.5598 17.3003 82.6998 17.2803H86.0698C86.2798 17.2803 86.4498 17.3204 86.5898 17.4204C86.7298 17.5104 86.8698 17.6604 87.0098 17.8704L91.3398 24.3003L95.6999 17.8704C95.8499 17.6604 95.9998 17.5104 96.1398 17.4204C96.2798 17.3304 96.4499 17.2803 96.6599 17.2803H100.06C100.21 17.2803 100.33 17.3103 100.4 17.3403C100.48 17.3703 100.51 17.4403 100.51 17.5303C100.51 17.6203 100.45 17.7404 100.34 17.9204C99.3198 19.4204 98.2398 21.0004 97.0998 22.6804C95.9598 24.3604 94.8099 26.0603 93.6699 27.7703L100.41 37.7405C100.5 37.8705 100.55 37.9903 100.57 38.0803C100.59 38.1703 100.61 38.2403 100.61 38.2903C100.61 38.4203 100.5 38.4905 100.3 38.4905H96.6999C96.5699 38.4905 96.4498 38.4704 96.3598 38.4204C96.2598 38.3704 96.1698 38.3105 96.0898 38.2205C95.9998 38.1305 95.9198 38.0304 95.8398 37.9104C95.7598 37.7904 95.6699 37.6502 95.5599 37.5002C94.8499 36.4502 94.1399 35.4104 93.4499 34.3704C92.7599 33.3304 92.0598 32.2905 91.3398 31.2405C90.5798 32.3605 89.8198 33.4904 89.0798 34.6104C88.3398 35.7304 87.5798 36.8505 86.8298 37.9805C86.6198 38.3305 86.3498 38.5103 86.0298 38.5103H82.3998C82.1898 38.5103 82.0898 38.4403 82.0898 38.3003C82.0898 38.2703 82.0898 38.2204 82.1198 38.1404C82.1398 38.0604 82.1499 38.0203 82.1599 38.0103L82.1498 38.0002Z" fill="white"/>
<path d="M103.66 17.9602C103.66 17.5102 103.87 17.29 104.3 17.29H112.42C113.38 17.29 114.27 17.4801 115.08 17.8501C115.89 18.2301 116.59 18.7301 117.17 19.3601C117.75 19.9901 118.21 20.71 118.53 21.53C118.85 22.34 119.02 23.1901 119.02 24.0801C119.02 24.9701 118.86 25.7801 118.54 26.5901C118.22 27.4001 117.77 28.1102 117.2 28.7302C116.62 29.3502 115.93 29.8502 115.13 30.2302C114.33 30.6102 113.45 30.79 112.5 30.79H107.79V37.8901C107.79 38.3001 107.58 38.5 107.15 38.5H104.29C103.87 38.5 103.66 38.2901 103.66 37.8901V17.9602ZM114.85 24.05C114.85 23.66 114.77 23.2701 114.62 22.9001C114.47 22.5201 114.26 22.1901 113.99 21.9001C113.72 21.6101 113.4 21.3702 113.03 21.1902C112.66 21.0102 112.25 20.9202 111.81 20.9202H107.79V27.1902H111.81C112.24 27.1902 112.64 27.1002 113.01 26.9302C113.38 26.7602 113.7 26.5302 113.98 26.2402C114.25 25.9502 114.46 25.6202 114.62 25.2402C114.77 24.8602 114.85 24.4701 114.85 24.0601V24.05Z" fill="white"/>
<path d="M122.55 17.9104C122.55 17.7404 122.6 17.5905 122.71 17.4705C122.82 17.3505 122.97 17.2803 123.18 17.2803H126.01C126.17 17.2803 126.32 17.3404 126.47 17.4504C126.62 17.5604 126.68 17.7204 126.68 17.9104V37.8704C126.68 38.2904 126.46 38.5002 126.01 38.5002H123.18C122.76 38.5002 122.55 38.2904 122.55 37.8704V17.9104Z" fill="white"/>
<path d="M130.48 27.9202C130.48 26.9202 130.61 25.95 130.87 25.02C131.13 24.09 131.49 23.2202 131.97 22.4102C132.45 21.6002 133.02 20.8602 133.68 20.2002C134.34 19.5402 135.08 18.9602 135.89 18.4902C136.7 18.0202 137.57 17.6501 138.5 17.3901C139.43 17.1301 140.4 17 141.41 17C142.42 17 143.37 17.1301 144.3 17.3901C145.23 17.6501 146.1 18.0202 146.91 18.4902C147.72 18.9602 148.46 19.5302 149.12 20.2002C149.78 20.8702 150.36 21.6102 150.83 22.4102C151.3 23.2202 151.67 24.09 151.93 25.02C152.19 25.95 152.32 26.9302 152.32 27.9402C152.32 28.9502 152.19 29.9201 151.93 30.8401C151.67 31.7601 151.3 32.6302 150.83 33.4402C150.36 34.2502 149.79 34.9901 149.12 35.6501C148.45 36.3101 147.71 36.8801 146.91 37.3501C146.1 37.8201 145.23 38.1802 144.3 38.4402C143.37 38.7002 142.4 38.8301 141.39 38.8301C140.38 38.8301 139.41 38.7002 138.48 38.4402C137.55 38.1802 136.68 37.8201 135.87 37.3401C135.06 36.8601 134.32 36.3001 133.66 35.6301C133 34.9601 132.43 34.2302 131.96 33.4302C131.49 32.6202 131.12 31.7601 130.87 30.8301C130.61 29.9001 130.48 28.9302 130.48 27.9202ZM134.61 27.8901C134.61 28.8501 134.78 29.7501 135.13 30.5901C135.48 31.4301 135.95 32.16 136.56 32.78C137.17 33.4 137.88 33.89 138.7 34.25C139.52 34.61 140.42 34.79 141.38 34.79C142.34 34.79 143.22 34.61 144.05 34.25C144.88 33.89 145.59 33.4 146.2 32.78C146.81 32.16 147.29 31.4301 147.64 30.5901C147.99 29.7501 148.16 28.8501 148.16 27.8901C148.16 26.9301 147.99 26.0402 147.64 25.2002C147.29 24.3602 146.81 23.63 146.2 23.01C145.59 22.39 144.87 21.89 144.05 21.53C143.23 21.17 142.34 20.9902 141.38 20.9902C140.42 20.9902 139.53 21.17 138.7 21.53C137.87 21.89 137.16 22.39 136.56 23.01C135.96 23.63 135.48 24.3702 135.13 25.2002C134.78 26.0402 134.61 26.9301 134.61 27.8901Z" fill="white"/>
<path d="M156.07 17.9302C156.07 17.7502 156.12 17.6002 156.23 17.4702C156.34 17.3402 156.49 17.28 156.69 17.28H159.98C160.11 17.28 160.24 17.3101 160.36 17.3701C160.48 17.4301 160.59 17.5302 160.68 17.6602C162.31 19.9802 163.92 22.2901 165.52 24.5801C167.12 26.8701 168.73 29.18 170.36 31.5V17.8101C170.39 17.6401 170.46 17.5002 170.57 17.4102C170.68 17.3102 170.82 17.27 170.98 17.27H173.74C173.93 17.27 174.09 17.3302 174.23 17.4402C174.37 17.5502 174.44 17.7101 174.44 17.9001V37.9001C174.44 38.2901 174.22 38.4902 173.77 38.4902H170.67C170.46 38.4902 170.26 38.3601 170.08 38.1001C168.4 35.6701 166.73 33.2401 165.07 30.8201C163.41 28.4001 161.74 25.96 160.08 23.53V37.8601C160.08 38.0701 160.03 38.2301 159.93 38.3301C159.83 38.4401 159.66 38.4902 159.42 38.4902H156.68C156.46 38.4902 156.3 38.4401 156.2 38.3301C156.1 38.2201 156.05 38.0701 156.05 37.8801V17.9202L156.07 17.9302Z" fill="white"/>
<path d="M179.07 17.9705C179.07 17.5105 179.28 17.2803 179.7 17.2803H193.47C193.72 17.2803 193.89 17.3505 194 17.4905C194.11 17.6305 194.16 17.8003 194.16 18.0103V20.5303C194.16 20.7003 194.1 20.8605 193.98 20.9905C193.86 21.1205 193.68 21.1904 193.44 21.1904H183.28V25.5203H191.11C191.3 25.5003 191.45 25.5404 191.57 25.6404C191.68 25.7404 191.74 25.9104 191.74 26.1504V28.7405C191.74 28.9105 191.69 29.0604 191.6 29.2004C191.51 29.3304 191.35 29.4004 191.14 29.4004H183.28V34.5903H193.81C194.08 34.5903 194.25 34.6503 194.34 34.7603C194.43 34.8803 194.47 35.0503 194.47 35.2903V37.9004C194.47 38.3004 194.26 38.5002 193.84 38.5002H179.69C179.52 38.5002 179.37 38.4504 179.25 38.3604C179.13 38.2604 179.06 38.1104 179.06 37.9004V17.9705H179.07Z" fill="white"/>
<defs>
<linearGradient id="paint0_linear_2002_509" x1="-1038.95" y1="0.4" x2="-1037.95" y2="55.37" gradientUnits="userSpaceOnUse">
<stop stop-color="#0095DA"/>
<stop offset="1" stop-color="#21409A"/>
</linearGradient>
<linearGradient id="paint1_linear_2002_509" x1="31.5301" y1="0.50022" x2="31.1401" y2="55.4703" gradientUnits="userSpaceOnUse">
<stop stop-color="#0095DA"/>
<stop offset="1" stop-color="#21409A"/>
</linearGradient>
<linearGradient id="paint2_linear_2002_509" x1="16.9999" y1="0.400062" x2="16.6099" y2="55.3702" gradientUnits="userSpaceOnUse">
<stop stop-color="#0095DA"/>
<stop offset="1" stop-color="#21409A"/>
</linearGradient>
<linearGradient id="paint3_linear_2002_509" x1="17.0299" y1="0.400127" x2="16.6499" y2="55.3703" gradientUnits="userSpaceOnUse">
<stop stop-color="#0095DA"/>
<stop offset="1" stop-color="#21409A"/>
</linearGradient>
<linearGradient id="paint4_linear_2002_509" x1="17.0699" y1="0.400405" x2="16.6799" y2="55.3694" gradientUnits="userSpaceOnUse">
<stop stop-color="#0095DA"/>
<stop offset="1" stop-color="#21409A"/>
</linearGradient>
<linearGradient id="paint5_linear_2002_509" x1="43.26" y1="0.579842" x2="42.87" y2="55.5502" gradientUnits="userSpaceOnUse">
<stop stop-color="#0095DA"/>
<stop offset="1" stop-color="#21409A"/>
</linearGradient>
</defs>
</svg>
