<svg width="252" height="56" viewBox="0 0 252 56" fill="none" xmlns="http://www.w3.org/2000/svg">
<path d="M34.0701 33.87V5.84998L24.17 0L0.150024 13.5V24.23L24.54 10.52V28.2201L9.39001 36.8401V24.89L0 30.38V41.67L9.75 47.38L34.0701 33.87Z" fill="#00AC6C"/>
<path d="M38.39 21.9902L38.25 36.3003L38.0701 36.4103L14.3501 50.1002L24.1801 55.8903L48.0701 41.9503V27.5002L38.39 21.9902Z" fill="#00AC6C"/>
<path d="M19.7599 18.8202L13.98 22.1401V19.6902L19.7599 16.3701V18.8202Z" fill="#00AC6C"/>
<path d="M19.7599 23.1501L13.98 26.4702V24.0201L19.7599 20.7002V23.1501Z" fill="#00AC6C"/>
<path d="M19.7599 27.9099L13.98 31.2299V28.7799L19.7599 25.46V27.9099Z" fill="#00AC6C"/>
<path d="M38 8V16.2101L47.8201 21.9601V13.7001L38 8Z" fill="#F57F20"/>
<path d="M65 17.96C65 17.51 65.21 17.29 65.64 17.29H73.76C74.72 17.29 75.61 17.48 76.42 17.85C77.23 18.23 77.93 18.73 78.51 19.36C79.09 19.99 79.55 20.71 79.87 21.53C80.19 22.34 80.36 23.19 80.36 24.08C80.36 24.97 80.2 25.78 79.88 26.59C79.56 27.4 79.11 28.11 78.54 28.73C77.97 29.35 77.27 29.85 76.47 30.23C75.67 30.61 74.79 30.79 73.84 30.79H69.13V37.89C69.13 38.3 68.92 38.5 68.49 38.5H65.63C65.21 38.5 65 38.29 65 37.89V17.96ZM76.19 24.05C76.19 23.66 76.11 23.27 75.96 22.9C75.81 22.53 75.6 22.19 75.33 21.9C75.06 21.61 74.74 21.3699 74.37 21.1899C74 21.0099 73.59 20.92 73.15 20.92H69.13V27.1899H73.15C73.58 27.1899 73.98 27.1001 74.35 26.9301C74.72 26.7601 75.04 26.53 75.32 26.24C75.59 25.95 75.81 25.62 75.96 25.24C76.11 24.86 76.19 24.4699 76.19 24.0599V24.05Z" fill="white"/>
<path d="M83.8901 17.9103C83.8901 17.7403 83.9401 17.5902 84.0501 17.4702C84.1601 17.3502 84.3101 17.2803 84.5201 17.2803H87.3501C87.5101 17.2803 87.6601 17.3402 87.8101 17.4502C87.9601 17.5602 88.0201 17.7203 88.0201 17.9103V37.8702C88.0201 38.2902 87.8001 38.5002 87.3501 38.5002H84.5201C84.1001 38.5002 83.8901 38.2902 83.8901 37.8702V17.9103Z" fill="white"/>
<path d="M91.8198 27.92C91.8198 26.92 91.9498 25.95 92.2098 25.02C92.4698 24.09 92.8298 23.22 93.3098 22.41C93.7898 21.6 94.3498 20.86 95.0198 20.2C95.6898 19.54 96.4198 18.96 97.2298 18.49C98.0398 18.02 98.9098 17.65 99.8398 17.39C100.77 17.13 101.74 17 102.75 17C103.76 17 104.71 17.13 105.64 17.39C106.57 17.65 107.44 18.02 108.25 18.49C109.06 18.96 109.8 19.53 110.46 20.2C111.13 20.87 111.7 21.61 112.17 22.41C112.64 23.21 113.01 24.09 113.27 25.02C113.53 25.95 113.66 26.9299 113.66 27.9399C113.66 28.9499 113.53 29.92 113.27 30.84C113.01 31.76 112.64 32.6299 112.17 33.4399C111.7 34.2499 111.13 34.99 110.46 35.65C109.79 36.31 109.06 36.88 108.25 37.35C107.44 37.82 106.57 38.1799 105.64 38.4399C104.71 38.6999 103.74 38.83 102.73 38.83C101.72 38.83 100.75 38.6999 99.8198 38.4399C98.8898 38.1799 98.0198 37.82 97.2098 37.34C96.3998 36.86 95.6698 36.3 94.9998 35.63C94.3298 34.96 93.7698 34.2301 93.2998 33.4301C92.8298 32.6201 92.4598 31.76 92.2098 30.83C91.9498 29.9 91.8198 28.93 91.8198 27.92ZM95.9498 27.89C95.9498 28.85 96.1198 29.75 96.4698 30.59C96.8198 31.43 97.2898 32.16 97.8998 32.78C98.4998 33.4 99.2198 33.89 100.04 34.25C100.86 34.61 101.76 34.79 102.72 34.79C103.68 34.79 104.56 34.61 105.39 34.25C106.21 33.89 106.93 33.4 107.54 32.78C108.15 32.16 108.63 31.43 108.98 30.59C109.33 29.75 109.5 28.85 109.5 27.89C109.5 26.93 109.33 26.04 108.98 25.2C108.63 24.36 108.15 23.63 107.54 23.01C106.93 22.39 106.21 21.89 105.39 21.53C104.57 21.17 103.68 20.99 102.72 20.99C101.76 20.99 100.86 21.17 100.04 21.53C99.2198 21.89 98.4998 22.39 97.8998 23.01C97.2898 23.63 96.8198 24.37 96.4698 25.2C96.1198 26.04 95.9498 26.93 95.9498 27.89Z" fill="white"/>
<path d="M117.41 17.9301C117.41 17.7501 117.46 17.6 117.57 17.47C117.68 17.34 117.83 17.28 118.03 17.28H121.32C121.45 17.28 121.58 17.31 121.7 17.37C121.82 17.43 121.93 17.53 122.02 17.66C123.65 19.98 125.26 22.29 126.86 24.58C128.46 26.87 130.07 29.18 131.7 31.5V17.8099C131.73 17.6399 131.8 17.5 131.91 17.41C132.02 17.31 132.16 17.27 132.32 17.27H135.08C135.27 17.27 135.43 17.3299 135.57 17.4399C135.71 17.5499 135.78 17.71 135.78 17.9V37.9C135.78 38.29 135.56 38.49 135.11 38.49H132.01C131.8 38.49 131.61 38.36 131.43 38.1C129.75 35.67 128.08 33.2399 126.42 30.8199C124.76 28.3999 123.09 25.96 121.43 23.53V37.86C121.43 38.07 121.38 38.23 121.28 38.33C121.18 38.44 121.01 38.49 120.77 38.49H118.03C117.81 38.49 117.65 38.44 117.55 38.33C117.45 38.22 117.4 38.07 117.4 37.88V17.92L117.41 17.9301Z" fill="white"/>
<path d="M140.42 17.9702C140.42 17.5102 140.63 17.2803 141.05 17.2803H154.82C155.07 17.2803 155.24 17.3502 155.35 17.4902C155.45 17.6302 155.51 17.8003 155.51 18.0103V20.5303C155.51 20.7003 155.45 20.8602 155.33 20.9902C155.21 21.1202 155.03 21.1902 154.79 21.1902H144.63V25.5203H152.46C152.65 25.5003 152.8 25.5403 152.92 25.6403C153.03 25.7403 153.09 25.9103 153.09 26.1503V28.7402C153.09 28.9102 153.04 29.0602 152.95 29.2002C152.85 29.3302 152.7 29.4003 152.49 29.4003H144.63V34.5902H155.16C155.43 34.5902 155.6 34.6503 155.69 34.7603C155.78 34.8803 155.82 35.0503 155.82 35.2903V37.9003C155.82 38.3003 155.61 38.5002 155.19 38.5002H141.04C140.87 38.5002 140.72 38.4502 140.6 38.3602C140.48 38.2602 140.41 38.1103 140.41 37.9003V17.9702H140.42Z" fill="white"/>
<path d="M168.23 17.9402C168.23 17.7302 168.28 17.5702 168.4 17.4602C168.52 17.3502 168.65 17.2903 168.84 17.2803H182.41C182.85 17.2803 183.07 17.5102 183.07 17.9702V20.4602C183.07 20.6302 183.01 20.7903 182.9 20.9203C182.79 21.0603 182.62 21.1302 182.41 21.1302H172.39V26.8502H174.72C175.21 26.8502 175.71 26.8502 176.23 26.8502C176.75 26.8502 177.26 26.8502 177.74 26.8502H180.07C180.24 26.8502 180.39 26.9002 180.51 27.0002C180.63 27.1002 180.7 27.2602 180.7 27.4902V29.9203C180.7 30.0903 180.64 30.2502 180.53 30.3802C180.42 30.5202 180.27 30.5902 180.08 30.5902H172.38V37.8903C172.38 38.2903 172.16 38.4902 171.71 38.4902H168.8C168.42 38.4702 168.23 38.2703 168.23 37.8903V17.9303V17.9402Z" fill="white"/>
<path d="M184.95 37.9797C185 37.7897 185.05 37.6097 185.11 37.4497C185.17 37.2897 185.23 37.1398 185.28 37.0098L192.98 17.8397C193.01 17.7297 193.09 17.6197 193.22 17.4897C193.35 17.3597 193.52 17.2998 193.74 17.2998H196.04C196.27 17.2998 196.43 17.3597 196.53 17.4697C196.63 17.5797 196.7 17.6798 196.75 17.7698L197.22 18.8898L204.76 37.7698C204.76 37.7698 204.76 37.8498 204.78 37.9198C204.79 37.9898 204.8 38.0497 204.8 38.0997C204.8 38.3897 204.59 38.5298 204.17 38.5298H201.35C201.14 38.5298 200.98 38.4898 200.86 38.3998C200.75 38.3198 200.65 38.1798 200.57 37.9998L200.31 37.3397C200.13 36.8797 199.95 36.4197 199.77 35.9697C199.59 35.5197 199.41 35.0497 199.24 34.5797H190.42C190.17 35.2497 189.93 35.8697 189.7 36.4597C189.47 37.0497 189.27 37.5598 189.11 37.9998C188.98 38.3498 188.73 38.5298 188.37 38.5298H185.51C185.33 38.5298 185.18 38.4998 185.07 38.4298C184.96 38.3598 184.9 38.2598 184.9 38.1298C184.9 38.0698 184.9 38.0298 184.91 37.9998L184.95 37.9797ZM194.9 22.7297C194.39 24.0397 193.87 25.4097 193.36 26.8197C192.85 28.2297 192.34 29.5898 191.82 30.8898H197.91L194.9 22.7297Z" fill="white"/>
<path d="M207.86 17.96C207.86 17.51 208.07 17.29 208.49 17.29H217.24C218.2 17.29 219.1 17.47 219.94 17.83C220.78 18.19 221.51 18.68 222.13 19.3C222.75 19.92 223.24 20.65 223.6 21.49C223.96 22.33 224.14 23.22 224.14 24.16C224.14 24.82 224.05 25.45 223.87 26.05C223.69 26.65 223.44 27.21 223.11 27.72C222.79 28.23 222.4 28.7 221.95 29.11C221.5 29.52 221.01 29.87 220.46 30.16L224.17 37.49C224.19 37.59 224.22 37.68 224.27 37.78C224.32 37.87 224.34 37.98 224.34 38.08C224.34 38.37 224.17 38.51 223.84 38.51H220.52C220.18 38.51 219.95 38.33 219.83 37.98L216.37 31.12C216.22 31.12 216.05 31.12 215.88 31.12C215.7 31.12 215.46 31.12 215.15 31.12H212V37.88C212 38.29 211.78 38.49 211.34 38.49H208.47C208.28 38.49 208.13 38.44 208.01 38.34C207.9 38.24 207.84 38.09 207.84 37.88V17.95L207.86 17.96ZM219.9 24.1801C219.9 23.7701 219.82 23.37 219.67 22.99C219.52 22.61 219.3 22.26 219.03 21.96C218.75 21.66 218.43 21.41 218.04 21.22C217.66 21.03 217.24 20.92 216.8 20.89C216.47 20.89 216.14 20.87 215.82 20.87C215.5 20.87 215.17 20.87 214.83 20.87H212.01V27.5H216.32C216.49 27.5 216.66 27.5 216.86 27.47C217.31 27.44 217.72 27.34 218.1 27.16C218.48 26.98 218.8 26.7399 219.06 26.4399C219.33 26.1399 219.53 25.8 219.68 25.41C219.83 25.02 219.9 24.6199 219.9 24.1899V24.1801Z" fill="white"/>
<path d="M228.93 17.9103C228.95 17.7303 229.02 17.5802 229.14 17.4602C229.26 17.3402 229.42 17.2803 229.61 17.2803H233.18C233.51 17.2803 233.73 17.4602 233.84 17.8202L238.88 31.8802C239.73 29.5202 240.58 27.1702 241.43 24.8502C242.28 22.5302 243.13 20.1802 243.97 17.8202C244.1 17.4602 244.32 17.2803 244.63 17.2803H248.22C248.41 17.2803 248.56 17.3402 248.68 17.4702C248.8 17.6002 248.86 17.7403 248.87 17.9103C249.22 21.2503 249.58 24.5803 249.94 27.9003C250.3 31.2103 250.66 34.5402 251.03 37.8702V37.9103C251.03 38.3003 250.82 38.5002 250.4 38.5002H247.63C247.2 38.5002 246.98 38.2902 246.96 37.8702L245.5 24.3502L240.74 37.5002C240.69 37.6302 240.62 37.7602 240.51 37.8702C240.4 37.9802 240.3 38.0403 240.18 38.0403H237.61C237.49 38.0403 237.37 37.9902 237.27 37.8802C237.17 37.7702 237.09 37.6402 237.04 37.5002C236.26 35.3002 235.47 33.1102 234.68 30.9402C233.89 28.7702 233.09 26.5802 232.29 24.3702L230.83 37.8702C230.83 38.2902 230.61 38.5002 230.17 38.5002H227.4C226.98 38.5002 226.77 38.2902 226.77 37.8702L228.91 17.9103H228.93Z" fill="white"/>
</svg>
