<svg width="246" height="56" viewBox="0 0 246 56" fill="none" xmlns="http://www.w3.org/2000/svg">
<path d="M34.07 33.87V5.84998L24.17 0L0.149963 13.5V24.23L24.54 10.52V28.2201L9.39001 36.8401V24.89L0 30.38V41.67L9.75 47.38L34.07 33.87Z" fill="#00B7CE"/>
<path d="M38.3901 21.9902L38.2501 36.3003L38.0701 36.4103L14.3501 50.1002L24.1801 55.8903L48.0701 41.9503V27.5002L38.3901 21.9902Z" fill="#00B7CE"/>
<path d="M19.76 18.8202L13.98 22.1401V19.6902L19.76 16.3701V18.8202Z" fill="#00B7CE"/>
<path d="M19.76 23.1501L13.98 26.4702V24.0201L19.76 20.7002V23.1501Z" fill="#00B7CE"/>
<path d="M19.76 27.9099L13.98 31.2299V28.7799L19.76 25.46V27.9099Z" fill="#00B7CE"/>
<path d="M38.25 7.37988V15.59L48.07 21.34V13.08L38.25 7.37988Z" fill="#F57F20"/>
<path d="M65 18.02C65 17.57 65.21 17.3501 65.64 17.3501H73.76C74.72 17.3501 75.61 17.54 76.42 17.91C77.23 18.29 77.93 18.79 78.51 19.42C79.09 20.05 79.55 20.7701 79.87 21.5901C80.19 22.4001 80.36 23.25 80.36 24.14C80.36 25.03 80.2 25.84 79.88 26.65C79.56 27.46 79.11 28.17 78.54 28.79C77.96 29.41 77.27 29.91 76.47 30.29C75.67 30.67 74.79 30.8501 73.84 30.8501H69.13V37.9501C69.13 38.3601 68.92 38.5601 68.49 38.5601H65.63C65.21 38.5601 65 38.3501 65 37.9501V18.02ZM76.19 24.1101C76.19 23.7201 76.11 23.3301 75.96 22.9601C75.81 22.5801 75.6 22.2501 75.33 21.9601C75.06 21.6701 74.74 21.43 74.37 21.25C74 21.07 73.59 20.9801 73.15 20.9801H69.13V27.25H73.15C73.58 27.25 73.98 27.1601 74.35 26.9901C74.72 26.8201 75.04 26.59 75.32 26.3C75.59 26.01 75.8 25.68 75.96 25.3C76.11 24.92 76.19 24.53 76.19 24.12V24.1101Z" fill="white"/>
<path d="M83.8901 17.9703C83.8901 17.8003 83.9401 17.6503 84.0501 17.5303C84.1601 17.4103 84.3101 17.3403 84.5201 17.3403H87.3501C87.5101 17.3403 87.6601 17.4003 87.8101 17.5103C87.9601 17.6203 88.0201 17.7803 88.0201 17.9703V37.9303C88.0201 38.3503 87.8001 38.5603 87.3501 38.5603H84.5201C84.1001 38.5603 83.8901 38.3503 83.8901 37.9303V17.9703Z" fill="white"/>
<path d="M91.8198 27.9801C91.8198 26.9801 91.9498 26.0101 92.2098 25.0801C92.4698 24.1501 92.8298 23.2801 93.3098 22.4701C93.7898 21.6601 94.3598 20.92 95.0198 20.26C95.6798 19.6 96.4198 19.02 97.2298 18.55C98.0398 18.08 98.9098 17.7101 99.8398 17.4501C100.77 17.1901 101.74 17.0601 102.75 17.0601C103.76 17.0601 104.71 17.1901 105.64 17.4501C106.57 17.7101 107.44 18.08 108.25 18.55C109.06 19.02 109.8 19.59 110.46 20.26C111.12 20.93 111.7 21.6701 112.17 22.4701C112.64 23.2801 113.01 24.1501 113.27 25.0801C113.53 26.0101 113.66 26.99 113.66 28C113.66 29.01 113.53 29.98 113.27 30.9C113.01 31.82 112.64 32.69 112.17 33.5C111.7 34.31 111.13 35.0501 110.46 35.7101C109.79 36.3701 109.05 36.94 108.25 37.41C107.44 37.88 106.57 38.24 105.64 38.5C104.71 38.76 103.74 38.89 102.73 38.89C101.72 38.89 100.75 38.76 99.8198 38.5C98.8898 38.24 98.0198 37.88 97.2098 37.4C96.3998 36.92 95.6598 36.3601 94.9998 35.6901C94.3398 35.0201 93.7698 34.2901 93.2998 33.4901C92.8298 32.6801 92.4598 31.82 92.2098 30.89C91.9498 29.96 91.8198 28.9901 91.8198 27.9801ZM95.9498 27.9501C95.9498 28.9101 96.1198 29.81 96.4698 30.65C96.8198 31.49 97.2898 32.2201 97.8998 32.8401C98.5098 33.4601 99.2198 33.9501 100.04 34.3101C100.86 34.6701 101.76 34.8501 102.72 34.8501C103.68 34.8501 104.56 34.6701 105.39 34.3101C106.22 33.9501 106.93 33.4601 107.54 32.8401C108.15 32.2201 108.63 31.49 108.98 30.65C109.33 29.81 109.5 28.9101 109.5 27.9501C109.5 26.9901 109.33 26.1 108.98 25.26C108.63 24.42 108.15 23.6901 107.54 23.0701C106.93 22.4501 106.21 21.9501 105.39 21.5901C104.57 21.2301 103.68 21.05 102.72 21.05C101.76 21.05 100.87 21.2301 100.04 21.5901C99.2098 21.9501 98.4998 22.4501 97.8998 23.0701C97.2998 23.6901 96.8198 24.43 96.4698 25.26C96.1198 26.1 95.9498 26.9901 95.9498 27.9501Z" fill="white"/>
<path d="M117.41 17.9901C117.41 17.8101 117.46 17.66 117.57 17.53C117.68 17.4 117.83 17.3401 118.03 17.3401H121.32C121.45 17.3401 121.58 17.3701 121.7 17.4301C121.82 17.4901 121.93 17.5901 122.02 17.7201C123.65 20.0401 125.26 22.35 126.86 24.64C128.46 26.93 130.07 29.2401 131.7 31.5601V17.87C131.73 17.7 131.8 17.5601 131.91 17.4701C132.02 17.3701 132.16 17.3301 132.32 17.3301H135.08C135.27 17.3301 135.43 17.39 135.57 17.5C135.71 17.61 135.78 17.7701 135.78 17.9601V37.9601C135.78 38.3501 135.56 38.55 135.11 38.55H132.01C131.8 38.55 131.6 38.42 131.42 38.16C129.74 35.73 128.07 33.3 126.41 30.88C124.75 28.46 123.08 26.0201 121.42 23.5901V37.92C121.42 38.13 121.37 38.29 121.27 38.39C121.17 38.5 121 38.55 120.76 38.55H118.02C117.8 38.55 117.64 38.5 117.54 38.39C117.44 38.28 117.39 38.1301 117.39 37.9401V17.9801L117.41 17.9901Z" fill="white"/>
<path d="M140.41 18.0303C140.41 17.5703 140.62 17.3403 141.04 17.3403H154.81C155.06 17.3403 155.23 17.4103 155.34 17.5503C155.44 17.6903 155.5 17.8603 155.5 18.0703V20.5903C155.5 20.7603 155.44 20.9203 155.32 21.0503C155.2 21.1803 155.02 21.2502 154.78 21.2502H144.62V25.5803H152.45C152.64 25.5603 152.79 25.6003 152.91 25.7003C153.02 25.8003 153.08 25.9703 153.08 26.2103V28.8003C153.08 28.9703 153.03 29.1203 152.94 29.2603C152.85 29.3903 152.69 29.4603 152.48 29.4603H144.62V34.6503H155.15C155.42 34.6503 155.59 34.7103 155.68 34.8203C155.77 34.9403 155.81 35.1103 155.81 35.3503V37.9603C155.81 38.3603 155.6 38.5603 155.18 38.5603H141.03C140.86 38.5603 140.71 38.5103 140.59 38.4203C140.47 38.3203 140.4 38.1703 140.4 37.9603V18.0303H140.41Z" fill="white"/>
<path d="M184.15 18.89C184.26 18.96 184.36 19.04 184.44 19.13C184.52 19.23 184.55 19.3401 184.55 19.4701C184.55 19.5701 184.52 19.68 184.46 19.8L183.07 22.16C182.91 22.38 182.74 22.4901 182.56 22.4901C182.5 22.4901 182.44 22.4801 182.36 22.4501C182.28 22.4301 182.21 22.3901 182.13 22.3401C181.53 21.9101 180.89 21.5801 180.2 21.3401C179.51 21.1001 178.78 20.9801 178.01 20.9801C177.04 20.9801 176.15 21.16 175.34 21.53C174.53 21.9 173.83 22.39 173.24 23.02C172.65 23.65 172.19 24.3901 171.86 25.2301C171.53 26.0801 171.37 26.9901 171.37 27.9601C171.37 28.9301 171.53 29.83 171.86 30.67C172.19 31.51 172.65 32.25 173.24 32.88C173.83 33.51 174.53 34 175.34 34.37C176.15 34.74 177.04 34.91 178.01 34.91C178.78 34.91 179.52 34.79 180.22 34.55C180.92 34.31 181.57 33.98 182.16 33.55C182.24 33.49 182.32 33.4601 182.4 33.4401C182.48 33.4201 182.55 33.41 182.61 33.4C182.77 33.4 182.94 33.5101 183.11 33.7101L184.53 36.1001C184.59 36.2101 184.61 36.32 184.61 36.41C184.61 36.54 184.57 36.6501 184.49 36.7401C184.41 36.8301 184.32 36.9101 184.21 36.9801C183.31 37.5801 182.35 38.04 181.32 38.37C180.29 38.7 179.2 38.8601 178.06 38.8601C177.05 38.8601 176.08 38.7301 175.15 38.4701C174.22 38.2101 173.35 37.85 172.54 37.37C171.73 36.89 170.99 36.33 170.33 35.66C169.67 34.99 169.1 34.2601 168.62 33.4601C168.14 32.6501 167.78 31.7901 167.52 30.8601C167.26 29.9301 167.13 28.9601 167.13 27.9501C167.13 26.9401 167.26 25.97 167.52 25.04C167.78 24.11 168.14 23.24 168.62 22.42C169.1 21.6 169.66 20.8701 170.33 20.2001C171 19.5301 171.73 18.9601 172.54 18.4901C173.35 18.0201 174.22 17.65 175.15 17.39C176.08 17.13 177.05 17 178.06 17C179.19 17 180.27 17.1601 181.29 17.4801C182.31 17.8001 183.27 18.2601 184.16 18.8601L184.15 18.89Z" fill="white"/>
<path d="M186.96 38.0398C187.01 37.8498 187.06 37.6698 187.12 37.5098C187.18 37.3498 187.24 37.1998 187.29 37.0698L194.99 17.8998C195.02 17.7898 195.1 17.6798 195.23 17.5498C195.36 17.4198 195.53 17.3599 195.75 17.3599H198.05C198.28 17.3599 198.44 17.4198 198.54 17.5298C198.64 17.6398 198.71 17.7398 198.76 17.8298L199.23 18.9498L206.77 37.8298C206.77 37.8298 206.77 37.9099 206.79 37.9799C206.8 38.0499 206.81 38.1098 206.81 38.1598C206.81 38.4498 206.6 38.5898 206.18 38.5898H203.36C203.15 38.5898 202.99 38.5498 202.87 38.4598C202.76 38.3798 202.66 38.2398 202.58 38.0598L202.32 37.3998C202.14 36.9398 201.96 36.4798 201.78 36.0298C201.6 35.5698 201.42 35.1098 201.25 34.6398H192.43C192.18 35.3098 191.94 35.9298 191.71 36.5198C191.48 37.1098 191.28 37.6198 191.12 38.0598C190.99 38.4098 190.74 38.5898 190.38 38.5898H187.52C187.34 38.5898 187.19 38.5599 187.08 38.4899C186.97 38.4199 186.91 38.3198 186.91 38.1898C186.91 38.1298 186.91 38.0898 186.92 38.0598L186.96 38.0398ZM196.91 22.7898C196.4 24.0998 195.88 25.4698 195.37 26.8798C194.86 28.2898 194.35 29.6498 193.83 30.9498H199.92L196.91 22.7898Z" fill="white"/>
<path d="M209.87 18.02C209.87 17.57 210.08 17.3501 210.5 17.3501H219.25C220.21 17.3501 221.11 17.53 221.95 17.89C222.79 18.25 223.52 18.7401 224.14 19.3601C224.76 19.9801 225.25 20.71 225.61 21.55C225.97 22.39 226.15 23.2801 226.15 24.2201C226.15 24.8801 226.06 25.5101 225.88 26.1101C225.7 26.7101 225.45 27.27 225.12 27.78C224.8 28.29 224.41 28.76 223.96 29.17C223.51 29.58 223.02 29.9301 222.47 30.2201L226.18 37.55C226.2 37.65 226.23 37.7401 226.28 37.8401C226.33 37.9301 226.35 38.04 226.35 38.14C226.35 38.43 226.18 38.5701 225.85 38.5701H222.53C222.19 38.5701 221.96 38.39 221.84 38.04L218.38 31.1801C218.23 31.1801 218.06 31.1801 217.89 31.1801C217.71 31.1801 217.47 31.1801 217.16 31.1801H214.01V37.9401C214.01 38.3501 213.79 38.55 213.35 38.55H210.48C210.29 38.55 210.14 38.5 210.02 38.4C209.91 38.3 209.85 38.1501 209.85 37.9401V18.01L209.87 18.02ZM221.91 24.2401C221.91 23.8301 221.83 23.43 221.68 23.05C221.53 22.67 221.31 22.32 221.04 22.02C220.76 21.72 220.44 21.47 220.05 21.28C219.67 21.09 219.25 20.9801 218.81 20.9501C218.48 20.9501 218.15 20.9301 217.83 20.9301C217.51 20.9301 217.18 20.9301 216.84 20.9301H214.02V27.5601H218.33C218.5 27.5601 218.67 27.56 218.87 27.53C219.32 27.5 219.73 27.4001 220.11 27.2201C220.49 27.0401 220.81 26.8 221.07 26.5C221.34 26.2 221.54 25.8601 221.69 25.4701C221.84 25.0801 221.91 24.68 221.91 24.25V24.2401Z" fill="white"/>
<path d="M229.74 18.0303C229.74 17.5703 229.95 17.3403 230.37 17.3403H244.14C244.39 17.3403 244.56 17.4103 244.67 17.5503C244.78 17.6903 244.83 17.8603 244.83 18.0703V20.5903C244.83 20.7603 244.77 20.9203 244.65 21.0503C244.53 21.1803 244.35 21.2502 244.11 21.2502H233.95V25.5803H241.78C241.97 25.5603 242.12 25.6003 242.24 25.7003C242.35 25.8003 242.41 25.9703 242.41 26.2103V28.8003C242.41 28.9703 242.36 29.1203 242.27 29.2603C242.18 29.3903 242.02 29.4603 241.81 29.4603H233.95V34.6503H244.48C244.75 34.6503 244.92 34.7103 245.01 34.8203C245.1 34.9403 245.14 35.1103 245.14 35.3503V37.9603C245.14 38.3603 244.93 38.5603 244.51 38.5603H230.36C230.19 38.5603 230.04 38.5103 229.92 38.4203C229.8 38.3203 229.73 38.1703 229.73 37.9603V18.0303H229.74Z" fill="white"/>
</svg>
