<svg width="331" height="56" viewBox="0 0 331 56" fill="none" xmlns="http://www.w3.org/2000/svg">
<path d="M34.07 33.87V5.84998L24.17 0L0.150009 13.5V24.23L24.54 10.52V28.2201L9.39 36.84V24.89L0 30.38V41.67L9.75 47.38L34.07 33.87Z" fill="#27BDBE"/>
<path d="M38.3901 21.9902L38.2501 36.3002L38.0701 36.4103L14.3501 50.1002L24.1801 55.8903L48.0701 41.9503V27.5002L38.3901 21.9902Z" fill="#27BDBE"/>
<path d="M19.76 18.8202L13.98 22.1401V19.6902L19.76 16.3701V18.8202Z" fill="#27BDBE"/>
<path d="M19.76 23.1501L13.98 26.4702V24.0201L19.76 20.7002V23.1501Z" fill="#27BDBE"/>
<path d="M19.76 27.9099L13.98 31.2299V28.7799L19.76 25.46V27.9099Z" fill="#27BDBE"/>
<path d="M38.25 7.37988V15.59L48.07 21.34V13.08L38.25 7.37988Z" fill="#F57F20"/>
<path d="M65 18.0203C65 17.5703 65.21 17.3501 65.64 17.3501H73.76C74.72 17.3501 75.61 17.5402 76.42 17.9102C77.23 18.2902 77.93 18.7902 78.51 19.4202C79.1 20.0502 79.55 20.7701 79.87 21.5901C80.19 22.4101 80.36 23.2501 80.36 24.1401C80.36 25.0301 80.2 25.8401 79.88 26.6501C79.56 27.4601 79.11 28.1703 78.54 28.7903C77.96 29.4103 77.27 29.9103 76.47 30.2903C75.67 30.6703 74.79 30.8501 73.84 30.8501H69.13V37.9502C69.13 38.3602 68.92 38.5601 68.49 38.5601H65.63C65.21 38.5601 65 38.3502 65 37.9502V18.0203ZM76.19 24.1101C76.19 23.7201 76.11 23.3302 75.96 22.9602C75.81 22.5802 75.6 22.2502 75.33 21.9602C75.06 21.6702 74.74 21.4302 74.37 21.2502C74 21.0702 73.59 20.9802 73.15 20.9802H69.13V27.2502H73.15C73.58 27.2502 73.98 27.1602 74.35 26.9902C74.72 26.8202 75.04 26.5903 75.32 26.3003C75.6 26.0103 75.8 25.6803 75.96 25.3003C76.11 24.9203 76.19 24.5301 76.19 24.1201V24.1101Z" fill="white"/>
<path d="M83.8901 17.97C83.8901 17.8 83.9401 17.65 84.0501 17.53C84.1601 17.41 84.3101 17.3398 84.5201 17.3398H87.3501C87.5101 17.3398 87.6601 17.4 87.8101 17.51C87.9601 17.62 88.0201 17.78 88.0201 17.97V37.9299C88.0201 38.3499 87.8001 38.5598 87.3501 38.5598H84.5201C84.1001 38.5598 83.8901 38.3499 83.8901 37.9299V17.97Z" fill="white"/>
<path d="M91.8198 27.9802C91.8198 26.9802 91.9498 26.0101 92.2098 25.0801C92.4698 24.1501 92.8298 23.2802 93.3098 22.4702C93.7898 21.6602 94.3598 20.9203 95.0198 20.2603C95.6798 19.6003 96.4198 19.0203 97.2298 18.5503C98.0398 18.0803 98.9098 17.7102 99.8398 17.4502C100.77 17.1902 101.74 17.0601 102.75 17.0601C103.76 17.0601 104.71 17.1902 105.64 17.4502C106.57 17.7102 107.44 18.0803 108.25 18.5503C109.06 19.0203 109.8 19.5903 110.46 20.2603C111.13 20.9303 111.7 21.6702 112.17 22.4702C112.64 23.2802 113.01 24.1501 113.27 25.0801C113.53 26.0101 113.66 26.9902 113.66 28.0002C113.66 29.0102 113.53 29.9801 113.27 30.9001C113.01 31.8201 112.64 32.6902 112.17 33.5002C111.7 34.3102 111.13 35.0502 110.46 35.7102C109.79 36.3702 109.06 36.9402 108.25 37.4102C107.44 37.8802 106.57 38.2402 105.64 38.5002C104.71 38.7602 103.74 38.8901 102.73 38.8901C101.72 38.8901 100.75 38.7602 99.8198 38.5002C98.8898 38.2402 98.0198 37.8801 97.2098 37.4001C96.3998 36.9201 95.6598 36.3602 94.9998 35.6902C94.3398 35.0202 93.7698 34.2902 93.2998 33.4902C92.8298 32.6802 92.4598 31.8201 92.2098 30.8901C91.9598 29.9601 91.8198 28.9902 91.8198 27.9802ZM95.9498 27.9502C95.9498 28.9102 96.1198 29.8101 96.4698 30.6501C96.8198 31.4901 97.2898 32.2201 97.8998 32.8401C98.5098 33.4601 99.2198 33.9501 100.04 34.3101C100.86 34.6701 101.76 34.8501 102.72 34.8501C103.68 34.8501 104.56 34.6701 105.39 34.3101C106.21 33.9501 106.93 33.4601 107.54 32.8401C108.15 32.2201 108.63 31.4901 108.98 30.6501C109.33 29.8101 109.5 28.9102 109.5 27.9502C109.5 26.9902 109.33 26.1003 108.98 25.2603C108.63 24.4203 108.15 23.6901 107.54 23.0701C106.93 22.4501 106.21 21.9501 105.39 21.5901C104.57 21.2301 103.68 21.0503 102.72 21.0503C101.76 21.0503 100.87 21.2301 100.04 21.5901C99.2198 21.9501 98.4998 22.4501 97.8998 23.0701C97.2998 23.6901 96.8198 24.4303 96.4698 25.2603C96.1198 26.1003 95.9498 26.9902 95.9498 27.9502Z" fill="white"/>
<path d="M117.41 17.9897C117.41 17.8097 117.46 17.6598 117.57 17.5298C117.68 17.3998 117.83 17.3396 118.03 17.3396H121.32C121.45 17.3396 121.58 17.3697 121.7 17.4297C121.82 17.4897 121.93 17.5897 122.02 17.7197C123.65 20.0397 125.26 22.3496 126.86 24.6396C128.46 26.9296 130.07 29.2396 131.7 31.5596V17.8696C131.73 17.6996 131.8 17.5597 131.91 17.4697C132.02 17.3697 132.16 17.3296 132.32 17.3296H135.08C135.27 17.3296 135.43 17.3898 135.57 17.4998C135.71 17.6098 135.78 17.7697 135.78 17.9597V37.9597C135.78 38.3497 135.56 38.5498 135.11 38.5498H132.01C131.8 38.5498 131.61 38.4197 131.42 38.1597C129.74 35.7297 128.07 33.2996 126.41 30.8796C124.75 28.4596 123.08 26.0196 121.42 23.5896V37.9197C121.42 38.1297 121.37 38.2896 121.27 38.3896C121.17 38.4996 121 38.5498 120.76 38.5498H118.02C117.8 38.5498 117.64 38.4996 117.54 38.3896C117.44 38.2796 117.39 38.1297 117.39 37.9397V17.9797L117.41 17.9897Z" fill="white"/>
<path d="M140.41 18.03C140.41 17.57 140.62 17.3398 141.04 17.3398H154.81C155.06 17.3398 155.23 17.41 155.34 17.55C155.44 17.69 155.5 17.8598 155.5 18.0698V20.5898C155.5 20.7598 155.44 20.92 155.32 21.05C155.2 21.18 155.02 21.25 154.78 21.25H144.62V25.5798H152.45C152.64 25.5598 152.79 25.6 152.91 25.7C153.02 25.8 153.08 25.97 153.08 26.21V28.8C153.08 28.97 153.03 29.12 152.94 29.26C152.84 29.39 152.69 29.46 152.48 29.46H144.62V34.6499H155.15C155.42 34.6499 155.59 34.7098 155.68 34.8198C155.77 34.9398 155.81 35.1099 155.81 35.3499V37.96C155.81 38.36 155.6 38.5598 155.18 38.5598H141.03C140.86 38.5598 140.71 38.5099 140.59 38.4199C140.47 38.3199 140.4 38.17 140.4 37.96V18.03H140.41Z" fill="white"/>
<path d="M180.26 23C180.14 23 180.02 22.9699 179.92 22.9099C179.82 22.8499 179.7 22.7699 179.56 22.6599H179.53C179.35 22.4699 179.12 22.27 178.83 22.05C178.54 21.83 178.23 21.6299 177.87 21.4399C177.52 21.2499 177.14 21.09 176.73 20.95C176.33 20.82 175.91 20.75 175.49 20.75C174.96 20.75 174.49 20.8099 174.08 20.9299C173.67 21.0499 173.33 21.2099 173.05 21.4199C172.77 21.6299 172.56 21.8699 172.42 22.1399C172.28 22.4199 172.21 22.71 172.21 23.03C172.21 23.37 172.32 23.6699 172.53 23.9299C172.74 24.1899 173.03 24.4199 173.4 24.6199C173.77 24.8199 174.19 24.9999 174.66 25.1699C175.14 25.3399 175.64 25.4999 176.16 25.6599C176.76 25.8399 177.36 26.04 177.95 26.25C178.54 26.46 179.1 26.7 179.64 26.96C180.18 27.22 180.68 27.5098 181.15 27.8298C181.62 28.1498 182.02 28.5199 182.36 28.9299C182.7 29.3399 182.96 29.8098 183.16 30.3198C183.36 30.8298 183.45 31.4 183.45 32.04C183.45 33.08 183.24 34.0199 182.82 34.8499C182.4 35.6799 181.82 36.41 181.08 37C180.34 37.6 179.48 38.0499 178.48 38.3699C177.48 38.6899 176.42 38.8499 175.27 38.8499C174.54 38.8499 173.81 38.7598 173.08 38.5898C172.36 38.4198 171.66 38.1699 170.99 37.8599C170.32 37.5499 169.69 37.17 169.1 36.72C168.5 36.28 167.97 35.78 167.51 35.23L167.48 35.1899C167.27 34.9499 167.17 34.73 167.17 34.53C167.17 34.43 167.2 34.33 167.26 34.23C167.32 34.14 167.4 34.0299 167.52 33.9199L167.99 33.45C168.13 33.33 168.29 33.19 168.45 33.04C168.61 32.89 168.77 32.7499 168.94 32.6299C169.1 32.5099 169.25 32.3998 169.39 32.3198C169.53 32.2398 169.64 32.1899 169.73 32.1899C169.86 32.1899 169.99 32.2298 170.1 32.3198C170.21 32.4098 170.31 32.4898 170.39 32.5598L170.45 32.6199H170.44C170.77 32.9299 171.15 33.23 171.56 33.52C171.97 33.81 172.4 34.06 172.84 34.28C173.28 34.5 173.71 34.6798 174.15 34.8098C174.59 34.9398 174.99 35 175.37 35C175.89 35 176.38 34.93 176.84 34.8C177.3 34.67 177.69 34.48 178.03 34.24C178.37 34 178.63 33.6999 178.82 33.3599C179.01 33.0199 179.11 32.64 179.11 32.22C179.11 31.8 178.99 31.4399 178.74 31.1399C178.49 30.8399 178.17 30.5799 177.77 30.3499C177.37 30.1299 176.92 29.93 176.42 29.77C175.92 29.61 175.42 29.4598 174.91 29.3098C173.75 28.9598 172.73 28.5799 171.86 28.1699C170.99 27.7599 170.26 27.3 169.68 26.79C169.1 26.28 168.66 25.7098 168.37 25.0798C168.08 24.4498 167.93 23.7299 167.93 22.9399C167.93 22.0499 168.11 21.25 168.47 20.52C168.83 19.79 169.33 19.1699 169.99 18.6499C170.65 18.1299 171.44 17.7299 172.36 17.4399C173.28 17.1499 174.32 17 175.46 17C176.33 17 177.21 17.1399 178.1 17.4099C179 17.6799 179.82 18.06 180.59 18.53C180.82 18.67 181.05 18.83 181.29 19.02C181.53 19.2 181.75 19.3798 181.95 19.5698C182.15 19.7598 182.31 19.9399 182.44 20.1099C182.57 20.2899 182.63 20.4398 182.63 20.5598C182.63 20.6698 182.6 20.7899 182.54 20.9099C182.48 21.0299 182.41 21.14 182.33 21.23L181.9 21.6899C181.76 21.8299 181.61 21.9899 181.46 22.1499C181.31 22.3099 181.16 22.4598 181 22.5898C180.85 22.7198 180.71 22.8299 180.59 22.9099C180.47 22.9999 180.36 23.04 180.28 23.04L180.26 23Z" fill="white"/>
<path d="M191.04 29.9502C191.04 30.7502 191.15 31.4701 191.38 32.1101C191.61 32.7501 191.93 33.2902 192.34 33.7302C192.75 34.1702 193.25 34.5102 193.83 34.7402C194.41 34.9702 195.05 35.0901 195.75 35.0901C196.49 35.0901 197.16 34.9702 197.75 34.7202C198.34 34.4702 198.84 34.1202 199.24 33.6702C199.64 33.2202 199.95 32.6703 200.17 32.0403C200.39 31.4103 200.49 30.7102 200.49 29.9502V17.9802C200.49 17.8102 200.55 17.6603 200.68 17.5403C200.8 17.4203 200.96 17.3501 201.15 17.3501H203.91C204.11 17.3501 204.28 17.4103 204.42 17.5403C204.56 17.6703 204.63 17.8102 204.63 17.9802V30.1101C204.63 31.5901 204.39 32.8702 203.92 33.9802C203.45 35.0902 202.8 36.0002 201.99 36.7302C201.18 37.4602 200.24 38.0101 199.16 38.3701C198.08 38.7301 196.95 38.9102 195.75 38.9102C194.55 38.9102 193.41 38.7201 192.34 38.3301C191.27 37.9401 190.32 37.3801 189.51 36.6401C188.7 35.9001 188.06 34.9801 187.58 33.8801C187.1 32.7801 186.87 31.5301 186.87 30.1101V17.9802C186.87 17.8302 186.92 17.6903 187.03 17.5503C187.14 17.4203 187.28 17.3501 187.45 17.3501H190.36C190.5 17.3501 190.65 17.4103 190.8 17.5403C190.95 17.6703 191.03 17.8102 191.03 17.9802V29.9502H191.04Z" fill="white"/>
<path d="M208.74 18.0203C208.74 17.5703 208.95 17.3501 209.38 17.3501H217.5C218.46 17.3501 219.35 17.5402 220.16 17.9102C220.97 18.2902 221.67 18.7902 222.25 19.4202C222.84 20.0502 223.29 20.7701 223.61 21.5901C223.93 22.4101 224.1 23.2501 224.1 24.1401C224.1 25.0301 223.94 25.8401 223.62 26.6501C223.3 27.4601 222.85 28.1703 222.28 28.7903C221.7 29.4103 221.01 29.9103 220.21 30.2903C219.41 30.6703 218.53 30.8501 217.58 30.8501H212.87V37.9502C212.87 38.3602 212.66 38.5601 212.23 38.5601H209.37C208.95 38.5601 208.74 38.3502 208.74 37.9502V18.0203ZM219.93 24.1101C219.93 23.7201 219.85 23.3302 219.7 22.9602C219.55 22.5802 219.34 22.2502 219.07 21.9602C218.8 21.6702 218.48 21.4302 218.11 21.2502C217.74 21.0702 217.33 20.9802 216.89 20.9802H212.87V27.2502H216.89C217.32 27.2502 217.72 27.1602 218.09 26.9902C218.46 26.8202 218.78 26.5903 219.06 26.3003C219.34 26.0103 219.54 25.6803 219.7 25.3003C219.85 24.9203 219.93 24.5301 219.93 24.1201V24.1101Z" fill="white"/>
<path d="M227.61 18.03C227.61 17.57 227.82 17.3398 228.24 17.3398H242.01C242.26 17.3398 242.43 17.41 242.54 17.55C242.65 17.69 242.7 17.8598 242.7 18.0698V20.5898C242.7 20.7598 242.64 20.92 242.52 21.05C242.4 21.18 242.22 21.25 241.98 21.25H231.82V25.5798H239.65C239.84 25.5598 239.99 25.6 240.11 25.7C240.22 25.8 240.28 25.97 240.28 26.21V28.8C240.28 28.97 240.23 29.12 240.14 29.26C240.05 29.39 239.89 29.46 239.68 29.46H231.82V34.6499H242.35C242.62 34.6499 242.79 34.7098 242.88 34.8198C242.97 34.9398 243.01 35.1099 243.01 35.3499V37.96C243.01 38.36 242.8 38.5598 242.38 38.5598H228.23C228.06 38.5598 227.91 38.5099 227.79 38.4199C227.67 38.3199 227.6 38.17 227.6 37.96V18.03H227.61Z" fill="white"/>
<path d="M246.43 18.0203C246.43 17.5703 246.64 17.3501 247.06 17.3501H255.81C256.77 17.3501 257.67 17.5301 258.51 17.8901C259.35 18.2501 260.08 18.7401 260.7 19.3601C261.32 19.9801 261.81 20.7103 262.17 21.5503C262.53 22.3903 262.71 23.2802 262.71 24.2202C262.71 24.8802 262.62 25.5101 262.44 26.1101C262.26 26.7101 262.01 27.2703 261.68 27.7803C261.36 28.2903 260.97 28.7602 260.52 29.1702C260.07 29.5802 259.58 29.9302 259.03 30.2202L262.74 37.5503C262.76 37.6503 262.79 37.7401 262.84 37.8401C262.89 37.9301 262.91 38.0401 262.91 38.1401C262.91 38.4301 262.74 38.5701 262.41 38.5701H259.09C258.75 38.5701 258.52 38.3903 258.4 38.0403L254.94 31.1802C254.79 31.1802 254.62 31.1802 254.45 31.1802C254.27 31.1802 254.03 31.1802 253.72 31.1802H250.57V37.9402C250.57 38.3502 250.35 38.5503 249.91 38.5503H247.04C246.85 38.5503 246.7 38.5001 246.58 38.4001C246.47 38.3001 246.41 38.1502 246.41 37.9402V18.0103L246.43 18.0203ZM258.47 24.2402C258.47 23.8302 258.39 23.4303 258.24 23.0503C258.09 22.6703 257.87 22.3203 257.6 22.0203C257.32 21.7203 257 21.4703 256.61 21.2803C256.23 21.0903 255.81 20.9802 255.37 20.9502C255.04 20.9502 254.71 20.9302 254.39 20.9302C254.07 20.9302 253.74 20.9302 253.4 20.9302H250.58V27.5601H254.89C255.06 27.5601 255.23 27.5603 255.43 27.5303C255.88 27.5003 256.29 27.4002 256.67 27.2202C257.05 27.0402 257.37 26.8002 257.63 26.5002C257.9 26.2002 258.1 25.8602 258.25 25.4702C258.4 25.0802 258.47 24.6802 258.47 24.2502V24.2402Z" fill="white"/>
<path d="M273.81 38.04C273.86 37.85 273.91 37.67 273.97 37.51C274.03 37.35 274.09 37.1998 274.13 37.0698L281.83 17.8999C281.86 17.7899 281.94 17.68 282.07 17.55C282.2 17.42 282.37 17.3599 282.59 17.3599H284.89C285.12 17.3599 285.28 17.42 285.38 17.53C285.48 17.64 285.55 17.7398 285.6 17.8298L286.07 18.95L293.61 37.8298C293.61 37.8298 293.61 37.91 293.63 37.98C293.64 38.05 293.65 38.1099 293.65 38.1599C293.65 38.4499 293.44 38.5898 293.02 38.5898H290.2C289.99 38.5898 289.83 38.55 289.71 38.46C289.6 38.38 289.5 38.2398 289.42 38.0598L289.16 37.3999C288.98 36.9399 288.8 36.48 288.62 36.03C288.44 35.57 288.26 35.1099 288.09 34.6399H279.27C279.02 35.3099 278.78 35.93 278.55 36.52C278.32 37.11 278.12 37.6198 277.96 38.0598C277.83 38.4098 277.58 38.5898 277.22 38.5898H274.36C274.18 38.5898 274.03 38.56 273.92 38.49C273.81 38.42 273.75 38.3199 273.75 38.1899C273.75 38.1299 273.75 38.0898 273.76 38.0598L273.81 38.04ZM283.75 22.79C283.24 24.1 282.72 25.4699 282.21 26.8799C281.7 28.2899 281.19 29.65 280.67 30.95H286.76L283.75 22.79Z" fill="white"/>
<path d="M296.57 18.0203C296.57 17.5703 296.78 17.3501 297.21 17.3501H305.33C306.29 17.3501 307.18 17.5402 307.99 17.9102C308.8 18.2902 309.5 18.7902 310.08 19.4202C310.66 20.0502 311.12 20.7701 311.44 21.5901C311.76 22.4101 311.93 23.2501 311.93 24.1401C311.93 25.0301 311.77 25.8401 311.45 26.6501C311.13 27.4601 310.68 28.1703 310.11 28.7903C309.54 29.4103 308.84 29.9103 308.04 30.2903C307.24 30.6703 306.36 30.8501 305.41 30.8501H300.7V37.9502C300.7 38.3602 300.49 38.5601 300.06 38.5601H297.2C296.78 38.5601 296.57 38.3502 296.57 37.9502V18.0203ZM307.76 24.1101C307.76 23.7201 307.68 23.3302 307.53 22.9602C307.38 22.5802 307.17 22.2502 306.9 21.9602C306.63 21.6702 306.31 21.4302 305.94 21.2502C305.57 21.0702 305.16 20.9802 304.72 20.9802H300.7V27.2502H304.72C305.15 27.2502 305.55 27.1602 305.92 26.9902C306.29 26.8202 306.61 26.5903 306.89 26.3003C307.16 26.0103 307.37 25.6803 307.53 25.3003C307.68 24.9203 307.76 24.5301 307.76 24.1201V24.1101Z" fill="white"/>
<path d="M315.3 18.0203C315.3 17.5703 315.51 17.3501 315.94 17.3501H324.06C325.02 17.3501 325.91 17.5402 326.72 17.9102C327.53 18.2902 328.23 18.7902 328.81 19.4202C329.39 20.0502 329.85 20.7701 330.17 21.5901C330.49 22.4101 330.66 23.2501 330.66 24.1401C330.66 25.0301 330.5 25.8401 330.18 26.6501C329.86 27.4601 329.41 28.1703 328.84 28.7903C328.27 29.4103 327.57 29.9103 326.77 30.2903C325.97 30.6703 325.09 30.8501 324.14 30.8501H319.43V37.9502C319.43 38.3602 319.22 38.5601 318.79 38.5601H315.93C315.51 38.5601 315.3 38.3502 315.3 37.9502V18.0203ZM326.49 24.1101C326.49 23.7201 326.41 23.3302 326.26 22.9602C326.11 22.5802 325.9 22.2502 325.63 21.9602C325.36 21.6702 325.04 21.4302 324.67 21.2502C324.3 21.0702 323.89 20.9802 323.45 20.9802H319.43V27.2502H323.45C323.88 27.2502 324.28 27.1602 324.65 26.9902C325.02 26.8202 325.34 26.5903 325.62 26.3003C325.89 26.0103 326.1 25.6803 326.26 25.3003C326.41 24.9203 326.49 24.5301 326.49 24.1201V24.1101Z" fill="white"/>
</svg>
