<svg width="296" height="56" viewBox="0 0 296 56" fill="none" xmlns="http://www.w3.org/2000/svg">
<path d="M34.0701 33.8699V5.84985L24.17 0L0.150024 13.5V24.23L24.54 10.52V28.22L9.39001 36.8398V24.8899L0 30.3799V41.6699L9.75 47.3799L34.0701 33.8699Z" fill="url(#paint0_linear_2002_510)"/>
<path d="M38.39 21.9902L38.25 36.3L38.0701 36.4102L14.3501 50.1001L24.1801 55.8901L48.0701 41.9502V27.5002L38.39 21.9902Z" fill="url(#paint1_linear_2002_510)"/>
<path d="M19.7599 18.8201L13.98 22.1401V19.6902L19.7599 16.3701V18.8201Z" fill="url(#paint2_linear_2002_510)"/>
<path d="M19.7599 23.1501L13.98 26.4702V24.0203L19.7599 20.7002V23.1501Z" fill="url(#paint3_linear_2002_510)"/>
<path d="M19.7599 27.9099L13.98 31.23V28.78L19.7599 25.46V27.9099Z" fill="url(#paint4_linear_2002_510)"/>
<path d="M38.25 7.37988V15.5898L48.0701 21.3398V13.0798L38.25 7.37988Z" fill="url(#paint5_linear_2002_510)"/>
<path d="M65 18.0203C65 17.5703 65.21 17.3501 65.64 17.3501H73.76C74.72 17.3501 75.6099 17.5402 76.4199 17.9102C77.2299 18.2902 77.93 18.7902 78.51 19.4202C79.09 20.0502 79.55 20.7701 79.87 21.5901C80.19 22.4001 80.36 23.2501 80.36 24.1401C80.36 25.0301 80.2 25.8401 79.88 26.6501C79.56 27.4601 79.1099 28.1703 78.5399 28.7903C77.9699 29.4103 77.27 29.9103 76.47 30.2903C75.67 30.6703 74.79 30.8501 73.84 30.8501H69.13V37.9502C69.13 38.3602 68.92 38.5601 68.49 38.5601H65.63C65.21 38.5601 65 38.3502 65 37.9502V18.0203ZM76.1899 24.1101C76.1899 23.7201 76.11 23.3302 75.96 22.9602C75.81 22.5902 75.6 22.2502 75.33 21.9602C75.06 21.6702 74.74 21.4302 74.37 21.2502C74 21.0702 73.59 20.9802 73.15 20.9802H69.13V27.2502H73.15C73.58 27.2502 73.98 27.1602 74.35 26.9902C74.72 26.8202 75.0399 26.5903 75.3199 26.3003C75.5899 26.0103 75.81 25.6803 75.96 25.3003C76.11 24.9203 76.1899 24.5301 76.1899 24.1201V24.1101Z" fill="white"/>
<path d="M83.8901 17.97C83.8901 17.8 83.94 17.65 84.05 17.53C84.16 17.41 84.3101 17.3398 84.5201 17.3398H87.3501C87.5101 17.3398 87.6601 17.4 87.8101 17.51C87.9601 17.62 88.0201 17.78 88.0201 17.97V37.9299C88.0201 38.3499 87.8001 38.5598 87.3501 38.5598H84.5201C84.1001 38.5598 83.8901 38.3499 83.8901 37.9299V17.97Z" fill="white"/>
<path d="M91.8198 27.9802C91.8198 26.9802 91.9498 26.0101 92.2098 25.0801C92.4698 24.1501 92.8298 23.2802 93.3098 22.4702C93.7898 21.6602 94.3499 20.9203 95.0199 20.2603C95.6899 19.6003 96.4199 19.0203 97.2299 18.5503C98.0399 18.0803 98.9098 17.7102 99.8398 17.4502C100.77 17.1902 101.74 17.0601 102.75 17.0601C103.76 17.0601 104.71 17.1902 105.64 17.4502C106.57 17.7102 107.44 18.0803 108.25 18.5503C109.06 19.0203 109.8 19.5903 110.46 20.2603C111.13 20.9303 111.7 21.6702 112.17 22.4702C112.64 23.2702 113.01 24.1501 113.27 25.0801C113.53 26.0101 113.66 26.9902 113.66 28.0002C113.66 29.0102 113.53 29.9801 113.27 30.9001C113.01 31.8201 112.64 32.6902 112.17 33.5002C111.7 34.3102 111.13 35.0502 110.46 35.7102C109.79 36.3702 109.06 36.9402 108.25 37.4102C107.44 37.8802 106.57 38.2402 105.64 38.5002C104.71 38.7602 103.74 38.8901 102.73 38.8901C101.72 38.8901 100.75 38.7602 99.8198 38.5002C98.8898 38.2402 98.0198 37.8801 97.2098 37.4001C96.3998 36.9201 95.6699 36.3602 94.9999 35.6902C94.3299 35.0202 93.7698 34.2902 93.2998 33.4902C92.8298 32.6802 92.4598 31.8201 92.2098 30.8901C91.9498 29.9601 91.8198 28.9902 91.8198 27.9802ZM95.9498 27.9502C95.9498 28.9102 96.1198 29.8101 96.4698 30.6501C96.8198 31.4901 97.2899 32.2201 97.8999 32.8401C98.4999 33.4601 99.2198 33.9501 100.04 34.3101C100.86 34.6701 101.76 34.8501 102.72 34.8501C103.68 34.8501 104.56 34.6701 105.39 34.3101C106.21 33.9501 106.93 33.4601 107.54 32.8401C108.15 32.2201 108.63 31.4901 108.98 30.6501C109.33 29.8101 109.5 28.9102 109.5 27.9502C109.5 26.9902 109.33 26.1003 108.98 25.2603C108.63 24.4203 108.15 23.6901 107.54 23.0701C106.93 22.4501 106.21 21.9501 105.39 21.5901C104.57 21.2301 103.68 21.0503 102.72 21.0503C101.76 21.0503 100.86 21.2301 100.04 21.5901C99.2198 21.9501 98.4999 22.4501 97.8999 23.0701C97.2899 23.6901 96.8198 24.4303 96.4698 25.2603C96.1198 26.1003 95.9498 26.9902 95.9498 27.9502Z" fill="white"/>
<path d="M117.41 17.9897C117.41 17.8097 117.46 17.6598 117.57 17.5298C117.68 17.3998 117.83 17.3396 118.03 17.3396H121.32C121.45 17.3396 121.58 17.3697 121.7 17.4297C121.82 17.4897 121.93 17.5897 122.02 17.7197C123.65 20.0397 125.26 22.3496 126.86 24.6396C128.46 26.9296 130.07 29.2396 131.7 31.5596V17.8696C131.73 17.6996 131.8 17.5597 131.91 17.4697C132.02 17.3697 132.16 17.3296 132.32 17.3296H135.08C135.27 17.3296 135.43 17.3898 135.57 17.4998C135.71 17.6098 135.78 17.7697 135.78 17.9597V37.9597C135.78 38.3497 135.56 38.5498 135.11 38.5498H132.01C131.8 38.5498 131.61 38.4197 131.43 38.1597C129.75 35.7297 128.08 33.2996 126.42 30.8796C124.76 28.4596 123.09 26.0196 121.43 23.5896V37.9197C121.43 38.1297 121.38 38.2896 121.28 38.3896C121.18 38.4996 121.01 38.5498 120.77 38.5498H118.03C117.81 38.5498 117.65 38.4996 117.55 38.3896C117.45 38.2796 117.4 38.1297 117.4 37.9397V17.9797L117.41 17.9897Z" fill="white"/>
<path d="M140.41 18.03C140.41 17.57 140.62 17.3398 141.04 17.3398H154.81C155.06 17.3398 155.23 17.41 155.34 17.55C155.44 17.69 155.5 17.8598 155.5 18.0698V20.5898C155.5 20.7598 155.44 20.92 155.32 21.05C155.2 21.18 155.02 21.25 154.78 21.25H144.62V25.5798H152.45C152.64 25.5598 152.79 25.6 152.91 25.7C153.02 25.8 153.08 25.97 153.08 26.21V28.8C153.08 28.97 153.03 29.12 152.94 29.26C152.84 29.39 152.69 29.46 152.48 29.46H144.62V34.6499H155.15C155.42 34.6499 155.59 34.7098 155.68 34.8198C155.77 34.9398 155.81 35.1099 155.81 35.3499V37.96C155.81 38.36 155.6 38.5598 155.18 38.5598H141.03C140.86 38.5598 140.71 38.5099 140.59 38.4199C140.47 38.3199 140.4 38.17 140.4 37.96V18.03H140.41Z" fill="white"/>
<path d="M184.15 18.8899C184.26 18.9599 184.36 19.0399 184.44 19.1299C184.52 19.2299 184.55 19.34 184.55 19.47C184.55 19.57 184.52 19.68 184.47 19.8L183.08 22.1599C182.92 22.3799 182.75 22.49 182.57 22.49C182.51 22.49 182.45 22.48 182.37 22.45C182.29 22.43 182.22 22.3898 182.14 22.3398C181.54 21.9098 180.9 21.5798 180.21 21.3398C179.52 21.0998 178.8 20.98 178.02 20.98C177.05 20.98 176.16 21.16 175.35 21.53C174.54 21.9 173.84 22.39 173.25 23.02C172.66 23.65 172.2 24.39 171.87 25.23C171.54 26.08 171.38 26.99 171.38 27.96C171.38 28.93 171.55 29.8299 171.87 30.6699C172.2 31.5099 172.66 32.2499 173.25 32.8799C173.84 33.5099 174.54 33.9999 175.35 34.3699C176.16 34.7399 177.05 34.9099 178.02 34.9099C178.79 34.9099 179.53 34.79 180.23 34.55C180.93 34.31 181.58 33.98 182.17 33.55C182.25 33.49 182.32 33.4599 182.41 33.4399C182.49 33.4199 182.56 33.4099 182.62 33.3999C182.78 33.3999 182.95 33.51 183.12 33.71L184.53 36.0999C184.59 36.2099 184.62 36.3199 184.62 36.4099C184.62 36.5399 184.58 36.65 184.5 36.74C184.42 36.83 184.33 36.91 184.22 36.98C183.32 37.58 182.36 38.0399 181.33 38.3699C180.3 38.6999 179.21 38.8599 178.07 38.8599C177.06 38.8599 176.09 38.73 175.16 38.47C174.23 38.21 173.36 37.8499 172.55 37.3699C171.74 36.8899 171.01 36.3299 170.34 35.6599C169.67 34.9899 169.11 34.26 168.63 33.46C168.15 32.65 167.79 31.7899 167.53 30.8599C167.27 29.9299 167.14 28.96 167.14 27.95C167.14 26.94 167.27 25.97 167.53 25.04C167.79 24.11 168.15 23.2399 168.63 22.4199C169.11 21.6099 169.68 20.87 170.34 20.2C171 19.53 171.74 18.96 172.55 18.49C173.36 18.02 174.23 17.6499 175.16 17.3899C176.09 17.1299 177.06 17 178.07 17C179.2 17 180.28 17.16 181.3 17.48C182.32 17.8 183.28 18.2599 184.17 18.8599L184.15 18.8899Z" fill="white"/>
<path d="M188.43 17.97C188.43 17.81 188.48 17.66 188.59 17.53C188.7 17.4 188.85 17.3398 189.04 17.3398H191.89C192.05 17.3398 192.2 17.4 192.35 17.53C192.5 17.66 192.56 17.8 192.56 17.97V25.3699H202.15V17.97C202.15 17.8 202.21 17.65 202.32 17.53C202.43 17.41 202.59 17.3398 202.78 17.3398H205.59C205.78 17.3398 205.94 17.39 206.08 17.5C206.22 17.61 206.29 17.76 206.29 17.95V37.9199C206.29 38.3399 206.07 38.55 205.62 38.55H202.79C202.37 38.55 202.16 38.3399 202.16 37.9199V29.28H192.57V37.9199C192.57 38.3399 192.34 38.55 191.87 38.55H189.05C188.64 38.55 188.44 38.35 188.44 37.96V17.96L188.43 17.97Z" fill="white"/>
<path d="M209.45 38.04C209.5 37.85 209.55 37.67 209.61 37.51C209.67 37.35 209.73 37.1998 209.78 37.0698L217.48 17.8999C217.51 17.7899 217.59 17.68 217.72 17.55C217.85 17.42 218.02 17.3599 218.24 17.3599H220.54C220.77 17.3599 220.93 17.42 221.03 17.53C221.13 17.64 221.2 17.7398 221.25 17.8298L221.72 18.95L229.26 37.8298C229.26 37.8298 229.26 37.91 229.28 37.98C229.29 38.05 229.3 38.1099 229.3 38.1599C229.3 38.4499 229.09 38.5898 228.67 38.5898H225.85C225.64 38.5898 225.48 38.55 225.36 38.46C225.25 38.38 225.15 38.2398 225.07 38.0598L224.81 37.3999C224.63 36.9399 224.45 36.48 224.27 36.03C224.09 35.58 223.91 35.1099 223.74 34.6399H214.92C214.67 35.3099 214.43 35.93 214.2 36.52C213.97 37.11 213.77 37.6198 213.61 38.0598C213.48 38.4098 213.23 38.5898 212.87 38.5898H210.01C209.83 38.5898 209.68 38.56 209.57 38.49C209.46 38.42 209.4 38.3199 209.4 38.1899C209.4 38.1299 209.4 38.0898 209.41 38.0598L209.45 38.04ZM219.4 22.79C218.89 24.1 218.37 25.4699 217.86 26.8799C217.35 28.2899 216.84 29.65 216.32 30.95H222.41L219.4 22.79Z" fill="white"/>
<path d="M232.36 18.0203C232.36 17.5703 232.57 17.3501 232.99 17.3501H241.74C242.7 17.3501 243.6 17.5301 244.44 17.8901C245.28 18.2501 246.01 18.7401 246.63 19.3601C247.25 19.9801 247.74 20.7103 248.1 21.5503C248.46 22.3903 248.64 23.2802 248.64 24.2202C248.64 24.8802 248.55 25.5101 248.37 26.1101C248.19 26.7101 247.94 27.2703 247.61 27.7803C247.29 28.2903 246.9 28.7602 246.45 29.1702C246 29.5802 245.51 29.9302 244.96 30.2202L248.67 37.5503C248.69 37.6503 248.72 37.7401 248.77 37.8401C248.82 37.9301 248.84 38.0401 248.84 38.1401C248.84 38.4301 248.67 38.5701 248.34 38.5701H245.02C244.68 38.5701 244.45 38.3903 244.33 38.0403L240.87 31.1802C240.72 31.1802 240.55 31.1802 240.38 31.1802C240.2 31.1802 239.96 31.1802 239.65 31.1802H236.5V37.9402C236.5 38.3502 236.28 38.5503 235.84 38.5503H232.97C232.78 38.5503 232.63 38.5001 232.51 38.4001C232.4 38.3001 232.34 38.1502 232.34 37.9402V18.0103L232.36 18.0203ZM244.4 24.2402C244.4 23.8302 244.32 23.4303 244.17 23.0503C244.02 22.6703 243.8 22.3203 243.53 22.0203C243.25 21.7203 242.93 21.4703 242.54 21.2803C242.16 21.0903 241.74 20.9802 241.3 20.9502C240.97 20.9502 240.64 20.9302 240.32 20.9302C240 20.9302 239.67 20.9302 239.33 20.9302H236.51V27.5601H240.82C240.99 27.5601 241.16 27.5603 241.36 27.5303C241.81 27.5003 242.22 27.4002 242.6 27.2202C242.98 27.0402 243.3 26.8002 243.56 26.5002C243.83 26.2002 244.03 25.8602 244.18 25.4702C244.33 25.0802 244.4 24.6802 244.4 24.2502V24.2402Z" fill="white"/>
<path d="M252.25 17.97C252.25 17.8 252.3 17.65 252.41 17.53C252.52 17.41 252.67 17.3398 252.88 17.3398H255.71C255.87 17.3398 256.02 17.4 256.17 17.51C256.32 17.62 256.38 17.78 256.38 17.97V37.9299C256.38 38.3499 256.16 38.5598 255.71 38.5598H252.88C252.46 38.5598 252.25 38.3499 252.25 37.9299V17.97Z" fill="white"/>
<path d="M259.66 17.97C259.66 17.78 259.72 17.63 259.85 17.51C259.97 17.4 260.13 17.3398 260.32 17.3398H275.35C275.52 17.3398 275.68 17.39 275.81 17.5C275.95 17.61 276.03 17.76 276.05 17.97V20.47C276.05 20.66 275.99 20.83 275.87 20.97C275.75 21.11 275.58 21.1799 275.35 21.1799H269.92V37.8999C269.92 38.0699 269.86 38.2199 269.74 38.3599C269.62 38.4899 269.46 38.5598 269.25 38.5598H266.44C266.27 38.5598 266.11 38.4999 265.98 38.3699C265.84 38.2499 265.77 38.0899 265.77 37.8999V21.1799H260.33C260.14 21.1799 259.98 21.12 259.86 21C259.74 20.88 259.67 20.7 259.67 20.46V17.96L259.66 17.97Z" fill="white"/>
<path d="M286.51 25.9902H286.54L290.87 17.8003C290.97 17.5903 291.07 17.4702 291.14 17.4402C291.21 17.4102 291.32 17.3801 291.45 17.3501H295.39C295.57 17.3501 295.66 17.4301 295.66 17.5901C295.66 17.6801 295.6 17.8002 295.47 17.9502C294.32 19.9002 293.17 21.8701 292.04 23.8601C290.91 25.8501 289.75 27.8203 288.58 29.7703V37.9001C288.58 38.3501 288.37 38.5701 287.94 38.5701H285.03C284.63 38.5701 284.43 38.3501 284.43 37.9001V29.8003L277.56 17.9802C277.56 17.9802 277.48 17.8603 277.45 17.7703C277.42 17.6803 277.41 17.6101 277.41 17.5601C277.41 17.4201 277.5 17.3501 277.68 17.3501H281.59C281.67 17.3701 281.73 17.3801 281.78 17.3901C281.83 17.3901 281.87 17.4102 281.92 17.4402C281.96 17.4702 282 17.5201 282.05 17.5801C282.1 17.6401 282.15 17.7401 282.22 17.8701L286.52 26.0002L286.51 25.9902Z" fill="white"/>
<defs>
<linearGradient id="paint0_linear_2002_510" x1="11.86" y1="37.1899" x2="24.5" y2="4.66995" gradientUnits="userSpaceOnUse">
<stop stop-color="#00AEEF"/>
<stop offset="1" stop-color="#F7941D"/>
</linearGradient>
<linearGradient id="paint1_linear_2002_510" x1="31.6501" y1="44.8902" x2="44.3" y2="12.3702" gradientUnits="userSpaceOnUse">
<stop stop-color="#00AEEF"/>
<stop offset="1" stop-color="#F7941D"/>
</linearGradient>
<linearGradient id="paint2_linear_2002_510" x1="10.15" y1="36.5302" x2="22.8003" y2="4.01024" gradientUnits="userSpaceOnUse">
<stop stop-color="#00AEEF"/>
<stop offset="1" stop-color="#F7941D"/>
</linearGradient>
<linearGradient id="paint3_linear_2002_510" x1="11.61" y1="37.1003" x2="24.2602" y2="4.58031" gradientUnits="userSpaceOnUse">
<stop stop-color="#00AEEF"/>
<stop offset="1" stop-color="#F7941D"/>
</linearGradient>
<linearGradient id="paint4_linear_2002_510" x1="13.22" y1="37.72" x2="25.8702" y2="5.21006" gradientUnits="userSpaceOnUse">
<stop stop-color="#00AEEF"/>
<stop offset="1" stop-color="#F7941D"/>
</linearGradient>
<linearGradient id="paint5_linear_2002_510" x1="31.34" y1="44.7698" x2="43.9798" y2="12.2498" gradientUnits="userSpaceOnUse">
<stop stop-color="#00AEEF"/>
<stop offset="1" stop-color="#F7941D"/>
</linearGradient>
</defs>
</svg>
