<svg width="127" height="34" viewBox="0 0 127 34" fill="none" xmlns="http://www.w3.org/2000/svg">
<path d="M37.04 22V11.0909H41.5464C42.3631 11.0909 43.068 11.2507 43.6611 11.5703C44.2577 11.8864 44.7176 12.3285 45.0407 12.8967C45.3639 13.4613 45.5254 14.1183 45.5254 14.8675C45.5254 15.6204 45.3603 16.2791 45.0301 16.8438C44.7033 17.4048 44.2364 17.8398 43.6291 18.1488C43.0219 18.4577 42.301 18.6122 41.4665 18.6122H38.6859V16.5348H40.9764C41.3742 16.5348 41.7062 16.4656 41.9725 16.3271C42.2424 16.1886 42.4466 15.995 42.5851 15.7464C42.7236 15.4943 42.7928 15.2013 42.7928 14.8675C42.7928 14.5302 42.7236 14.239 42.5851 13.994C42.4466 13.7454 42.2424 13.5536 41.9725 13.4187C41.7026 13.2837 41.3706 13.2163 40.9764 13.2163H39.6767V22H37.04ZM49.4619 11.0909V22H46.8252V11.0909H49.4619ZM61.4137 16.5455C61.4137 17.7457 61.1828 18.7631 60.7212 19.5977C60.2595 20.4322 59.6345 21.0661 58.8462 21.4993C58.0614 21.9325 57.1807 22.1491 56.2041 22.1491C55.224 22.1491 54.3416 21.9308 53.5568 21.494C52.772 21.0572 52.1487 20.4233 51.6871 19.5923C51.229 18.7578 51 17.7422 51 16.5455C51 15.3452 51.229 14.3278 51.6871 13.4933C52.1487 12.6587 52.772 12.0249 53.5568 11.5916C54.3416 11.1584 55.224 10.9418 56.2041 10.9418C57.1807 10.9418 58.0614 11.1584 58.8462 11.5916C59.6345 12.0249 60.2595 12.6587 60.7212 13.4933C61.1828 14.3278 61.4137 15.3452 61.4137 16.5455ZM58.7184 16.5455C58.7184 15.8352 58.6171 15.2351 58.4147 14.745C58.2159 14.255 57.9282 13.8839 57.5518 13.6317C57.1789 13.3796 56.7297 13.2536 56.2041 13.2536C55.6821 13.2536 55.2329 13.3796 54.8565 13.6317C54.4801 13.8839 54.1907 14.255 53.9882 14.745C53.7894 15.2351 53.6899 15.8352 53.6899 16.5455C53.6899 17.2557 53.7894 17.8558 53.9882 18.3459C54.1907 18.8359 54.4801 19.207 54.8565 19.4592C55.2329 19.7113 55.6821 19.8374 56.2041 19.8374C56.7297 19.8374 57.1789 19.7113 57.5518 19.4592C57.9282 19.207 58.2159 18.8359 58.4147 18.3459C58.6171 17.8558 58.7184 17.2557 58.7184 16.5455ZM72.2375 11.0909V22H70.0003L65.659 15.7038H65.5898V22H62.9531V11.0909H65.2223L69.5156 17.3764H69.6061V11.0909H72.2375ZM73.8955 22V11.0909H81.502V13.2322H76.5322V15.4695H81.1131V17.6161H76.5322V19.8587H81.502V22H73.8955Z" fill="#D93923"/>
<path d="M86.3386 22V20.4979L91.6387 13.2322H86.344V11.0909H94.9732V12.593L89.6732 19.8587H94.9679V22H86.3386ZM96.5859 22V11.0909H104.192V13.2322H99.2226V15.4695H103.804V17.6161H99.2226V19.8587H104.192V22H96.5859ZM105.844 22V11.0909H110.35C111.167 11.0909 111.872 11.2383 112.465 11.533C113.061 11.8242 113.521 12.2433 113.844 12.7901C114.168 13.3335 114.329 13.978 114.329 14.7237C114.329 15.4801 114.164 16.1229 113.834 16.652C113.504 17.1776 113.035 17.5788 112.428 17.8558C111.82 18.1293 111.101 18.266 110.27 18.266H107.42V16.1886H109.78C110.178 16.1886 110.51 16.1371 110.776 16.0341C111.046 15.9276 111.25 15.7678 111.389 15.5547C111.527 15.3381 111.597 15.0611 111.597 14.7237C111.597 14.3864 111.527 14.1076 111.389 13.8874C111.25 13.6637 111.046 13.4968 110.776 13.3867C110.506 13.2731 110.174 13.2163 109.78 13.2163H108.48V22H105.844ZM111.985 17.0142L114.702 22H111.826L109.162 17.0142H111.985ZM126.072 16.5455C126.072 17.7457 125.841 18.7631 125.379 19.5977C124.918 20.4322 124.293 21.0661 123.504 21.4993C122.72 21.9325 121.839 22.1491 120.862 22.1491C119.882 22.1491 119 21.9308 118.215 21.494C117.43 21.0572 116.807 20.4233 116.345 19.5923C115.887 18.7578 115.658 17.7422 115.658 16.5455C115.658 15.3452 115.887 14.3278 116.345 13.4933C116.807 12.6587 117.43 12.0249 118.215 11.5916C119 11.1584 119.882 10.9418 120.862 10.9418C121.839 10.9418 122.72 11.1584 123.504 11.5916C124.293 12.0249 124.918 12.6587 125.379 13.4933C125.841 14.3278 126.072 15.3452 126.072 16.5455ZM123.377 16.5455C123.377 15.8352 123.275 15.2351 123.073 14.745C122.874 14.255 122.586 13.8839 122.21 13.6317C121.837 13.3796 121.388 13.2536 120.862 13.2536C120.34 13.2536 119.891 13.3796 119.515 13.6317C119.138 13.8839 118.849 14.255 118.646 14.745C118.448 15.2351 118.348 15.8352 118.348 16.5455C118.348 17.2557 118.448 17.8558 118.646 18.3459C118.849 18.8359 119.138 19.207 119.515 19.4592C119.891 19.7113 120.34 19.8374 120.862 19.8374C121.388 19.8374 121.837 19.7113 122.21 19.4592C122.586 19.207 122.874 18.8359 123.073 18.3459C123.275 17.8558 123.377 17.2557 123.377 16.5455Z" fill="#2ACBFE"/>
<path d="M0 8.06055L15.5277 0L22 3.41241V19.7678L6.52948 28L0 24.5577V17.6113L6.41752 14.1772L6.45266 21.1602L15.5171 16.333L15.5261 5.89207L0 14.3854V8.06055Z" fill="url(#paint0_linear_1_1218)"/>
<path d="M11.9952 10L9 12.0037L9.00408 13L12 10.9963L11.9952 10Z" fill="#01FFFA"/>
<path d="M11.9952 13L9 15.0042L9.00408 16L12 13.9958L11.9952 13Z" fill="#01FFFA"/>
<path d="M11.9952 15L9 17.0042L9.00408 18L12 15.9958L11.9952 15Z" fill="#01FFFA"/>
<path d="M9 30.4333L23.6281 22.009L23.642 22L30 25.6486L15.3529 34L9 30.4333Z" fill="url(#paint1_linear_1_1218)"/>
<path d="M14 28L20 31" stroke="white" stroke-width="0.3" stroke-miterlimit="10"/>
<path d="M19 25L25 28" stroke="white" stroke-width="0.3" stroke-miterlimit="10"/>
<g clip-path="url(#clip0_1_1218)">
<path fill-rule="evenodd" clip-rule="evenodd" d="M26.4439 8.52124C30.6712 7.93939 31.8932 9.20003 31.8932 12.2315C31.8772 12.7841 31.8621 15.5808 31.8462 16.1334C31.7308 16.5697 30.7352 16.7705 30.1731 16.6182C29.9634 16.5614 29.7518 16.3758 29.7115 16.1334C29.6805 15.0543 29.6849 11.7318 29.6539 10.6527C29.6539 10.1697 28.8462 9.97576 27.8077 9.97576C26.3654 9.97576 26.0192 10.4158 26.0192 10.8105C25.9563 12.6001 25.9627 17.1061 26.0257 18.8957C26.0671 19.1231 26.1611 19.3331 26.3077 19.5273C26.6311 19.7404 26.9751 19.9244 27.3417 20.0799C27.6613 20.9166 26.9205 21.2872 25.8799 21.1609C24.8572 20.8286 24.2463 20.2104 24.047 19.3058C23.984 17.2533 23.984 12.4683 24.047 10.4158C24.3995 9.38091 25.1985 8.74938 26.4439 8.52124Z" fill="#F55B07"/>
<path d="M28.7945 21.5152L30.5091 17.1515H31.3249L30.4605 19.3333L29.5961 21.5152H28.7945ZM28.2206 19.8203C27.9042 19.8203 27.6396 19.7086 27.4271 19.4851C27.2193 19.2617 27.1154 18.9265 27.1154 18.4796C27.1154 18.0411 27.2193 17.7123 27.4271 17.493C27.6396 17.2696 27.9042 17.1578 28.2206 17.1578C28.5276 17.1578 28.7874 17.2696 29 17.493C29.2172 17.7123 29.3259 18.0411 29.3259 18.4796C29.3259 18.9265 29.2172 19.2617 29 19.4851C28.7874 19.7086 28.5276 19.8203 28.2206 19.8203ZM28.2206 19.2364C28.3649 19.2364 28.4423 19.1394 28.5 19.0424C28.55 18.9583 28.6316 18.8 28.6316 18.4796C28.6316 18.1676 28.6154 18.0727 28.5577 17.9273C28.5 17.7818 28.3859 17.7333 28.2206 17.7333C28.0506 17.7333 27.974 17.7755 27.8654 17.9273C27.8026 18.0727 27.8026 18.1676 27.8026 18.4796C27.8026 18.8 27.8654 18.897 27.923 19.0424C28.0317 19.1942 28.0961 19.2364 28.2206 19.2364ZM31.6639 21.5152C31.3475 21.5152 31.083 21.4034 30.8704 21.18C30.6626 20.9565 30.5587 20.6213 30.5587 20.1744C30.5587 19.736 30.6626 19.4071 30.8704 19.1879C31.083 18.9644 31.3475 18.8527 31.6639 18.8527C31.971 18.8527 32.2307 18.9644 32.4433 19.1879C32.6606 19.4071 32.7692 19.736 32.7692 20.1744C32.7692 20.6213 32.6606 20.9565 32.4433 21.18C32.2307 21.4034 31.971 21.5152 31.6639 21.5152ZM31.6639 21.0303C31.8293 21.0303 31.9468 20.8849 32.0192 20.7879C32.1326 20.6361 32.1923 20.4949 32.1923 20.1744C32.1923 19.8625 32.1326 19.6791 32.0192 19.5273C31.9106 19.3755 31.7884 19.3333 31.6639 19.3333C31.4939 19.3333 31.3778 19.424 31.2692 19.5758C31.1606 19.7275 31.1538 20.0121 31.1538 20.1744C31.1538 20.4 31.2183 20.6846 31.3269 20.8364C31.4355 20.9881 31.5577 21.0303 31.6639 21.0303Z" fill="#F55B07"/>
</g>
<defs>
<linearGradient id="paint0_linear_1_1218" x1="6.66023" y1="27.9828" x2="-1.54073" y2="7.98619" gradientUnits="userSpaceOnUse">
<stop offset="0.491513" stop-color="#3FF8FD"/>
<stop offset="1" stop-color="#27C6FE"/>
</linearGradient>
<linearGradient id="paint1_linear_1_1218" x1="27.2647" y1="15.4271" x2="12.2486" y2="33.1666" gradientUnits="userSpaceOnUse">
<stop stop-color="#E7A93F"/>
<stop offset="1" stop-color="#F65905"/>
</linearGradient>
<clipPath id="clip0_1_1218">
<rect width="9" height="16" fill="white" transform="translate(24 6)"/>
</clipPath>
</defs>
</svg>
