<svg width="113" height="34" viewBox="0 0 113 34" fill="none" xmlns="http://www.w3.org/2000/svg">
<path d="M20.1068 20.0288V3.46143L14.267 0L0.0848879 7.98774V14.3304L14.4809 6.22266V16.692L5.54097 21.7845V14.7184L0 17.9701V24.6401L5.75377 28.0177L20.1068 20.0288Z" fill="#FF6D00"/>
<path d="M22.9032 12.8551L22.8197 21.4865L22.714 21.5471L8.57037 29.802L14.4313 33.2916L28.6772 24.8918V16.1785L22.9032 12.8551Z" fill="#FF6D00"/>
<path d="M11.8662 11.0995L8.24036 13.1847V11.644L11.8662 9.55884V11.0995Z" fill="#FF6D00"/>
<path d="M11.8662 13.9261L8.24036 15.8217V14.42L11.8662 12.5255V13.9261Z" fill="#FF6D00"/>
<path d="M11.8662 16.5631L8.24036 18.4587V17.0581L11.8662 15.1625V16.5631Z" fill="#FF6D00"/>
<path d="M22.4145 4.61453V9.26727L28.6773 12.5254V7.84141L22.4145 4.61453Z" fill="#FC7F00"/>
<path d="M34.8256 22V11.0909H39.332C40.1488 11.0909 40.8537 11.2507 41.4467 11.5703C42.0433 11.8864 42.5032 12.3285 42.8263 12.8967C43.1495 13.4613 43.3111 14.1183 43.3111 14.8675C43.3111 15.6204 43.146 16.2791 42.8157 16.8438C42.489 17.4048 42.022 17.8398 41.4148 18.1488C40.8075 18.4577 40.0866 18.6122 39.2521 18.6122H36.4716V16.5348H38.7621C39.1598 16.5348 39.4918 16.4656 39.7582 16.3271C40.0281 16.1886 40.2322 15.995 40.3707 15.7464C40.5092 15.4943 40.5785 15.2013 40.5785 14.8675C40.5785 14.5302 40.5092 14.239 40.3707 13.994C40.2322 13.7454 40.0281 13.5536 39.7582 13.4187C39.4883 13.2837 39.1563 13.2163 38.7621 13.2163H37.4624V22H34.8256ZM47.2475 11.0909V22H44.6108V11.0909H47.2475ZM59.1993 16.5455C59.1993 17.7457 58.9685 18.7631 58.5068 19.5977C58.0452 20.4322 57.4202 21.0661 56.6318 21.4993C55.847 21.9325 54.9664 22.1491 53.9898 22.1491C53.0097 22.1491 52.1272 21.9308 51.3424 21.494C50.5576 21.0572 49.9344 20.4233 49.4727 19.5923C49.0146 18.7578 48.7856 17.7422 48.7856 16.5455C48.7856 15.3452 49.0146 14.3278 49.4727 13.4933C49.9344 12.6587 50.5576 12.0249 51.3424 11.5916C52.1272 11.1584 53.0097 10.9418 53.9898 10.9418C54.9664 10.9418 55.847 11.1584 56.6318 11.5916C57.4202 12.0249 58.0452 12.6587 58.5068 13.4933C58.9685 14.3278 59.1993 15.3452 59.1993 16.5455ZM56.504 16.5455C56.504 15.8352 56.4028 15.2351 56.2004 14.745C56.0015 14.255 55.7139 13.8839 55.3374 13.6317C54.9646 13.3796 54.5154 13.2536 53.9898 13.2536C53.4678 13.2536 53.0186 13.3796 52.6421 13.6317C52.2657 13.8839 51.9763 14.255 51.7739 14.745C51.575 15.2351 51.4756 15.8352 51.4756 16.5455C51.4756 17.2557 51.575 17.8558 51.7739 18.3459C51.9763 18.8359 52.2657 19.207 52.6421 19.4592C53.0186 19.7113 53.4678 19.8374 53.9898 19.8374C54.5154 19.8374 54.9646 19.7113 55.3374 19.4592C55.7139 19.207 56.0015 18.8359 56.2004 18.3459C56.4028 17.8558 56.504 17.2557 56.504 16.5455ZM70.0232 11.0909V22H67.786L63.4447 15.7038H63.3754V22H60.7387V11.0909H63.0079L67.3012 17.3764H67.3918V11.0909H70.0232ZM71.6811 22V11.0909H79.2876V13.2322H74.3178V15.4695H78.8988V17.6161H74.3178V19.8587H79.2876V22H71.6811Z" fill="#D93923"/>
<path d="M84.1616 22V11.0909H88.668C89.4847 11.0909 90.1896 11.2507 90.7827 11.5703C91.3793 11.8864 91.8391 12.3285 92.1623 12.8967C92.4854 13.4613 92.647 14.1183 92.647 14.8675C92.647 15.6204 92.4819 16.2791 92.1516 16.8438C91.8249 17.4048 91.358 17.8398 90.7507 18.1488C90.1435 18.4577 89.4226 18.6122 88.5881 18.6122H85.8075V16.5348H88.098C88.4957 16.5348 88.8278 16.4656 89.0941 16.3271C89.364 16.1886 89.5682 15.995 89.7067 15.7464C89.8452 15.4943 89.9144 15.2013 89.9144 14.8675C89.9144 14.5302 89.8452 14.239 89.7067 13.994C89.5682 13.7454 89.364 13.5536 89.0941 13.4187C88.8242 13.2837 88.4922 13.2163 88.098 13.2163H86.7983V22H84.1616ZM93.9254 22V20.1037L97.9045 16.62C98.2028 16.3501 98.4567 16.1033 98.6662 15.8796C98.8757 15.6523 99.0355 15.4251 99.1456 15.1978C99.2557 14.967 99.3107 14.7166 99.3107 14.4467C99.3107 14.1449 99.245 13.8874 99.1136 13.6744C98.9822 13.4577 98.8011 13.2908 98.5703 13.1737C98.3395 13.0565 98.0749 12.9979 97.7766 12.9979C97.4748 12.9979 97.2102 13.06 96.983 13.1843C96.7557 13.305 96.5781 13.4808 96.4503 13.7116C96.326 13.9425 96.2638 14.223 96.2638 14.5533H93.7656C93.7656 13.8111 93.9325 13.1701 94.2663 12.6303C94.6001 12.0906 95.0689 11.6751 95.6726 11.3839C96.2798 11.0891 96.9847 10.9418 97.7873 10.9418C98.6147 10.9418 99.3338 11.0803 99.9446 11.3572C100.555 11.6342 101.028 12.0213 101.362 12.5185C101.699 13.0121 101.868 13.5856 101.868 14.239C101.868 14.6545 101.784 15.0664 101.617 15.4748C101.45 15.8832 101.15 16.3342 100.717 16.8278C100.287 17.3214 99.6765 17.9126 98.8846 18.6016L97.5795 19.8054V19.8746H102.001V22H93.9254ZM103.512 22V11.0909H108.019C108.835 11.0909 109.54 11.2507 110.133 11.5703C110.73 11.8864 111.19 12.3285 111.513 12.8967C111.836 13.4613 111.998 14.1183 111.998 14.8675C111.998 15.6204 111.832 16.2791 111.502 16.8438C111.176 17.4048 110.709 17.8398 110.101 18.1488C109.494 18.4577 108.773 18.6122 107.939 18.6122H105.158V16.5348H107.449C107.846 16.5348 108.178 16.4656 108.445 16.3271C108.715 16.1886 108.919 15.995 109.057 15.7464C109.196 15.4943 109.265 15.2013 109.265 14.8675C109.265 14.5302 109.196 14.239 109.057 13.994C108.919 13.7454 108.715 13.5536 108.445 13.4187C108.175 13.2837 107.843 13.2163 107.449 13.2163H106.149V22H103.512Z" fill="#FF6D00"/>
</svg>
