<svg width="272" height="56" viewBox="0 0 272 56" fill="none" xmlns="http://www.w3.org/2000/svg">
<path d="M34.0701 33.87V5.84998L24.17 0L0.150024 13.5V24.23L24.54 10.52V28.2201L9.39001 36.8401V24.89L0 30.38V41.67L9.75 47.38L34.0701 33.87Z" fill="#034DA1"/>
<path d="M38.39 21.9902L38.25 36.3003L38.0701 36.4103L14.3501 50.1002L24.1801 55.8903L48.0701 41.9503V27.5002L38.39 21.9902Z" fill="#034DA1"/>
<path d="M19.7599 18.8202L13.98 22.1401V19.6902L19.7599 16.3701V18.8202Z" fill="#034DA1"/>
<path d="M19.7599 23.1501L13.98 26.4702V24.0201L19.7599 20.7002V23.1501Z" fill="#034DA1"/>
<path d="M19.7599 27.9099L13.98 31.2299V28.7799L19.7599 25.46V27.9099Z" fill="#034DA1"/>
<path d="M38 9V17.2101L47.8201 22.9601V14.7001L38 9Z" fill="#F57F20"/>
<path d="M65 18.02C65 17.57 65.21 17.3501 65.64 17.3501H73.76C74.72 17.3501 75.6099 17.54 76.4199 17.91C77.2299 18.29 77.93 18.79 78.51 19.42C79.09 20.05 79.55 20.7701 79.87 21.5901C80.19 22.4001 80.36 23.25 80.36 24.14C80.36 25.03 80.2 25.84 79.88 26.65C79.56 27.46 79.11 28.17 78.54 28.79C77.96 29.41 77.27 29.91 76.47 30.29C75.67 30.67 74.79 30.8501 73.84 30.8501H69.13V37.9501C69.13 38.3601 68.92 38.5601 68.49 38.5601H65.63C65.21 38.5601 65 38.3501 65 37.9501V18.02ZM76.1899 24.1101C76.1899 23.7201 76.11 23.3301 75.96 22.9601C75.81 22.5801 75.6 22.2501 75.33 21.9601C75.06 21.6701 74.74 21.43 74.37 21.25C74 21.07 73.59 20.9801 73.15 20.9801H69.13V27.25H73.15C73.58 27.25 73.98 27.1601 74.35 26.9901C74.72 26.8201 75.0399 26.59 75.3199 26.3C75.5899 26.01 75.8 25.68 75.96 25.3C76.11 24.92 76.1899 24.53 76.1899 24.12V24.1101Z" fill="white"/>
<path d="M83.8901 17.9703C83.8901 17.8003 83.94 17.6503 84.05 17.5303C84.16 17.4103 84.3101 17.3403 84.5201 17.3403H87.3501C87.5101 17.3403 87.6601 17.4003 87.8101 17.5103C87.9601 17.6203 88.0201 17.7803 88.0201 17.9703V37.9303C88.0201 38.3503 87.8001 38.5603 87.3501 38.5603H84.5201C84.1001 38.5603 83.8901 38.3503 83.8901 37.9303V17.9703Z" fill="white"/>
<path d="M91.8198 27.9801C91.8198 26.9801 91.9498 26.0101 92.2098 25.0801C92.4698 24.1501 92.8298 23.2801 93.3098 22.4701C93.7898 21.6601 94.3599 20.92 95.0199 20.26C95.6799 19.6 96.4199 19.02 97.2299 18.55C98.0399 18.08 98.9098 17.7101 99.8398 17.4501C100.77 17.1901 101.74 17.0601 102.75 17.0601C103.76 17.0601 104.71 17.1901 105.64 17.4501C106.57 17.7101 107.44 18.08 108.25 18.55C109.06 19.02 109.8 19.59 110.46 20.26C111.12 20.93 111.7 21.6701 112.17 22.4701C112.64 23.2801 113.01 24.1501 113.27 25.0801C113.53 26.0101 113.66 26.99 113.66 28C113.66 29.01 113.53 29.98 113.27 30.9C113.01 31.82 112.64 32.69 112.17 33.5C111.7 34.31 111.13 35.0501 110.46 35.7101C109.79 36.3701 109.05 36.94 108.25 37.41C107.44 37.88 106.57 38.24 105.64 38.5C104.71 38.76 103.74 38.89 102.73 38.89C101.72 38.89 100.75 38.76 99.8198 38.5C98.8898 38.24 98.0198 37.88 97.2098 37.4C96.3998 36.92 95.6599 36.3601 94.9999 35.6901C94.3399 35.0201 93.7698 34.2901 93.2998 33.4901C92.8298 32.6801 92.4598 31.82 92.2098 30.89C91.9498 29.96 91.8198 28.9901 91.8198 27.9801ZM95.9498 27.9501C95.9498 28.9101 96.1198 29.81 96.4698 30.65C96.8198 31.49 97.2899 32.2201 97.8999 32.8401C98.5099 33.4601 99.2199 33.9501 100.04 34.3101C100.86 34.6701 101.76 34.8501 102.72 34.8501C103.68 34.8501 104.56 34.6701 105.39 34.3101C106.22 33.9501 106.93 33.4601 107.54 32.8401C108.15 32.2201 108.63 31.49 108.98 30.65C109.33 29.81 109.5 28.9101 109.5 27.9501C109.5 26.9901 109.33 26.1 108.98 25.26C108.63 24.42 108.15 23.6901 107.54 23.0701C106.93 22.4501 106.21 21.9501 105.39 21.5901C104.57 21.2301 103.68 21.05 102.72 21.05C101.76 21.05 100.87 21.2301 100.04 21.5901C99.2099 21.9501 98.4999 22.4501 97.8999 23.0701C97.2999 23.6901 96.8198 24.43 96.4698 25.26C96.1198 26.1 95.9498 26.9901 95.9498 27.9501Z" fill="white"/>
<path d="M117.41 17.9901C117.41 17.8101 117.46 17.66 117.57 17.53C117.68 17.4 117.83 17.3401 118.03 17.3401H121.32C121.45 17.3401 121.58 17.3701 121.7 17.4301C121.82 17.4901 121.93 17.5901 122.02 17.7201C123.65 20.0401 125.26 22.35 126.86 24.64C128.46 26.93 130.07 29.2401 131.7 31.5601V17.87C131.73 17.7 131.8 17.5601 131.91 17.4701C132.02 17.3701 132.16 17.3301 132.32 17.3301H135.08C135.27 17.3301 135.43 17.39 135.57 17.5C135.71 17.61 135.78 17.7701 135.78 17.9601V37.9601C135.78 38.3501 135.56 38.55 135.11 38.55H132.01C131.8 38.55 131.6 38.42 131.42 38.16C129.74 35.73 128.07 33.3 126.41 30.88C124.75 28.46 123.08 26.0201 121.42 23.5901V37.92C121.42 38.13 121.37 38.29 121.27 38.39C121.17 38.5 121 38.55 120.76 38.55H118.02C117.8 38.55 117.64 38.5 117.54 38.39C117.44 38.28 117.39 38.1301 117.39 37.9401V17.9801L117.41 17.9901Z" fill="white"/>
<path d="M140.41 18.0303C140.41 17.5703 140.62 17.3403 141.04 17.3403H154.81C155.06 17.3403 155.23 17.4103 155.34 17.5503C155.45 17.6903 155.5 17.8603 155.5 18.0703V20.5903C155.5 20.7603 155.44 20.9203 155.32 21.0503C155.2 21.1803 155.02 21.2502 154.78 21.2502H144.62V25.5803H152.45C152.64 25.5603 152.79 25.6003 152.91 25.7003C153.02 25.8003 153.08 25.9703 153.08 26.2103V28.8003C153.08 28.9703 153.03 29.1203 152.94 29.2603C152.85 29.3903 152.69 29.4603 152.48 29.4603H144.62V34.6503H155.15C155.42 34.6503 155.59 34.7103 155.68 34.8203C155.77 34.9403 155.81 35.1103 155.81 35.3503V37.9603C155.81 38.3603 155.6 38.5603 155.18 38.5603H141.03C140.86 38.5603 140.71 38.5103 140.59 38.4203C140.47 38.3203 140.4 38.1703 140.4 37.9603V18.0303H140.41Z" fill="white"/>
<path d="M168.2 17.9703C168.2 17.8103 168.25 17.6603 168.36 17.5303C168.47 17.4003 168.62 17.3403 168.81 17.3403H171.66C171.82 17.3403 171.97 17.4003 172.12 17.5303C172.27 17.6603 172.33 17.8003 172.33 17.9703V25.3702H181.92V17.9703C181.92 17.8003 181.98 17.6503 182.09 17.5303C182.2 17.4103 182.36 17.3403 182.55 17.3403H185.36C185.55 17.3403 185.71 17.3902 185.85 17.5002C185.99 17.6102 186.06 17.7603 186.06 17.9503V37.9203C186.06 38.3403 185.84 38.5503 185.39 38.5503H182.56C182.14 38.5503 181.93 38.3403 181.93 37.9203V29.2803H172.34V37.9203C172.34 38.3403 172.11 38.5503 171.64 38.5503H168.82C168.41 38.5503 168.21 38.3503 168.21 37.9603V17.9603L168.2 17.9703Z" fill="white"/>
<path d="M189.83 27.9801C189.83 26.9801 189.96 26.0101 190.22 25.0801C190.48 24.1501 190.84 23.2801 191.32 22.4701C191.8 21.6601 192.36 20.92 193.03 20.26C193.7 19.6 194.43 19.02 195.24 18.55C196.05 18.08 196.92 17.7101 197.85 17.4501C198.78 17.1901 199.75 17.0601 200.76 17.0601C201.77 17.0601 202.72 17.1901 203.65 17.4501C204.58 17.7101 205.45 18.08 206.26 18.55C207.07 19.02 207.81 19.59 208.47 20.26C209.14 20.93 209.71 21.6701 210.18 22.4701C210.65 23.2701 211.02 24.1501 211.28 25.0801C211.54 26.0101 211.67 26.99 211.67 28C211.67 29.01 211.54 29.98 211.28 30.9C211.02 31.82 210.65 32.69 210.18 33.5C209.71 34.31 209.14 35.0501 208.47 35.7101C207.8 36.3701 207.07 36.94 206.26 37.41C205.45 37.88 204.58 38.24 203.65 38.5C202.72 38.76 201.75 38.89 200.74 38.89C199.73 38.89 198.76 38.76 197.83 38.5C196.9 38.24 196.03 37.88 195.22 37.4C194.41 36.92 193.68 36.3601 193.01 35.6901C192.34 35.0201 191.78 34.2901 191.31 33.4901C190.84 32.6801 190.47 31.82 190.22 30.89C189.96 29.96 189.83 28.9901 189.83 27.9801ZM193.96 27.9501C193.96 28.9101 194.13 29.81 194.48 30.65C194.83 31.49 195.3 32.2201 195.91 32.8401C196.51 33.4601 197.23 33.9501 198.05 34.3101C198.87 34.6701 199.77 34.8501 200.73 34.8501C201.69 34.8501 202.57 34.6701 203.4 34.3101C204.22 33.9501 204.94 33.4601 205.55 32.8401C206.16 32.2201 206.64 31.49 206.99 30.65C207.34 29.81 207.51 28.9101 207.51 27.9501C207.51 26.9901 207.34 26.1 206.99 25.26C206.64 24.42 206.16 23.6901 205.55 23.0701C204.94 22.4501 204.22 21.9501 203.4 21.5901C202.58 21.2301 201.69 21.05 200.73 21.05C199.77 21.05 198.87 21.2301 198.05 21.5901C197.23 21.9501 196.51 22.4501 195.91 23.0701C195.3 23.6901 194.83 24.43 194.48 25.26C194.13 26.1 193.96 26.9901 193.96 27.9501Z" fill="white"/>
<path d="M219.38 29.9501C219.38 30.7501 219.49 31.4701 219.72 32.1101C219.95 32.7501 220.27 33.2901 220.68 33.7301C221.1 34.1701 221.59 34.5101 222.17 34.7401C222.75 34.9701 223.39 35.0901 224.09 35.0901C224.83 35.0901 225.5 34.9701 226.09 34.7201C226.68 34.4701 227.18 34.12 227.58 33.67C227.98 33.22 228.29 32.67 228.51 32.04C228.72 31.41 228.83 30.7101 228.83 29.9501V17.9801C228.83 17.8101 228.89 17.66 229.02 17.54C229.15 17.42 229.3 17.3501 229.49 17.3501H232.25C232.45 17.3501 232.62 17.41 232.75 17.54C232.88 17.67 232.96 17.8101 232.96 17.9801V30.1101C232.96 31.5901 232.72 32.8701 232.25 33.9801C231.77 35.0801 231.13 36.0001 230.32 36.7301C229.51 37.4601 228.57 38.01 227.49 38.37C226.41 38.73 225.28 38.91 224.08 38.91C222.88 38.91 221.74 38.7201 220.67 38.3301C219.59 37.9401 218.65 37.38 217.84 36.64C217.03 35.9 216.39 34.98 215.91 33.88C215.43 32.78 215.2 31.5301 215.2 30.1101V17.9801C215.2 17.8301 215.25 17.69 215.36 17.55C215.47 17.42 215.61 17.3501 215.78 17.3501H218.7C218.84 17.3501 218.99 17.41 219.14 17.54C219.29 17.67 219.37 17.8101 219.37 17.9801V29.9501H219.38Z" fill="white"/>
<path d="M249.3 23C249.18 23 249.06 22.97 248.96 22.91C248.85 22.85 248.74 22.77 248.6 22.66H248.57C248.39 22.47 248.15 22.27 247.87 22.05C247.58 21.83 247.26 21.6301 246.91 21.4401C246.56 21.2501 246.18 21.0901 245.77 20.9501C245.37 20.8201 244.95 20.75 244.53 20.75C244 20.75 243.53 20.8101 243.11 20.9301C242.7 21.0501 242.36 21.21 242.08 21.42C241.8 21.63 241.59 21.87 241.45 22.14C241.31 22.41 241.24 22.71 241.24 23.03C241.24 23.37 241.35 23.6701 241.56 23.9301C241.77 24.1901 242.06 24.42 242.43 24.62C242.8 24.82 243.22 25 243.69 25.17C244.17 25.34 244.67 25.5 245.19 25.66C245.79 25.84 246.39 26.04 246.98 26.25C247.57 26.46 248.14 26.7001 248.67 26.9601C249.21 27.2201 249.71 27.5101 250.18 27.8301C250.65 28.1501 251.05 28.5201 251.39 28.9301C251.73 29.3401 251.99 29.8101 252.19 30.3201C252.39 30.8301 252.48 31.4 252.48 32.04C252.48 33.08 252.27 34.0201 251.85 34.8501C251.43 35.6901 250.85 36.41 250.11 37C249.37 37.6 248.5 38.05 247.51 38.37C246.52 38.69 245.45 38.8501 244.3 38.8501C243.57 38.8501 242.84 38.7601 242.11 38.5901C241.39 38.4201 240.69 38.1701 240.02 37.8601C239.35 37.5501 238.72 37.1701 238.13 36.7201C237.53 36.2801 237 35.7801 236.54 35.2301L236.51 35.1901C236.3 34.9501 236.2 34.73 236.2 34.53C236.2 34.43 236.23 34.3301 236.29 34.2301C236.35 34.1401 236.43 34.03 236.55 33.92L237.02 33.4501C237.16 33.3301 237.32 33.19 237.48 33.04C237.64 32.89 237.8 32.75 237.97 32.63C238.14 32.51 238.28 32.4001 238.42 32.3201C238.56 32.2301 238.67 32.1901 238.76 32.1901C238.89 32.1901 239.02 32.2301 239.13 32.3201C239.24 32.4101 239.34 32.4901 239.42 32.5601L239.48 32.62H239.47C239.8 32.93 240.18 33.23 240.59 33.52C241 33.81 241.43 34.06 241.87 34.28C242.31 34.5 242.74 34.6801 243.18 34.8101C243.62 34.9401 244.02 35 244.4 35C244.92 35 245.41 34.93 245.87 34.8C246.33 34.67 246.72 34.4801 247.06 34.2401C247.39 34.0001 247.65 33.7001 247.85 33.3601C248.04 33.0201 248.14 32.6401 248.14 32.2201C248.14 31.8001 248.02 31.44 247.77 31.14C247.52 30.84 247.2 30.5801 246.8 30.3501C246.4 30.1201 245.95 29.93 245.45 29.77C244.95 29.61 244.45 29.4601 243.94 29.3101C242.78 28.9601 241.76 28.58 240.89 28.17C240.02 27.76 239.29 27.3 238.71 26.79C238.13 26.28 237.69 25.7101 237.4 25.0801C237.11 24.4501 236.96 23.7301 236.96 22.9401C236.96 22.0501 237.14 21.25 237.5 20.52C237.86 19.79 238.36 19.17 239.02 18.65C239.68 18.13 240.47 17.7301 241.39 17.4401C242.31 17.1501 243.35 17 244.49 17C245.36 17 246.24 17.14 247.13 17.41C248.02 17.68 248.85 18.06 249.62 18.53C249.85 18.67 250.08 18.83 250.32 19.02C250.56 19.2 250.78 19.3801 250.98 19.5701C251.18 19.7601 251.34 19.9401 251.47 20.1101C251.6 20.2901 251.66 20.4401 251.66 20.5601C251.66 20.6701 251.63 20.79 251.57 20.91C251.51 21.03 251.44 21.1401 251.36 21.2301L250.93 21.6901C250.79 21.8301 250.64 21.99 250.49 22.15C250.34 22.31 250.19 22.4601 250.03 22.5901C249.88 22.7201 249.74 22.83 249.62 22.91C249.5 23 249.39 23.04 249.31 23.04L249.3 23Z" fill="white"/>
<path d="M256.1 18.0303C256.1 17.5703 256.31 17.3403 256.73 17.3403H270.5C270.75 17.3403 270.92 17.4103 271.03 17.5503C271.14 17.6903 271.19 17.8603 271.19 18.0703V20.5903C271.19 20.7603 271.13 20.9203 271.01 21.0503C270.89 21.1803 270.71 21.2502 270.47 21.2502H260.31V25.5803H268.14C268.33 25.5603 268.48 25.6003 268.6 25.7003C268.71 25.8003 268.77 25.9703 268.77 26.2103V28.8003C268.77 28.9703 268.72 29.1203 268.63 29.2603C268.53 29.3903 268.38 29.4603 268.17 29.4603H260.31V34.6503H270.84C271.11 34.6503 271.28 34.7103 271.37 34.8203C271.46 34.9403 271.5 35.1103 271.5 35.3503V37.9603C271.5 38.3603 271.29 38.5603 270.87 38.5603H256.72C256.55 38.5603 256.4 38.5103 256.28 38.4203C256.16 38.3203 256.09 38.1703 256.09 37.9603V18.0303H256.1Z" fill="white"/>
</svg>
