<svg width="255" height="56" viewBox="0 0 255 56" fill="none" xmlns="http://www.w3.org/2000/svg">
<path d="M34.07 33.87V5.84998L24.17 0L0.149963 13.5V24.23L24.54 10.52V28.2201L9.39001 36.84V24.89L0 30.38V41.67L9.75 47.38L34.07 33.87Z" fill="url(#paint0_linear_2002_507)"/>
<path d="M38.3901 21.9902L38.2501 36.3002L38.0701 36.4103L14.3501 50.1002L24.1801 55.8903L48.0701 41.9503V27.5002L38.3901 21.9902Z" fill="url(#paint1_linear_2002_507)"/>
<path d="M19.76 18.8202L13.98 22.1401V19.6902L19.76 16.3701V18.8202Z" fill="url(#paint2_linear_2002_507)"/>
<path d="M19.76 23.1501L13.98 26.4702V24.0201L19.76 20.7002V23.1501Z" fill="url(#paint3_linear_2002_507)"/>
<path d="M19.76 27.9099L13.98 31.2299V28.7799L19.76 25.46V27.9099Z" fill="url(#paint4_linear_2002_507)"/>
<path d="M38.25 7.37988V15.59L48.07 21.34V13.08L38.25 7.37988Z" fill="url(#paint5_linear_2002_507)"/>
<path d="M65 18.0203C65 17.5703 65.21 17.3501 65.64 17.3501H73.76C74.72 17.3501 75.61 17.5402 76.42 17.9102C77.23 18.2902 77.93 18.7902 78.51 19.4202C79.09 20.0502 79.55 20.7701 79.88 21.5901C80.2 22.4001 80.37 23.2501 80.37 24.1401C80.37 25.0301 80.21 25.8401 79.89 26.6501C79.57 27.4601 79.12 28.1703 78.55 28.7903C77.97 29.4103 77.28 29.9103 76.48 30.2903C75.68 30.6703 74.8 30.8501 73.85 30.8501H69.14V37.9502C69.14 38.3602 68.93 38.5601 68.5 38.5601H65.64C65.22 38.5601 65.01 38.3502 65.01 37.9502V18.0203H65ZM76.19 24.1101C76.19 23.7201 76.11 23.3302 75.96 22.9602C75.81 22.5902 75.6 22.2502 75.33 21.9602C75.06 21.6702 74.74 21.4302 74.37 21.2502C74 21.0702 73.59 20.9802 73.15 20.9802H69.13V27.2502H73.15C73.58 27.2502 73.98 27.1602 74.35 26.9902C74.72 26.8202 75.04 26.5903 75.32 26.3003C75.59 26.0103 75.8 25.6803 75.96 25.3003C76.11 24.9203 76.19 24.5301 76.19 24.1201V24.1101Z" fill="white"/>
<path d="M83.8901 17.97C83.8901 17.8 83.9401 17.65 84.0501 17.53C84.1601 17.41 84.3101 17.3398 84.5201 17.3398H87.3502C87.5102 17.3398 87.6601 17.4 87.8101 17.51C87.9601 17.62 88.0201 17.78 88.0201 17.97V37.9299C88.0201 38.3499 87.8002 38.5598 87.3502 38.5598H84.5201C84.1001 38.5598 83.8901 38.3499 83.8901 37.9299V17.97Z" fill="white"/>
<path d="M91.8198 27.9802C91.8198 26.9802 91.9498 26.0101 92.2098 25.0801C92.4698 24.1501 92.8298 23.2802 93.3098 22.4702C93.7898 21.6602 94.3498 20.9203 95.0198 20.2603C95.6898 19.6003 96.4199 19.0203 97.2299 18.5503C98.0399 18.0803 98.9098 17.7102 99.8398 17.4502C100.77 17.1902 101.74 17.0601 102.75 17.0601C103.76 17.0601 104.71 17.1902 105.64 17.4502C106.57 17.7102 107.44 18.0803 108.25 18.5503C109.06 19.0203 109.8 19.5903 110.46 20.2603C111.13 20.9303 111.7 21.6702 112.17 22.4702C112.64 23.2802 113.01 24.1501 113.27 25.0801C113.53 26.0101 113.66 26.9902 113.66 28.0002C113.66 29.0102 113.53 29.9801 113.27 30.9001C113.01 31.8201 112.64 32.6902 112.17 33.5002C111.7 34.3102 111.13 35.0502 110.46 35.7102C109.79 36.3702 109.05 36.9402 108.25 37.4102C107.44 37.8802 106.57 38.2402 105.64 38.5002C104.71 38.7602 103.74 38.8901 102.73 38.8901C101.72 38.8901 100.75 38.7602 99.8198 38.5002C98.8898 38.2402 98.0198 37.8801 97.2098 37.4001C96.3998 36.9201 95.6698 36.3602 94.9998 35.6902C94.3298 35.0202 93.7698 34.2902 93.2998 33.4902C92.8298 32.6802 92.4598 31.8201 92.2098 30.8901C91.9498 29.9601 91.8198 28.9902 91.8198 27.9802ZM95.9498 27.9502C95.9498 28.9102 96.1198 29.8101 96.4698 30.6501C96.8198 31.4901 97.2898 32.2201 97.8998 32.8401C98.5098 33.4601 99.2199 33.9501 100.04 34.3101C100.86 34.6701 101.76 34.8501 102.72 34.8501C103.68 34.8501 104.56 34.6701 105.39 34.3101C106.21 33.9501 106.93 33.4601 107.54 32.8401C108.15 32.2201 108.63 31.4901 108.98 30.6501C109.33 29.8101 109.5 28.9102 109.5 27.9502C109.5 26.9902 109.33 26.1003 108.98 25.2603C108.63 24.4203 108.15 23.6901 107.54 23.0701C106.93 22.4501 106.21 21.9501 105.39 21.5901C104.57 21.2301 103.68 21.0503 102.72 21.0503C101.76 21.0503 100.86 21.2301 100.04 21.5901C99.2199 21.9501 98.4998 22.4501 97.8998 23.0701C97.2898 23.6901 96.8198 24.4303 96.4698 25.2603C96.1198 26.1003 95.9498 26.9902 95.9498 27.9502Z" fill="white"/>
<path d="M117.41 17.9897C117.41 17.8097 117.46 17.6598 117.57 17.5298C117.68 17.3998 117.83 17.3396 118.03 17.3396H121.32C121.45 17.3396 121.58 17.3697 121.7 17.4297C121.82 17.4897 121.93 17.5897 122.02 17.7197C123.65 20.0397 125.26 22.3496 126.86 24.6396C128.46 26.9296 130.07 29.2396 131.7 31.5596V17.8696C131.73 17.6996 131.8 17.5597 131.91 17.4697C132.03 17.3697 132.16 17.3296 132.32 17.3296H135.08C135.27 17.3296 135.44 17.3898 135.57 17.4998C135.7 17.6098 135.78 17.7697 135.78 17.9597V37.9597C135.78 38.3497 135.56 38.5498 135.11 38.5498H132.01C131.8 38.5498 131.61 38.4197 131.43 38.1597C129.75 35.7297 128.08 33.2996 126.42 30.8796C124.76 28.4596 123.09 26.0196 121.43 23.5896V37.9197C121.43 38.1297 121.38 38.2896 121.28 38.3896C121.18 38.4996 121.01 38.5498 120.77 38.5498H118.03C117.81 38.5498 117.65 38.4996 117.55 38.3896C117.45 38.2796 117.4 38.1297 117.4 37.9397V17.9797L117.41 17.9897Z" fill="white"/>
<path d="M140.41 18.03C140.41 17.57 140.62 17.3398 141.04 17.3398H154.81C155.06 17.3398 155.23 17.41 155.34 17.55C155.45 17.69 155.5 17.8598 155.5 18.0698V20.5898C155.5 20.7598 155.44 20.92 155.32 21.05C155.2 21.18 155.02 21.25 154.78 21.25H144.62V25.5798H152.45C152.64 25.5598 152.79 25.6 152.91 25.7C153.02 25.8 153.08 25.97 153.08 26.21V28.8C153.08 28.97 153.03 29.12 152.94 29.26C152.85 29.39 152.69 29.46 152.48 29.46H144.62V34.6499H155.15C155.42 34.6499 155.59 34.7098 155.68 34.8198C155.77 34.9398 155.81 35.1099 155.81 35.3499V37.96C155.81 38.36 155.6 38.5598 155.18 38.5598H141.03C140.86 38.5598 140.71 38.5099 140.59 38.4199C140.47 38.3199 140.4 38.17 140.4 37.96V18.03H140.41Z" fill="white"/>
<path d="M180.26 23C180.14 23 180.02 22.9699 179.92 22.9099C179.81 22.8499 179.7 22.7699 179.56 22.6599H179.53C179.35 22.4699 179.11 22.27 178.83 22.05C178.54 21.83 178.22 21.6299 177.87 21.4399C177.52 21.2499 177.14 21.09 176.73 20.95C176.33 20.82 175.91 20.75 175.49 20.75C174.96 20.75 174.49 20.8099 174.07 20.9299C173.66 21.0499 173.32 21.2099 173.04 21.4199C172.76 21.6299 172.55 21.8699 172.41 22.1399C172.27 22.4199 172.2 22.71 172.2 23.03C172.2 23.37 172.31 23.6699 172.52 23.9299C172.73 24.1899 173.02 24.4199 173.39 24.6199C173.76 24.8199 174.18 24.9999 174.65 25.1699C175.13 25.3399 175.63 25.4999 176.15 25.6599C176.75 25.8399 177.35 26.04 177.94 26.25C178.53 26.46 179.09 26.7 179.63 26.96C180.17 27.22 180.67 27.5098 181.14 27.8298C181.61 28.1498 182.01 28.5199 182.35 28.9299C182.69 29.3399 182.95 29.8098 183.15 30.3198C183.35 30.8298 183.44 31.4 183.44 32.04C183.44 33.08 183.23 34.0199 182.81 34.8499C182.39 35.6899 181.81 36.41 181.07 37C180.33 37.6 179.47 38.0499 178.47 38.3699C177.47 38.6899 176.41 38.8499 175.26 38.8499C174.53 38.8499 173.8 38.7598 173.07 38.5898C172.35 38.4198 171.65 38.1699 170.98 37.8599C170.31 37.5499 169.68 37.17 169.09 36.72C168.49 36.28 167.96 35.78 167.5 35.23L167.47 35.1899C167.26 34.9499 167.16 34.73 167.16 34.53C167.16 34.43 167.19 34.33 167.25 34.23C167.31 34.14 167.39 34.0299 167.51 33.9199L167.98 33.45C168.12 33.33 168.27 33.19 168.44 33.04C168.61 32.89 168.76 32.7499 168.93 32.6299C169.09 32.5099 169.24 32.3998 169.38 32.3198C169.52 32.2398 169.63 32.1899 169.72 32.1899C169.85 32.1899 169.98 32.2298 170.09 32.3198C170.21 32.4098 170.3 32.4898 170.38 32.5598L170.44 32.6199H170.43C170.76 32.9299 171.14 33.23 171.55 33.52C171.96 33.81 172.39 34.06 172.83 34.28C173.27 34.5 173.7 34.6798 174.14 34.8098C174.57 34.9398 174.98 35 175.36 35C175.88 35 176.38 34.93 176.83 34.8C177.29 34.67 177.68 34.48 178.02 34.24C178.36 34 178.62 33.6999 178.81 33.3599C179 33.0199 179.1 32.64 179.1 32.22C179.1 31.8 178.98 31.4399 178.73 31.1399C178.48 30.8399 178.16 30.5799 177.76 30.3499C177.36 30.1199 176.91 29.93 176.41 29.77C175.91 29.61 175.41 29.4598 174.9 29.3098C173.74 28.9598 172.72 28.5799 171.85 28.1699C170.98 27.7599 170.25 27.3 169.67 26.79C169.09 26.28 168.65 25.7098 168.36 25.0798C168.07 24.4498 167.92 23.7299 167.92 22.9399C167.92 22.0499 168.1 21.25 168.46 20.52C168.82 19.79 169.33 19.1699 169.98 18.6499C170.64 18.1299 171.43 17.7299 172.35 17.4399C173.27 17.1499 174.31 17 175.45 17C176.32 17 177.2 17.1399 178.09 17.4099C178.98 17.6799 179.81 18.06 180.58 18.53C180.81 18.67 181.04 18.83 181.28 19.02C181.52 19.2 181.74 19.3798 181.94 19.5698C182.14 19.7598 182.3 19.9399 182.43 20.1099C182.56 20.2899 182.62 20.4398 182.62 20.5598C182.62 20.6698 182.59 20.7899 182.53 20.9099C182.47 21.0299 182.4 21.14 182.32 21.23L181.89 21.6899C181.75 21.8299 181.6 21.9899 181.45 22.1499C181.3 22.3099 181.15 22.4598 180.99 22.5898C180.84 22.7198 180.7 22.8299 180.57 22.9099C180.44 22.9899 180.34 23.04 180.26 23.04V23Z" fill="white"/>
<path d="M193.42 38.1499C193.32 37.9599 193.23 37.7598 193.14 37.5598C193.05 37.3598 192.97 37.16 192.89 36.97C191.63 33.79 190.38 30.62 189.13 27.47C187.88 24.32 186.62 21.16 185.35 17.99C185.35 17.95 185.35 17.9099 185.33 17.8799C185.32 17.8399 185.31 17.8 185.31 17.76C185.31 17.47 185.49 17.3298 185.85 17.3298H188.95C189.28 17.3298 189.52 17.5199 189.66 17.8999L195.19 32.6299L200.55 17.75C200.64 17.46 200.85 17.3198 201.15 17.3198H204.39C204.62 17.3198 204.78 17.36 204.86 17.45C204.94 17.54 204.99 17.65 204.99 17.78V17.98L202.07 25.5698L204.77 32.6099L210.43 17.8599C210.56 17.4999 210.82 17.3198 211.2 17.3198H214.19C214.42 17.3198 214.58 17.36 214.67 17.45C214.76 17.54 214.81 17.65 214.81 17.78C214.81 17.84 214.81 17.8699 214.8 17.8899V17.95C213.46 21.3 212.09 24.64 210.71 27.96C209.33 31.28 207.97 34.62 206.62 37.97C206.62 38 206.59 38.0499 206.56 38.1099C206.53 38.1699 206.48 38.24 206.42 38.3C206.36 38.36 206.28 38.42 206.2 38.46C206.12 38.51 206.01 38.53 205.9 38.53H203.66C203.44 38.53 203.27 38.4799 203.16 38.3799C203.05 38.2799 202.97 38.17 202.95 38.05C202.46 36.81 201.96 35.5799 201.47 34.3599C200.98 33.1399 200.48 31.9099 199.98 30.6699L197.21 37.5898C197.17 37.6998 197.13 37.7999 197.07 37.9199C197.01 38.0399 196.96 38.14 196.88 38.23C196.81 38.32 196.73 38.4 196.64 38.45C196.55 38.51 196.45 38.54 196.33 38.54H194.09C193.92 38.54 193.78 38.4999 193.67 38.4099C193.56 38.3299 193.48 38.2299 193.43 38.1199L193.42 38.1499Z" fill="white"/>
<path d="M216.22 38.04C216.27 37.85 216.32 37.67 216.38 37.51C216.44 37.35 216.5 37.1998 216.54 37.0698L224.24 17.8999C224.27 17.7899 224.35 17.68 224.48 17.55C224.61 17.42 224.78 17.3599 225 17.3599H227.3C227.53 17.3599 227.69 17.42 227.79 17.53C227.89 17.64 227.96 17.7398 228.01 17.8298L228.48 18.95L236.02 37.8298C236.02 37.8298 236.02 37.91 236.04 37.98C236.06 38.05 236.06 38.1099 236.06 38.1599C236.06 38.4499 235.85 38.5898 235.43 38.5898H232.61C232.4 38.5898 232.24 38.55 232.13 38.46C232.01 38.38 231.92 38.2398 231.84 38.0598L231.58 37.3999C231.4 36.9399 231.22 36.48 231.04 36.03C230.86 35.57 230.68 35.1099 230.51 34.6399H221.69C221.44 35.3099 221.2 35.93 220.97 36.52C220.74 37.11 220.54 37.6198 220.38 38.0598C220.25 38.4098 220 38.5898 219.64 38.5898H216.78C216.6 38.5898 216.45 38.56 216.34 38.49C216.23 38.42 216.17 38.3199 216.17 38.1899C216.17 38.1299 216.17 38.0898 216.19 38.0598L216.22 38.04ZM226.16 22.79C225.65 24.1 225.13 25.4699 224.62 26.8799C224.11 28.2899 223.6 29.65 223.08 30.95H229.17L226.16 22.79Z" fill="white"/>
<path d="M238.98 18.0203C238.98 17.5703 239.19 17.3501 239.62 17.3501H247.74C248.7 17.3501 249.59 17.5402 250.4 17.9102C251.21 18.2902 251.91 18.7902 252.49 19.4202C253.07 20.0502 253.53 20.7701 253.86 21.5901C254.18 22.4001 254.35 23.2501 254.35 24.1401C254.35 25.0301 254.19 25.8401 253.87 26.6501C253.55 27.4601 253.1 28.1703 252.53 28.7903C251.95 29.4103 251.26 29.9103 250.46 30.2903C249.66 30.6703 248.78 30.8501 247.83 30.8501H243.12V37.9502C243.12 38.3602 242.91 38.5601 242.48 38.5601H239.62C239.2 38.5601 238.99 38.3502 238.99 37.9502V18.0203H238.98ZM250.17 24.1101C250.17 23.7201 250.09 23.3302 249.94 22.9602C249.79 22.5902 249.58 22.2502 249.31 21.9602C249.04 21.6702 248.72 21.4302 248.35 21.2502C247.98 21.0702 247.57 20.9802 247.13 20.9802H243.11V27.2502H247.13C247.56 27.2502 247.96 27.1602 248.33 26.9902C248.7 26.8202 249.02 26.5903 249.3 26.3003C249.57 26.0103 249.78 25.6803 249.94 25.3003C250.09 24.9203 250.17 24.5301 250.17 24.1201V24.1101Z" fill="white"/>
<defs>
<linearGradient id="paint0_linear_2002_507" x1="25.15" y1="3.32" x2="13.02" y2="34.03" gradientUnits="userSpaceOnUse">
<stop stop-color="#00A88E"/>
<stop offset="1" stop-color="#0066B3"/>
</linearGradient>
<linearGradient id="paint1_linear_2002_507" x1="44.9901" y1="11.1502" x2="32.8601" y2="41.8602" gradientUnits="userSpaceOnUse">
<stop stop-color="#00A88E"/>
<stop offset="1" stop-color="#0066B3"/>
</linearGradient>
<linearGradient id="paint2_linear_2002_507" x1="23.43" y1="2.64007" x2="11.3" y2="33.3502" gradientUnits="userSpaceOnUse">
<stop stop-color="#00A88E"/>
<stop offset="1" stop-color="#0066B3"/>
</linearGradient>
<linearGradient id="paint3_linear_2002_507" x1="24.91" y1="3.22014" x2="12.78" y2="33.9303" gradientUnits="userSpaceOnUse">
<stop stop-color="#00A88E"/>
<stop offset="1" stop-color="#0066B3"/>
</linearGradient>
<linearGradient id="paint4_linear_2002_507" x1="26.54" y1="3.86034" x2="14.4105" y2="34.57" gradientUnits="userSpaceOnUse">
<stop stop-color="#00A88E"/>
<stop offset="1" stop-color="#0066B3"/>
</linearGradient>
<linearGradient id="paint5_linear_2002_507" x1="44.5" y1="10.9599" x2="32.3699" y2="41.67" gradientUnits="userSpaceOnUse">
<stop stop-color="#00A88E"/>
<stop offset="1" stop-color="#0066B3"/>
</linearGradient>
</defs>
</svg>
