<svg width="288" height="56" viewBox="0 0 288 56" fill="none" xmlns="http://www.w3.org/2000/svg">
<path d="M34.07 33.87V5.84998L24.17 0L0.150009 13.5V24.23L24.54 10.52V28.2201L9.39 36.8401V24.89L0 30.38V41.67L9.75 47.38L34.07 33.87Z" fill="url(#paint0_linear_2002_502)"/>
<path d="M38.3901 21.9902L38.2501 36.3003L38.0701 36.4103L14.3501 50.1002L24.1801 55.8903L48.0701 41.9503V27.5002L38.3901 21.9902Z" fill="url(#paint1_linear_2002_502)"/>
<path d="M19.76 18.8202L13.98 22.1401V19.6902L19.76 16.3701V18.8202Z" fill="url(#paint2_linear_2002_502)"/>
<path d="M19.76 23.1501L13.98 26.4702V24.0201L19.76 20.7002V23.1501Z" fill="url(#paint3_linear_2002_502)"/>
<path d="M19.76 27.9099L13.98 31.2299V28.7799L19.76 25.46V27.9099Z" fill="url(#paint4_linear_2002_502)"/>
<path d="M38.25 7.37988V15.59L48.07 21.34V13.08L38.25 7.37988Z" fill="url(#paint5_linear_2002_502)"/>
<path d="M65.4399 17.96C65.4399 17.51 65.6499 17.29 66.0799 17.29H74.1999C75.1599 17.29 76.0499 17.48 76.8599 17.85C77.6699 18.23 78.3699 18.73 78.9499 19.36C79.5399 19.99 79.9899 20.71 80.3099 21.53C80.6299 22.34 80.7999 23.19 80.7999 24.08C80.7999 24.97 80.6399 25.78 80.3199 26.59C79.9999 27.4 79.5499 28.11 78.9799 28.73C78.3999 29.35 77.7099 29.85 76.9099 30.23C76.1099 30.61 75.2299 30.79 74.2799 30.79H69.5699V37.89C69.5699 38.3 69.3599 38.5 68.9299 38.5H66.0699C65.6499 38.5 65.4399 38.29 65.4399 37.89V17.96ZM76.6299 24.05C76.6299 23.66 76.5499 23.27 76.3999 22.9C76.2499 22.52 76.0399 22.19 75.7699 21.9C75.4999 21.61 75.1799 21.3699 74.8099 21.1899C74.4399 21.0099 74.0299 20.92 73.5899 20.92H69.5699V27.1899H73.5899C74.0199 27.1899 74.4199 27.1001 74.7899 26.9301C75.1599 26.7601 75.4799 26.53 75.7599 26.24C76.0399 25.95 76.2399 25.62 76.3999 25.24C76.5499 24.86 76.6299 24.4699 76.6299 24.0599V24.05Z" fill="white"/>
<path d="M84.3301 17.9103C84.3301 17.7403 84.3801 17.5902 84.4901 17.4702C84.6001 17.3502 84.7501 17.2803 84.9601 17.2803H87.7901C87.9501 17.2803 88.1001 17.3402 88.2501 17.4502C88.4001 17.5602 88.4601 17.7203 88.4601 17.9103V37.8702C88.4601 38.2902 88.2401 38.5002 87.7901 38.5002H84.9601C84.5401 38.5002 84.3301 38.2902 84.3301 37.8702V17.9103Z" fill="white"/>
<path d="M92.2598 27.92C92.2598 26.92 92.3898 25.95 92.6498 25.02C92.9098 24.09 93.2698 23.22 93.7498 22.41C94.2298 21.6 94.7998 20.86 95.4598 20.2C96.1198 19.54 96.8598 18.96 97.6698 18.49C98.4798 18.02 99.3498 17.65 100.28 17.39C101.21 17.13 102.18 17 103.19 17C104.2 17 105.15 17.13 106.08 17.39C107.01 17.65 107.88 18.02 108.69 18.49C109.5 18.96 110.24 19.53 110.9 20.2C111.57 20.87 112.14 21.61 112.61 22.41C113.08 23.22 113.45 24.09 113.71 25.02C113.97 25.95 114.1 26.9299 114.1 27.9399C114.1 28.9499 113.97 29.92 113.71 30.84C113.45 31.76 113.08 32.6299 112.61 33.4399C112.14 34.2499 111.57 34.99 110.9 35.65C110.23 36.31 109.5 36.88 108.69 37.35C107.88 37.82 107.01 38.1799 106.08 38.4399C105.15 38.6999 104.18 38.83 103.17 38.83C102.16 38.83 101.19 38.6999 100.26 38.4399C99.3298 38.1799 98.4598 37.82 97.6498 37.34C96.8398 36.86 96.0998 36.3 95.4398 35.63C94.7798 34.96 94.2098 34.2301 93.7398 33.4301C93.2698 32.6201 92.8998 31.76 92.6498 30.83C92.3998 29.9 92.2598 28.93 92.2598 27.92ZM96.3898 27.89C96.3898 28.85 96.5598 29.75 96.9098 30.59C97.2598 31.43 97.7298 32.16 98.3398 32.78C98.9498 33.4 99.6598 33.89 100.48 34.25C101.3 34.61 102.2 34.79 103.16 34.79C104.12 34.79 105 34.61 105.83 34.25C106.65 33.89 107.37 33.4 107.98 32.78C108.59 32.16 109.07 31.43 109.42 30.59C109.77 29.75 109.94 28.85 109.94 27.89C109.94 26.93 109.77 26.04 109.42 25.2C109.07 24.36 108.59 23.63 107.98 23.01C107.37 22.39 106.65 21.89 105.83 21.53C105.01 21.17 104.12 20.99 103.16 20.99C102.2 20.99 101.31 21.17 100.48 21.53C99.6598 21.89 98.9398 22.39 98.3398 23.01C97.7398 23.63 97.2598 24.37 96.9098 25.2C96.5598 26.04 96.3898 26.93 96.3898 27.89Z" fill="white"/>
<path d="M117.85 17.9301C117.85 17.7501 117.9 17.6 118.01 17.47C118.12 17.34 118.27 17.28 118.47 17.28H121.76C121.89 17.28 122.02 17.31 122.14 17.37C122.26 17.43 122.37 17.53 122.46 17.66C124.09 19.98 125.7 22.29 127.3 24.58C128.9 26.87 130.51 29.18 132.14 31.5V17.8099C132.17 17.6399 132.24 17.5 132.35 17.41C132.46 17.31 132.6 17.27 132.76 17.27H135.52C135.71 17.27 135.87 17.3299 136.01 17.4399C136.15 17.5499 136.22 17.71 136.22 17.9V37.9C136.22 38.29 136 38.49 135.55 38.49H132.45C132.24 38.49 132.05 38.36 131.86 38.1C130.18 35.67 128.51 33.2399 126.85 30.8199C125.19 28.3999 123.52 25.96 121.86 23.53V37.86C121.86 38.07 121.81 38.23 121.71 38.33C121.61 38.44 121.44 38.49 121.2 38.49H118.46C118.24 38.49 118.08 38.44 117.98 38.33C117.88 38.22 117.83 38.07 117.83 37.88V17.92L117.85 17.9301Z" fill="white"/>
<path d="M140.85 17.9702C140.85 17.5102 141.06 17.2803 141.48 17.2803H155.25C155.5 17.2803 155.67 17.3502 155.78 17.4902C155.88 17.6302 155.94 17.8003 155.94 18.0103V20.5303C155.94 20.7003 155.88 20.8602 155.76 20.9902C155.64 21.1202 155.46 21.1902 155.22 21.1902H145.06V25.5203H152.89C153.08 25.5003 153.23 25.5403 153.35 25.6403C153.46 25.7403 153.52 25.9103 153.52 26.1503V28.7402C153.52 28.9102 153.47 29.0602 153.38 29.2002C153.28 29.3302 153.13 29.4003 152.92 29.4003H145.06V34.5902H155.59C155.86 34.5902 156.03 34.6503 156.12 34.7603C156.21 34.8803 156.25 35.0503 156.25 35.2903V37.9003C156.25 38.3003 156.04 38.5002 155.62 38.5002H141.47C141.3 38.5002 141.15 38.4502 141.03 38.3602C140.91 38.2602 140.84 38.1103 140.84 37.9003V17.9702H140.85Z" fill="white"/>
<path d="M174.98 38.0897C174.88 37.8997 174.79 37.6998 174.7 37.4998C174.61 37.2998 174.53 37.0998 174.45 36.9098C173.19 33.7298 171.94 30.5598 170.68 27.4098C169.43 24.2598 168.17 21.0998 166.9 17.9298C166.9 17.8898 166.9 17.8497 166.88 17.8197C166.86 17.7897 166.86 17.7397 166.86 17.6997C166.86 17.4097 167.04 17.2698 167.4 17.2698H170.5C170.83 17.2698 171.07 17.4597 171.21 17.8397L176.74 32.5697L182.1 17.6897C182.2 17.3997 182.4 17.2598 182.7 17.2598H185.94C186.17 17.2598 186.33 17.2998 186.41 17.3898C186.5 17.4798 186.54 17.5897 186.54 17.7197V17.9198L183.63 25.5098L186.33 32.5498L191.99 17.7998C192.12 17.4398 192.38 17.2598 192.76 17.2598H195.75C195.98 17.2598 196.14 17.2998 196.23 17.3898C196.32 17.4798 196.37 17.5897 196.37 17.7197C196.37 17.7797 196.37 17.8097 196.36 17.8297V17.8898C195.02 21.2398 193.65 24.5798 192.27 27.8998C190.89 31.2198 189.53 34.5598 188.18 37.9098C188.18 37.9398 188.15 37.9898 188.12 38.0498C188.09 38.1098 188.04 38.1797 187.98 38.2397C187.92 38.2997 187.84 38.3598 187.76 38.3998C187.67 38.4498 187.57 38.4697 187.46 38.4697H185.22C185 38.4697 184.83 38.4197 184.72 38.3197C184.61 38.2197 184.53 38.1097 184.51 37.9897C184.01 36.7497 183.52 35.5198 183.03 34.2998C182.54 33.0798 182.04 31.8497 181.54 30.6097L178.77 37.5298C178.73 37.6398 178.69 37.7397 178.63 37.8597C178.58 37.9697 178.52 38.0798 178.44 38.1698C178.37 38.2598 178.29 38.3398 178.2 38.3898C178.11 38.4498 178.01 38.4797 177.89 38.4797H175.65C175.48 38.4797 175.34 38.4397 175.23 38.3497C175.12 38.2697 175.04 38.1697 174.99 38.0597L174.98 38.0897Z" fill="white"/>
<path d="M197.79 37.9797C197.84 37.7897 197.89 37.6097 197.95 37.4497C198.01 37.2897 198.07 37.1398 198.11 37.0098L205.81 17.8397C205.84 17.7297 205.92 17.6197 206.05 17.4897C206.18 17.3597 206.35 17.2998 206.57 17.2998H208.87C209.1 17.2998 209.26 17.3597 209.36 17.4697C209.46 17.5797 209.53 17.6798 209.58 17.7698L210.05 18.8898L217.59 37.7698C217.59 37.7698 217.59 37.8498 217.61 37.9198C217.62 37.9898 217.63 38.0497 217.63 38.0997C217.63 38.3897 217.42 38.5298 217 38.5298H214.19C213.98 38.5298 213.82 38.4898 213.7 38.3998C213.58 38.3198 213.49 38.1798 213.41 37.9998L213.15 37.3397C212.97 36.8797 212.79 36.4197 212.61 35.9697C212.43 35.5097 212.25 35.0497 212.08 34.5797H203.26C203.01 35.2497 202.77 35.8697 202.54 36.4597C202.31 37.0497 202.11 37.5598 201.95 37.9998C201.82 38.3498 201.57 38.5298 201.21 38.5298H198.35C198.17 38.5298 198.02 38.4998 197.91 38.4298C197.8 38.3598 197.75 38.2598 197.75 38.1298C197.75 38.0698 197.75 38.0298 197.76 37.9998L197.79 37.9797ZM207.73 22.7297C207.22 24.0397 206.7 25.4097 206.19 26.8197C205.68 28.2297 205.17 29.5898 204.65 30.8898H210.74L207.73 22.7297Z" fill="white"/>
<path d="M220.72 17.9103C220.72 17.7403 220.78 17.5902 220.89 17.4702C221 17.3502 221.17 17.2803 221.37 17.2803H224.2C224.37 17.2803 224.52 17.3302 224.65 17.4402C224.78 17.5502 224.84 17.7003 224.84 17.9003V34.5702H233.78C233.95 34.5702 234.1 34.6302 234.22 34.7502C234.34 34.8702 234.41 35.0302 234.41 35.2302V37.8502C234.41 38.0202 234.35 38.1703 234.24 38.3003C234.13 38.4303 233.97 38.4902 233.78 38.4902H221.33C220.91 38.4902 220.7 38.2802 220.7 37.8602V17.9003L220.72 17.9103Z" fill="white"/>
<path d="M237.34 17.9103C237.34 17.7403 237.4 17.5902 237.51 17.4702C237.62 17.3502 237.79 17.2803 237.99 17.2803H240.82C240.99 17.2803 241.14 17.3302 241.27 17.4402C241.4 17.5502 241.46 17.7003 241.46 17.9003V34.5702H250.4C250.57 34.5702 250.72 34.6302 250.84 34.7502C250.96 34.8702 251.03 35.0302 251.03 35.2302V37.8502C251.03 38.0202 250.97 38.1703 250.86 38.3003C250.75 38.4303 250.59 38.4902 250.4 38.4902H237.95C237.53 38.4902 237.32 38.2802 237.32 37.8602V17.9003L237.34 17.9103Z" fill="white"/>
<path d="M253.93 17.9702C253.93 17.5102 254.14 17.2803 254.56 17.2803H268.33C268.58 17.2803 268.75 17.3502 268.86 17.4902C268.96 17.6302 269.02 17.8003 269.02 18.0103V20.5303C269.02 20.7003 268.96 20.8602 268.84 20.9902C268.72 21.1202 268.54 21.1902 268.3 21.1902H258.14V25.5203H265.97C266.16 25.5003 266.31 25.5403 266.43 25.6403C266.55 25.7403 266.6 25.9103 266.6 26.1503V28.7402C266.6 28.9102 266.55 29.0602 266.46 29.2002C266.36 29.3302 266.21 29.4003 266 29.4003H258.14V34.5902H268.67C268.94 34.5902 269.11 34.6503 269.2 34.7603C269.29 34.8803 269.33 35.0503 269.33 35.2903V37.9003C269.33 38.3003 269.12 38.5002 268.7 38.5002H254.56C254.39 38.5002 254.24 38.4502 254.12 38.3602C254 38.2602 253.93 38.1103 253.93 37.9003V17.9702Z" fill="white"/>
<path d="M271.39 17.9103C271.39 17.7203 271.45 17.5702 271.58 17.4502C271.7 17.3402 271.86 17.2803 272.05 17.2803H287.08C287.25 17.2803 287.41 17.3302 287.54 17.4402C287.68 17.5502 287.76 17.7003 287.78 17.9103V20.4103C287.78 20.6003 287.72 20.7703 287.6 20.9103C287.48 21.0503 287.31 21.1202 287.08 21.1202H281.65V37.8402C281.65 38.0102 281.59 38.1603 281.47 38.3003C281.35 38.4303 281.19 38.5002 280.98 38.5002H278.17C278 38.5002 277.84 38.4402 277.71 38.3102C277.57 38.1902 277.5 38.0302 277.5 37.8402V21.1202H272.06C271.87 21.1202 271.71 21.0602 271.59 20.9402C271.47 20.8202 271.4 20.6403 271.4 20.4003V17.9003L271.39 17.9103Z" fill="white"/>
<defs>
<linearGradient id="paint0_linear_2002_502" x1="11.7" y1="38.19" x2="23.05" y2="7.74" gradientUnits="userSpaceOnUse">
<stop stop-color="#ED1C24"/>
<stop offset="1" stop-color="#F37021"/>
</linearGradient>
<linearGradient id="paint1_linear_2002_502" x1="31.3901" y1="45.5403" x2="42.7501" y2="15.0902" gradientUnits="userSpaceOnUse">
<stop stop-color="#ED1C24"/>
<stop offset="1" stop-color="#F37021"/>
</linearGradient>
<linearGradient id="paint2_linear_2002_502" x1="10.04" y1="37.5802" x2="21.39" y2="7.12009" gradientUnits="userSpaceOnUse">
<stop stop-color="#ED1C24"/>
<stop offset="1" stop-color="#F37021"/>
</linearGradient>
<linearGradient id="paint3_linear_2002_502" x1="11.45" y1="38.1003" x2="22.81" y2="7.65016" gradientUnits="userSpaceOnUse">
<stop stop-color="#ED1C24"/>
<stop offset="1" stop-color="#F37021"/>
</linearGradient>
<linearGradient id="paint4_linear_2002_502" x1="13.01" y1="38.6897" x2="24.3696" y2="8.23012" gradientUnits="userSpaceOnUse">
<stop stop-color="#ED1C24"/>
<stop offset="1" stop-color="#F37021"/>
</linearGradient>
<linearGradient id="paint5_linear_2002_502" x1="31.52" y1="45.5901" x2="42.8702" y2="15.13" gradientUnits="userSpaceOnUse">
<stop stop-color="#ED1C24"/>
<stop offset="1" stop-color="#F37021"/>
</linearGradient>
</defs>
</svg>
