<svg width="122" height="34" viewBox="0 0 122 34" fill="none" xmlns="http://www.w3.org/2000/svg">
<path d="M20.1068 20.0288V3.46143L14.267 0L0.0848879 7.98774V14.3304L14.4809 6.22266V16.692L5.54097 21.7845V14.7184L0 17.9701V24.6401L5.75377 28.0177L20.1068 20.0288Z" fill="#C1A300"/>
<path d="M22.9031 12.8551L22.8197 21.4865L22.7139 21.5471L8.57031 29.802L14.4313 33.2916L28.6771 24.8918V16.1785L22.9031 12.8551Z" fill="#C1A300"/>
<path d="M11.8662 11.0995L8.24036 13.1847V11.644L11.8662 9.55884V11.0995Z" fill="#C1A300"/>
<path d="M11.8662 13.9261L8.24036 15.8217V14.42L11.8662 12.5255V13.9261Z" fill="#C1A300"/>
<path d="M11.8662 16.5631L8.24036 18.4587V17.0581L11.8662 15.1625V16.5631Z" fill="#C1A300"/>
<path d="M22.4144 4.61453V9.26727L28.6772 12.5254V7.84141L22.4144 4.61453Z" fill="#FC7F00"/>
<path d="M34.8256 22V11.0909H39.332C40.1488 11.0909 40.8537 11.2507 41.4467 11.5703C42.0433 11.8864 42.5032 12.3285 42.8263 12.8967C43.1495 13.4613 43.3111 14.1183 43.3111 14.8675C43.3111 15.6204 43.146 16.2791 42.8157 16.8438C42.489 17.4048 42.022 17.8398 41.4148 18.1488C40.8075 18.4577 40.0866 18.6122 39.2521 18.6122H36.4716V16.5348H38.7621C39.1598 16.5348 39.4918 16.4656 39.7582 16.3271C40.0281 16.1886 40.2322 15.995 40.3707 15.7464C40.5092 15.4943 40.5785 15.2013 40.5785 14.8675C40.5785 14.5302 40.5092 14.239 40.3707 13.994C40.2322 13.7454 40.0281 13.5536 39.7582 13.4187C39.4883 13.2837 39.1563 13.2163 38.7621 13.2163H37.4624V22H34.8256ZM47.2475 11.0909V22H44.6108V11.0909H47.2475ZM59.1993 16.5455C59.1993 17.7457 58.9685 18.7631 58.5068 19.5977C58.0452 20.4322 57.4202 21.0661 56.6318 21.4993C55.847 21.9325 54.9664 22.1491 53.9898 22.1491C53.0097 22.1491 52.1272 21.9308 51.3424 21.494C50.5576 21.0572 49.9344 20.4233 49.4727 19.5923C49.0146 18.7578 48.7856 17.7422 48.7856 16.5455C48.7856 15.3452 49.0146 14.3278 49.4727 13.4933C49.9344 12.6587 50.5576 12.0249 51.3424 11.5916C52.1272 11.1584 53.0097 10.9418 53.9898 10.9418C54.9664 10.9418 55.847 11.1584 56.6318 11.5916C57.4202 12.0249 58.0452 12.6587 58.5068 13.4933C58.9685 14.3278 59.1993 15.3452 59.1993 16.5455ZM56.504 16.5455C56.504 15.8352 56.4028 15.2351 56.2004 14.745C56.0015 14.255 55.7139 13.8839 55.3374 13.6317C54.9646 13.3796 54.5154 13.2536 53.9898 13.2536C53.4678 13.2536 53.0186 13.3796 52.6421 13.6317C52.2657 13.8839 51.9763 14.255 51.7739 14.745C51.575 15.2351 51.4756 15.8352 51.4756 16.5455C51.4756 17.2557 51.575 17.8558 51.7739 18.3459C51.9763 18.8359 52.2657 19.207 52.6421 19.4592C53.0186 19.7113 53.4678 19.8374 53.9898 19.8374C54.5154 19.8374 54.9646 19.7113 55.3374 19.4592C55.7139 19.207 56.0015 18.8359 56.2004 18.3459C56.4028 17.8558 56.504 17.2557 56.504 16.5455ZM70.0232 11.0909V22H67.786L63.4447 15.7038H63.3754V22H60.7387V11.0909H63.0079L67.3012 17.3764H67.3918V11.0909H70.0232ZM71.6811 22V11.0909H79.2876V13.2322H74.3178V15.4695H78.8988V17.6161H74.3178V19.8587H79.2876V22H71.6811Z" fill="#D93923"/>
<path d="M94.0639 15.0433H91.4006C91.3651 14.7699 91.2923 14.5231 91.1822 14.3029C91.0721 14.0827 90.9265 13.8945 90.7454 13.7383C90.5643 13.582 90.3494 13.4631 90.1009 13.3814C89.8558 13.2962 89.5842 13.2536 89.2859 13.2536C88.7567 13.2536 88.3004 13.3832 87.9169 13.6424C87.5369 13.9016 87.244 14.2763 87.038 14.7663C86.8356 15.2564 86.7344 15.8494 86.7344 16.5455C86.7344 17.2699 86.8374 17.8771 87.0433 18.3672C87.2528 18.8537 87.5458 19.2212 87.9222 19.4698C88.3022 19.7148 88.7514 19.8374 89.2699 19.8374C89.5611 19.8374 89.8256 19.8001 90.0636 19.7255C90.305 19.6509 90.5163 19.5426 90.6974 19.4006C90.8821 19.255 91.033 19.0792 91.1502 18.8732C91.271 18.6637 91.3544 18.4276 91.4006 18.1648L94.0639 18.1808C94.0178 18.6637 93.8775 19.1396 93.6431 19.6083C93.4123 20.0771 93.0945 20.505 92.6896 20.892C92.2848 21.2756 91.7912 21.581 91.2088 21.8082C90.63 22.0355 89.9659 22.1491 89.2166 22.1491C88.2294 22.1491 87.3452 21.9325 86.5639 21.4993C85.7862 21.0625 85.1719 20.4268 84.7209 19.5923C84.2699 18.7578 84.0444 17.7422 84.0444 16.5455C84.0444 15.3452 84.2734 14.3278 84.7315 13.4933C85.1896 12.6587 85.8093 12.0249 86.5906 11.5916C87.3718 11.1584 88.2472 10.9418 89.2166 10.9418C89.8771 10.9418 90.4879 11.0341 91.049 11.2188C91.6101 11.3999 92.1037 11.6662 92.5298 12.0178C92.956 12.3658 93.3022 12.7937 93.5685 13.3015C93.8349 13.8093 94 14.3899 94.0639 15.0433ZM105.869 16.5455C105.869 17.7457 105.638 18.7631 105.177 19.5977C104.715 20.4322 104.09 21.0661 103.302 21.4993C102.517 21.9325 101.636 22.1491 100.66 22.1491C99.6796 22.1491 98.7971 21.9308 98.0123 21.494C97.2275 21.0572 96.6043 20.4233 96.1427 19.5923C95.6846 18.7578 95.4555 17.7422 95.4555 16.5455C95.4555 15.3452 95.6846 14.3278 96.1427 13.4933C96.6043 12.6587 97.2275 12.0249 98.0123 11.5916C98.7971 11.1584 99.6796 10.9418 100.66 10.9418C101.636 10.9418 102.517 11.1584 103.302 11.5916C104.09 12.0249 104.715 12.6587 105.177 13.4933C105.638 14.3278 105.869 15.3452 105.869 16.5455ZM103.174 16.5455C103.174 15.8352 103.073 15.2351 102.87 14.745C102.671 14.255 102.384 13.8839 102.007 13.6317C101.634 13.3796 101.185 13.2536 100.66 13.2536C100.138 13.2536 99.6885 13.3796 99.3121 13.6317C98.9356 13.8839 98.6462 14.255 98.4438 14.745C98.2449 15.2351 98.1455 15.8352 98.1455 16.5455C98.1455 17.2557 98.2449 17.8558 98.4438 18.3459C98.6462 18.8359 98.9356 19.207 99.3121 19.4592C99.6885 19.7113 100.138 19.8374 100.66 19.8374C101.185 19.8374 101.634 19.7113 102.007 19.4592C102.384 19.207 102.671 18.8359 102.87 18.3459C103.073 17.8558 103.174 17.2557 103.174 16.5455ZM110.045 11.0909V22H107.409V11.0909H110.045ZM120.985 11.0909V22H118.748L114.407 15.7038H114.337V22H111.701V11.0909H113.97L118.263 17.3764H118.354V11.0909H120.985Z" fill="#C1A300"/>
</svg>
