<svg width="252" height="56" viewBox="0 0 252 56" fill="none" xmlns="http://www.w3.org/2000/svg">
<path d="M34.07 33.8699V5.84985L24.17 0L0.149963 13.5V24.23L24.54 10.52V28.22L9.39001 36.8398V24.8899L0 30.3799V41.6699L9.75 47.3799L34.07 33.8699Z" fill="#EF4061"/>
<path d="M38.3901 21.9902L38.2501 36.3L38.0701 36.4102L14.3501 50.1001L24.1801 55.8901L48.0701 41.9502V27.5002L38.3901 21.9902Z" fill="#EF4061"/>
<path d="M19.76 18.8201L13.98 22.1401V19.6902L19.76 16.3701V18.8201Z" fill="#EF4061"/>
<path d="M19.76 23.1501L13.98 26.4702V24.0203L19.76 20.7002V23.1501Z" fill="#EF4061"/>
<path d="M19.76 27.9099L13.98 31.23V28.78L19.76 25.46V27.9099Z" fill="#EF4061"/>
<path d="M38.25 7.37988V15.5898L48.07 21.3398V13.0798L38.25 7.37988Z" fill="#EF4061"/>
<path d="M65 17.9602C65 17.5102 65.21 17.29 65.64 17.29H73.76C74.72 17.29 75.61 17.4801 76.42 17.8501C77.23 18.2301 77.93 18.7301 78.51 19.3601C79.09 19.9901 79.55 20.71 79.87 21.53C80.19 22.35 80.36 23.1901 80.36 24.0801C80.36 24.9701 80.2 25.7801 79.88 26.5901C79.56 27.4001 79.11 28.1102 78.54 28.7302C77.97 29.3502 77.27 29.8502 76.47 30.2302C75.67 30.6102 74.79 30.79 73.84 30.79H69.13V37.8901C69.13 38.3001 68.92 38.5 68.49 38.5H65.63C65.21 38.5 65 38.2901 65 37.8901V17.9602ZM76.19 24.05C76.19 23.66 76.11 23.2701 75.96 22.9001C75.81 22.5301 75.6 22.1901 75.33 21.9001C75.06 21.6101 74.74 21.3702 74.37 21.1902C74 21.0102 73.59 20.9202 73.15 20.9202H69.13V27.1902H73.15C73.58 27.1902 73.98 27.1002 74.35 26.9302C74.72 26.7602 75.04 26.5302 75.32 26.2402C75.6 25.9502 75.81 25.6202 75.96 25.2402C76.11 24.8602 76.19 24.4701 76.19 24.0601V24.05Z" fill="white"/>
<path d="M83.8901 17.9104C83.8901 17.7404 83.9401 17.5905 84.0501 17.4705C84.1601 17.3505 84.3101 17.2803 84.5201 17.2803H87.3502C87.5102 17.2803 87.6601 17.3404 87.8101 17.4504C87.9601 17.5604 88.0201 17.7204 88.0201 17.9104V37.8704C88.0201 38.2904 87.8002 38.5002 87.3502 38.5002H84.5201C84.1001 38.5002 83.8901 38.2904 83.8901 37.8704V17.9104Z" fill="white"/>
<path d="M91.8198 27.9202C91.8198 26.9202 91.9498 25.95 92.2098 25.02C92.4698 24.09 92.8298 23.2202 93.3098 22.4102C93.7898 21.6002 94.3498 20.8602 95.0198 20.2002C95.6898 19.5402 96.4199 18.9602 97.2299 18.4902C98.0399 18.0202 98.9098 17.6501 99.8398 17.3901C100.77 17.1301 101.74 17 102.75 17C103.76 17 104.71 17.1301 105.64 17.3901C106.57 17.6501 107.44 18.0202 108.25 18.4902C109.06 18.9602 109.8 19.5302 110.46 20.2002C111.12 20.8702 111.7 21.6102 112.17 22.4102C112.64 23.2202 113.01 24.09 113.27 25.02C113.53 25.95 113.66 26.9302 113.66 27.9402C113.66 28.9502 113.53 29.9201 113.27 30.8401C113.01 31.7601 112.64 32.6302 112.17 33.4402C111.7 34.2502 111.13 34.9901 110.46 35.6501C109.79 36.3101 109.05 36.8801 108.25 37.3501C107.44 37.8201 106.57 38.1802 105.64 38.4402C104.71 38.7002 103.74 38.8301 102.73 38.8301C101.72 38.8301 100.75 38.7002 99.8198 38.4402C98.8898 38.1802 98.0198 37.8201 97.2098 37.3401C96.3998 36.8601 95.6698 36.3001 94.9998 35.6301C94.3298 34.9601 93.7698 34.2302 93.2998 33.4302C92.8298 32.6202 92.4598 31.7601 92.2098 30.8301C91.9598 29.9001 91.8198 28.9302 91.8198 27.9202ZM95.9498 27.8901C95.9498 28.8501 96.1198 29.7501 96.4698 30.5901C96.8198 31.4301 97.2898 32.16 97.8998 32.78C98.4998 33.4 99.2199 33.89 100.04 34.25C100.86 34.61 101.76 34.79 102.72 34.79C103.68 34.79 104.56 34.61 105.38 34.25C106.2 33.89 106.92 33.4 107.53 32.78C108.14 32.16 108.62 31.4301 108.97 30.5901C109.32 29.7501 109.49 28.8501 109.49 27.8901C109.49 26.9301 109.32 26.0402 108.97 25.2002C108.62 24.3602 108.14 23.63 107.53 23.01C106.92 22.39 106.2 21.89 105.38 21.53C104.56 21.17 103.67 20.9902 102.72 20.9902C101.77 20.9902 100.86 21.17 100.04 21.53C99.2199 21.89 98.4998 22.39 97.8998 23.01C97.2898 23.63 96.8198 24.3702 96.4698 25.2002C96.1198 26.0402 95.9498 26.9301 95.9498 27.8901Z" fill="white"/>
<path d="M117.41 17.9302C117.41 17.7502 117.46 17.6002 117.57 17.4702C117.68 17.3402 117.84 17.28 118.03 17.28H121.32C121.45 17.28 121.58 17.3101 121.7 17.3701C121.82 17.4301 121.93 17.5302 122.02 17.6602C123.65 19.9802 125.26 22.2901 126.86 24.5801C128.46 26.8701 130.07 29.18 131.7 31.5V17.8101C131.73 17.6401 131.8 17.5002 131.91 17.4102C132.02 17.3102 132.16 17.27 132.32 17.27H135.08C135.27 17.27 135.43 17.3302 135.57 17.4402C135.71 17.5502 135.78 17.7101 135.78 17.9001V37.9001C135.78 38.2901 135.56 38.4902 135.11 38.4902H132.01C131.8 38.4902 131.61 38.3601 131.42 38.1001C129.74 35.6701 128.07 33.2401 126.41 30.8201C124.75 28.4001 123.08 25.96 121.42 23.53V37.8601C121.42 38.0701 121.37 38.2301 121.27 38.3301C121.17 38.4401 121 38.4902 120.76 38.4902H118.02C117.8 38.4902 117.64 38.4401 117.54 38.3301C117.44 38.2201 117.39 38.0701 117.39 37.8801V17.9202L117.41 17.9302Z" fill="white"/>
<path d="M140.42 17.9705C140.42 17.5105 140.63 17.2803 141.05 17.2803H154.82C155.07 17.2803 155.24 17.3505 155.35 17.4905C155.46 17.6305 155.51 17.8003 155.51 18.0103V20.5303C155.51 20.7003 155.45 20.8605 155.33 20.9905C155.21 21.1205 155.03 21.1904 154.79 21.1904H144.63V25.5203H152.46C152.65 25.5003 152.8 25.5404 152.92 25.6404C153.03 25.7404 153.09 25.9104 153.09 26.1504V28.7405C153.09 28.9105 153.04 29.0604 152.95 29.2004C152.86 29.3304 152.7 29.4004 152.49 29.4004H144.63V34.5903H155.16C155.43 34.5903 155.6 34.6503 155.69 34.7603C155.78 34.8803 155.82 35.0503 155.82 35.2903V37.9004C155.82 38.3004 155.61 38.5002 155.19 38.5002H141.04C140.87 38.5002 140.72 38.4504 140.6 38.3604C140.48 38.2604 140.41 38.1104 140.41 37.9004V17.9705H140.42Z" fill="white"/>
<path d="M169.39 17.9104C169.41 17.7304 169.48 17.5804 169.6 17.4604C169.72 17.3404 169.88 17.2803 170.07 17.2803H173.64C173.97 17.2803 174.19 17.4603 174.3 17.8203L179.34 31.8804C180.19 29.5204 181.04 27.1703 181.89 24.8503C182.74 22.5303 183.59 20.1803 184.43 17.8203C184.56 17.4603 184.78 17.2803 185.09 17.2803H188.68C188.87 17.2803 189.03 17.3405 189.14 17.4705C189.25 17.6005 189.32 17.7404 189.33 17.9104C189.68 21.2504 190.04 24.5804 190.4 27.9004C190.76 31.2104 191.12 34.5404 191.49 37.8704V37.9104C191.49 38.3004 191.28 38.5002 190.86 38.5002H188.09C187.66 38.5002 187.44 38.2904 187.42 37.8704L185.96 24.3503L181.2 37.5002C181.15 37.6302 181.08 37.7604 180.97 37.8704C180.87 37.9804 180.76 38.0403 180.64 38.0403H178.07C177.95 38.0403 177.83 37.9904 177.73 37.8804C177.63 37.7704 177.55 37.6402 177.5 37.5002C176.72 35.3002 175.93 33.1104 175.14 30.9404C174.35 28.7704 173.55 26.5804 172.76 24.3704L171.3 37.8704C171.3 38.2904 171.08 38.5002 170.64 38.5002H167.87C167.45 38.5002 167.24 38.2904 167.24 37.8704L169.38 17.9104H169.39Z" fill="white"/>
<path d="M193.7 37.98C193.75 37.79 193.8 37.61 193.86 37.45C193.92 37.29 193.98 37.1398 194.02 37.0098L201.72 17.8398C201.75 17.7298 201.83 17.62 201.96 17.49C202.09 17.36 202.26 17.2998 202.48 17.2998H204.78C205.01 17.2998 205.17 17.36 205.27 17.47C205.37 17.58 205.44 17.6798 205.49 17.7698L205.96 18.8899L213.5 37.7698C213.5 37.7698 213.5 37.8499 213.52 37.9199C213.53 37.9899 213.54 38.0499 213.54 38.0999C213.54 38.3899 213.33 38.5298 212.91 38.5298H210.09C209.88 38.5298 209.72 38.4899 209.6 38.3999C209.48 38.3199 209.39 38.1798 209.31 37.9998L209.05 37.3398C208.87 36.8798 208.69 36.42 208.51 35.97C208.33 35.51 208.15 35.0498 207.98 34.5798H199.16C198.91 35.2498 198.67 35.87 198.44 36.46C198.21 37.05 198.01 37.5598 197.85 37.9998C197.72 38.3498 197.47 38.5298 197.11 38.5298H194.25C194.07 38.5298 193.92 38.4999 193.81 38.4299C193.7 38.3599 193.64 38.2599 193.64 38.1299C193.64 38.0699 193.64 38.0298 193.65 37.9998L193.7 37.98ZM203.65 22.73C203.13 24.04 202.62 25.4098 202.11 26.8198C201.6 28.2298 201.09 29.5899 200.57 30.8899H206.66L203.65 22.73Z" fill="white"/>
<path d="M216.6 17.9602C216.6 17.5102 216.81 17.29 217.23 17.29H225.98C226.94 17.29 227.84 17.4701 228.68 17.8301C229.52 18.1901 230.25 18.68 230.87 19.3C231.49 19.92 231.99 20.6502 232.34 21.4902C232.7 22.3302 232.88 23.2202 232.88 24.1602C232.88 24.8202 232.79 25.45 232.61 26.05C232.43 26.65 232.18 27.2102 231.85 27.7202C231.53 28.2302 231.14 28.7001 230.69 29.1101C230.24 29.5201 229.75 29.8702 229.2 30.1602L232.91 37.4902C232.93 37.5902 232.96 37.68 233.01 37.78C233.06 37.87 233.08 37.9801 233.08 38.0801C233.08 38.3701 232.91 38.51 232.58 38.51H229.26C228.92 38.51 228.69 38.3302 228.57 37.9802L225.11 31.1201C224.96 31.1201 224.79 31.1201 224.62 31.1201C224.44 31.1201 224.2 31.1201 223.89 31.1201H220.74V37.8801C220.74 38.2901 220.52 38.4902 220.08 38.4902H217.21C217.02 38.4902 216.87 38.4401 216.75 38.3401C216.64 38.2401 216.58 38.0901 216.58 37.8801V17.9502L216.6 17.9602ZM228.64 24.1802C228.64 23.7702 228.56 23.3702 228.41 22.9902C228.26 22.6102 228.04 22.2602 227.77 21.9602C227.49 21.6602 227.17 21.4102 226.78 21.2202C226.4 21.0302 225.98 20.9201 225.54 20.8901C225.21 20.8901 224.88 20.8701 224.56 20.8701C224.24 20.8701 223.91 20.8701 223.57 20.8701H220.75V27.5H225.06C225.23 27.5 225.41 27.5002 225.6 27.4702C226.05 27.4402 226.46 27.3402 226.84 27.1602C227.22 26.9802 227.54 26.7402 227.8 26.4402C228.07 26.1402 228.27 25.8002 228.42 25.4102C228.57 25.0302 228.64 24.6202 228.64 24.1902V24.1802Z" fill="white"/>
<path d="M235.12 17.9104C235.12 17.7204 235.18 17.5704 235.31 17.4504C235.43 17.3404 235.59 17.2803 235.78 17.2803H250.81C250.98 17.2803 251.14 17.3304 251.27 17.4404C251.41 17.5504 251.49 17.7004 251.51 17.9104V20.4104C251.51 20.6004 251.45 20.7704 251.33 20.9104C251.21 21.0504 251.04 21.1204 250.81 21.1204H245.38V37.8403C245.38 38.0103 245.32 38.1603 245.2 38.3003C245.08 38.4303 244.92 38.5002 244.71 38.5002H241.89C241.72 38.5002 241.56 38.4403 241.43 38.3103C241.3 38.1803 241.22 38.0303 241.22 37.8403V21.1204H235.78C235.59 21.1204 235.43 21.0604 235.31 20.9404C235.19 20.8204 235.12 20.6404 235.12 20.4004V17.9004V17.9104Z" fill="white"/>
</svg>
