<svg width="274" height="56" viewBox="0 0 274 56" fill="none" xmlns="http://www.w3.org/2000/svg">
<path d="M34.0701 33.8699V5.84985L24.17 0L0.150024 13.5V24.23L24.54 10.52V28.22L9.39001 36.8398V24.8899L0 30.3799V41.6699L9.75 47.3799L34.0701 33.8699Z" fill="url(#paint0_linear_2002_511)"/>
<path d="M38.39 21.9902L38.25 36.3L38.0701 36.4102L14.3501 50.1001L24.1801 55.8901L48.0701 41.9502V27.5002L38.39 21.9902Z" fill="url(#paint1_linear_2002_511)"/>
<path d="M19.7599 18.8201L13.98 22.1401V19.6902L19.7599 16.3701V18.8201Z" fill="url(#paint2_linear_2002_511)"/>
<path d="M19.7599 23.1501L13.98 26.4702V24.0203L19.7599 20.7002V23.1501Z" fill="url(#paint3_linear_2002_511)"/>
<path d="M19.7599 27.9099L13.98 31.23V28.78L19.7599 25.46V27.9099Z" fill="url(#paint4_linear_2002_511)"/>
<path d="M38.25 7.37988V15.5898L48.0701 21.3398V13.0798L38.25 7.37988Z" fill="url(#paint5_linear_2002_511)"/>
<path d="M65 17.9602C65 17.5102 65.2099 17.29 65.6399 17.29H73.76C74.72 17.29 75.6099 17.4801 76.4199 17.8501C77.2299 18.2301 77.93 18.7301 78.51 19.3601C79.09 19.9901 79.55 20.71 79.87 21.53C80.19 22.34 80.36 23.1901 80.36 24.0801C80.36 24.9701 80.2 25.7801 79.88 26.5901C79.56 27.4001 79.1099 28.1102 78.5399 28.7302C77.9599 29.3502 77.27 29.8502 76.47 30.2302C75.67 30.6102 74.79 30.79 73.84 30.79H69.13V37.8901C69.13 38.3001 68.92 38.5 68.49 38.5H65.63C65.21 38.5 65 38.2901 65 37.8901V17.9602ZM76.1899 24.05C76.1899 23.66 76.11 23.2701 75.96 22.9001C75.81 22.5201 75.6 22.1901 75.33 21.9001C75.06 21.6101 74.74 21.3702 74.37 21.1902C74 21.0102 73.5899 20.9202 73.1499 20.9202H69.13V27.1902H73.1499C73.5799 27.1902 73.98 27.1002 74.35 26.9302C74.72 26.7602 75.0399 26.5302 75.3199 26.2402C75.5899 25.9502 75.8 25.6202 75.96 25.2402C76.11 24.8602 76.1899 24.4701 76.1899 24.0601V24.05Z" fill="white"/>
<path d="M83.8799 17.9104C83.8799 17.7404 83.9298 17.5905 84.0398 17.4705C84.1498 17.3505 84.2999 17.2803 84.5099 17.2803H87.3398C87.4998 17.2803 87.6498 17.3404 87.7998 17.4504C87.9498 17.5604 88.0099 17.7204 88.0099 17.9104V37.8704C88.0099 38.2904 87.7898 38.5002 87.3398 38.5002H84.5099C84.0899 38.5002 83.8799 38.2904 83.8799 37.8704V17.9104Z" fill="white"/>
<path d="M91.8101 27.9202C91.8101 26.9202 91.9401 25.95 92.2001 25.02C92.4601 24.09 92.82 23.2202 93.3 22.4102C93.78 21.6002 94.3501 20.8602 95.0101 20.2002C95.6701 19.5402 96.4101 18.9602 97.2201 18.4902C98.0301 18.0202 98.9001 17.6501 99.8301 17.3901C100.76 17.1301 101.73 17 102.74 17C103.75 17 104.7 17.1301 105.63 17.3901C106.56 17.6501 107.43 18.0202 108.24 18.4902C109.05 18.9602 109.79 19.5302 110.45 20.2002C111.11 20.8702 111.69 21.6102 112.16 22.4102C112.63 23.2202 113 24.09 113.26 25.02C113.52 25.95 113.65 26.9302 113.65 27.9402C113.65 28.9502 113.52 29.9201 113.26 30.8401C113 31.7601 112.63 32.6302 112.16 33.4402C111.69 34.2502 111.12 34.9901 110.45 35.6501C109.78 36.3101 109.04 36.8801 108.24 37.3501C107.43 37.8201 106.56 38.1802 105.63 38.4402C104.7 38.7002 103.73 38.8301 102.72 38.8301C101.71 38.8301 100.74 38.7002 99.8101 38.4402C98.8801 38.1802 98.0101 37.8201 97.2001 37.3401C96.3901 36.8601 95.6501 36.3001 94.9901 35.6301C94.3301 34.9601 93.76 34.2302 93.29 33.4302C92.82 32.6202 92.4501 31.7601 92.2001 30.8301C91.9401 29.9001 91.8101 28.9302 91.8101 27.9202ZM95.9401 27.8901C95.9401 28.8501 96.1101 29.7501 96.4601 30.5901C96.8101 31.4301 97.28 32.16 97.89 32.78C98.5 33.4 99.21 33.89 100.03 34.25C100.85 34.61 101.75 34.79 102.71 34.79C103.67 34.79 104.55 34.61 105.38 34.25C106.21 33.89 106.92 33.4 107.53 32.78C108.14 32.16 108.62 31.4301 108.97 30.5901C109.32 29.7501 109.49 28.8501 109.49 27.8901C109.49 26.9301 109.32 26.0402 108.97 25.2002C108.62 24.3602 108.14 23.63 107.53 23.01C106.92 22.39 106.2 21.89 105.38 21.53C104.56 21.17 103.67 20.9902 102.71 20.9902C101.75 20.9902 100.86 21.17 100.03 21.53C99.2 21.89 98.49 22.39 97.89 23.01C97.29 23.63 96.8101 24.3702 96.4601 25.2002C96.1101 26.0402 95.9401 26.9301 95.9401 27.8901Z" fill="white"/>
<path d="M117.4 17.9302C117.4 17.7502 117.45 17.6002 117.56 17.4702C117.67 17.3402 117.82 17.28 118.02 17.28H121.31C121.44 17.28 121.57 17.3101 121.69 17.3701C121.81 17.4301 121.92 17.5302 122.01 17.6602C123.64 19.9802 125.25 22.2901 126.85 24.5801C128.45 26.8701 130.06 29.18 131.69 31.5V17.8101C131.72 17.6401 131.79 17.5002 131.9 17.4102C132.01 17.3102 132.15 17.27 132.31 17.27H135.07C135.26 17.27 135.42 17.3302 135.56 17.4402C135.7 17.5502 135.77 17.7101 135.77 17.9001V37.9001C135.77 38.2901 135.55 38.4902 135.1 38.4902H132C131.79 38.4902 131.59 38.3601 131.41 38.1001C129.73 35.6701 128.06 33.2401 126.4 30.8201C124.74 28.4001 123.07 25.96 121.41 23.53V37.8601C121.41 38.0701 121.36 38.2301 121.26 38.3301C121.16 38.4401 120.99 38.4902 120.75 38.4902H118.01C117.79 38.4902 117.63 38.4401 117.53 38.3301C117.43 38.2201 117.38 38.0701 117.38 37.8801V17.9202L117.4 17.9302Z" fill="white"/>
<path d="M140.41 17.9705C140.41 17.5105 140.62 17.2803 141.04 17.2803H154.81C155.06 17.2803 155.23 17.3505 155.34 17.4905C155.45 17.6305 155.5 17.8003 155.5 18.0103V20.5303C155.5 20.7003 155.44 20.8605 155.32 20.9905C155.2 21.1205 155.02 21.1904 154.78 21.1904H144.62V25.5203H152.45C152.64 25.5003 152.79 25.5404 152.91 25.6404C153.02 25.7404 153.08 25.9104 153.08 26.1504V28.7405C153.08 28.9105 153.03 29.0604 152.94 29.2004C152.85 29.3304 152.69 29.4004 152.48 29.4004H144.62V34.5903H155.15C155.42 34.5903 155.59 34.6503 155.68 34.7603C155.77 34.8803 155.81 35.0503 155.81 35.2903V37.9004C155.81 38.3004 155.6 38.5002 155.18 38.5002H141.03C140.86 38.5002 140.71 38.4504 140.59 38.3604C140.47 38.2604 140.4 38.1104 140.4 37.9004V17.9705H140.41Z" fill="white"/>
<path d="M186.37 27.9202C186.37 28.9102 186.24 29.86 185.98 30.77C185.72 31.68 185.36 32.5301 184.89 33.3101C184.42 34.1001 183.86 34.8102 183.21 35.4502C182.56 36.0902 181.83 36.6301 181.03 37.0901C180.23 37.5401 179.37 37.8901 178.45 38.1401C177.53 38.3901 176.57 38.51 175.57 38.51H168.71C168.54 38.51 168.39 38.4701 168.25 38.4001C168.11 38.3301 168.05 38.1602 168.05 37.9102V17.9602C168.05 17.5102 168.27 17.29 168.71 17.29H175.57C177.09 17.29 178.5 17.5601 179.81 18.1101C181.12 18.6601 182.26 19.4101 183.23 20.3701C184.2 21.3301 184.97 22.4502 185.52 23.7402C186.08 25.0302 186.36 26.4202 186.36 27.9202H186.37ZM172.18 21.2102V34.6001H173.54C174.25 34.6001 174.97 34.5901 175.68 34.5601C176.62 34.5301 177.5 34.3402 178.3 33.9802C179.1 33.6202 179.79 33.14 180.38 32.54C180.97 31.94 181.42 31.2402 181.75 30.4302C182.08 29.6202 182.24 28.7601 182.24 27.8301C182.24 26.8501 182.06 25.9501 181.7 25.1301C181.34 24.3101 180.85 23.62 180.24 23.03C179.62 22.45 178.9 22.0002 178.07 21.6802C177.24 21.3602 176.36 21.2002 175.43 21.2002H172.19L172.18 21.2102Z" fill="white"/>
<path d="M190.26 17.9602C190.26 17.5102 190.47 17.29 190.89 17.29H199.63C200.59 17.29 201.49 17.4701 202.33 17.8301C203.17 18.1901 203.9 18.68 204.52 19.3C205.14 19.92 205.64 20.6502 205.99 21.4902C206.35 22.3302 206.53 23.2202 206.53 24.1602C206.53 24.8202 206.44 25.45 206.26 26.05C206.08 26.65 205.83 27.2102 205.5 27.7202C205.18 28.2302 204.79 28.7001 204.34 29.1101C203.89 29.5201 203.4 29.8702 202.85 30.1602L206.56 37.4902C206.58 37.5902 206.61 37.68 206.66 37.78C206.71 37.87 206.73 37.9801 206.73 38.0801C206.73 38.3701 206.56 38.51 206.23 38.51H202.92C202.58 38.51 202.35 38.3302 202.23 37.9802L198.77 31.1201C198.62 31.1201 198.45 31.1201 198.28 31.1201C198.11 31.1201 197.86 31.1201 197.55 31.1201H194.4V37.8801C194.4 38.2901 194.18 38.4902 193.74 38.4902H190.87C190.68 38.4902 190.53 38.4401 190.41 38.3401C190.3 38.2401 190.24 38.0901 190.24 37.8801V17.9502L190.26 17.9602ZM202.3 24.1802C202.3 23.7702 202.22 23.3702 202.07 22.9902C201.92 22.6102 201.7 22.2602 201.43 21.9602C201.15 21.6602 200.82 21.4102 200.44 21.2202C200.06 21.0302 199.65 20.9201 199.2 20.8901C198.87 20.8901 198.54 20.8701 198.22 20.8701C197.9 20.8701 197.57 20.8701 197.23 20.8701H194.42V27.5H198.73C198.9 27.5 199.07 27.5002 199.27 27.4702C199.72 27.4402 200.13 27.3402 200.51 27.1602C200.89 26.9802 201.21 26.7402 201.47 26.4402C201.74 26.1402 201.94 25.8002 202.09 25.4102C202.24 25.0302 202.31 24.6202 202.31 24.1902L202.3 24.1802Z" fill="white"/>
<path d="M210.13 17.9705C210.13 17.5105 210.34 17.2803 210.76 17.2803H224.53C224.78 17.2803 224.95 17.3505 225.06 17.4905C225.16 17.6305 225.22 17.8003 225.22 18.0103V20.5303C225.22 20.7003 225.16 20.8605 225.04 20.9905C224.92 21.1205 224.74 21.1904 224.5 21.1904H214.34V25.5203H222.17C222.36 25.5003 222.51 25.5404 222.63 25.6404C222.74 25.7404 222.8 25.9104 222.8 26.1504V28.7405C222.8 28.9105 222.75 29.0604 222.66 29.2004C222.56 29.3304 222.41 29.4004 222.2 29.4004H214.34V34.5903H224.87C225.14 34.5903 225.31 34.6503 225.4 34.7603C225.49 34.8803 225.53 35.0503 225.53 35.2903V37.9004C225.53 38.3004 225.32 38.5002 224.9 38.5002H210.75C210.58 38.5002 210.43 38.4504 210.31 38.3604C210.19 38.2604 210.12 38.1104 210.12 37.9004V17.9705H210.13Z" fill="white"/>
<path d="M227.49 37.98C227.54 37.79 227.59 37.61 227.65 37.45C227.71 37.29 227.77 37.1398 227.81 37.0098L235.51 17.8398C235.54 17.7298 235.62 17.62 235.75 17.49C235.88 17.36 236.05 17.2998 236.27 17.2998H238.57C238.8 17.2998 238.96 17.36 239.06 17.47C239.16 17.58 239.23 17.6798 239.28 17.7698L239.75 18.8899L247.29 37.7698C247.29 37.7698 247.29 37.8499 247.31 37.9199C247.32 37.9899 247.33 38.0499 247.33 38.0999C247.33 38.3899 247.12 38.5298 246.7 38.5298H243.89C243.68 38.5298 243.52 38.4899 243.4 38.3999C243.28 38.3199 243.19 38.1798 243.11 37.9998L242.85 37.3398C242.67 36.8798 242.49 36.42 242.31 35.97C242.13 35.51 241.95 35.0498 241.78 34.5798H232.96C232.71 35.2498 232.47 35.87 232.24 36.46C232.01 37.05 231.81 37.5598 231.65 37.9998C231.52 38.3498 231.27 38.5298 230.91 38.5298H228.05C227.87 38.5298 227.72 38.4999 227.61 38.4299C227.5 38.3599 227.45 38.2599 227.45 38.1299C227.45 38.0699 227.45 38.0298 227.46 37.9998L227.49 37.98ZM237.43 22.73C236.92 24.04 236.4 25.4098 235.89 26.8198C235.38 28.2298 234.87 29.5899 234.35 30.8899H240.44L237.43 22.73Z" fill="white"/>
<path d="M251.6 17.9104C251.62 17.7304 251.69 17.5804 251.81 17.4604C251.93 17.3404 252.09 17.2803 252.28 17.2803H255.85C256.18 17.2803 256.4 17.4603 256.51 17.8203L261.55 31.8804C262.4 29.5204 263.25 27.1703 264.1 24.8503C264.95 22.5303 265.8 20.1803 266.64 17.8203C266.77 17.4603 266.99 17.2803 267.3 17.2803H270.89C271.08 17.2803 271.23 17.3405 271.35 17.4705C271.47 17.6005 271.53 17.7404 271.54 17.9104C271.89 21.2504 272.25 24.5804 272.61 27.9004C272.97 31.2104 273.33 34.5404 273.7 37.8704V37.9104C273.7 38.3004 273.49 38.5002 273.07 38.5002H270.3C269.87 38.5002 269.65 38.2904 269.63 37.8704L268.17 24.3503L263.41 37.5002C263.36 37.6302 263.29 37.7604 263.18 37.8704C263.07 37.9804 262.97 38.0403 262.85 38.0403H260.28C260.16 38.0403 260.04 37.9904 259.94 37.8804C259.83 37.7704 259.76 37.6402 259.71 37.5002C258.93 35.3002 258.14 33.1104 257.35 30.9404C256.56 28.7704 255.76 26.5804 254.96 24.3704L253.5 37.8704C253.5 38.2904 253.28 38.5002 252.84 38.5002H250.07C249.65 38.5002 249.44 38.2904 249.44 37.8704L251.58 17.9104H251.6Z" fill="white"/>
<defs>
<linearGradient id="paint0_linear_2002_511" x1="29.1801" y1="3.13999" x2="7.42016" y2="40.16" gradientUnits="userSpaceOnUse">
<stop stop-color="#EA1D25"/>
<stop offset="1" stop-color="#034EA2"/>
</linearGradient>
<linearGradient id="paint1_linear_2002_511" x1="49.4201" y1="15.0403" x2="27.6602" y2="52.0602" gradientUnits="userSpaceOnUse">
<stop stop-color="#EA1D25"/>
<stop offset="1" stop-color="#034EA2"/>
</linearGradient>
<linearGradient id="paint2_linear_2002_511" x1="27.0698" y1="1.90007" x2="5.30949" y2="38.9198" gradientUnits="userSpaceOnUse">
<stop stop-color="#EA1D25"/>
<stop offset="1" stop-color="#034EA2"/>
</linearGradient>
<linearGradient id="paint3_linear_2002_511" x1="28.9597" y1="3.01014" x2="7.19946" y2="40.0299" gradientUnits="userSpaceOnUse">
<stop stop-color="#EA1D25"/>
<stop offset="1" stop-color="#034EA2"/>
</linearGradient>
<linearGradient id="paint4_linear_2002_511" x1="31.0397" y1="4.23989" x2="9.27943" y2="41.2596" gradientUnits="userSpaceOnUse">
<stop stop-color="#EA1D25"/>
<stop offset="1" stop-color="#034EA2"/>
</linearGradient>
<linearGradient id="paint5_linear_2002_511" x1="44.47" y1="12.1299" x2="22.7102" y2="49.15" gradientUnits="userSpaceOnUse">
<stop stop-color="#EA1D25"/>
<stop offset="1" stop-color="#034EA2"/>
</linearGradient>
</defs>
</svg>
