<svg width="194" height="56" viewBox="0 0 194 56" fill="none" xmlns="http://www.w3.org/2000/svg">
<path d="M34.0701 33.87V5.84998L24.17 0L0.150024 13.5V24.23L24.54 10.52V28.2201L9.39001 36.8401V24.89L0 30.38V41.67L9.75 47.38L34.0701 33.87Z" fill="url(#paint0_linear_2002_506)"/>
<path d="M38.39 21.9902L38.25 36.3003L38.0701 36.4103L14.3501 50.1002L24.1801 55.8903L48.0701 41.9503V27.5002L38.39 21.9902Z" fill="url(#paint1_linear_2002_506)"/>
<path d="M19.7599 18.8202L13.98 22.1401V19.6902L19.7599 16.3701V18.8202Z" fill="url(#paint2_linear_2002_506)"/>
<path d="M19.7599 23.1501L13.98 26.4702V24.0201L19.7599 20.7002V23.1501Z" fill="url(#paint3_linear_2002_506)"/>
<path d="M19.7599 27.9099L13.98 31.2299V28.7799L19.7599 25.46V27.9099Z" fill="url(#paint4_linear_2002_506)"/>
<path d="M38.25 7.37988V15.59L48.0701 21.34V13.08L38.25 7.37988Z" fill="url(#paint5_linear_2002_506)"/>
<path d="M65 17.96C65 17.51 65.21 17.29 65.64 17.29H73.76C74.72 17.29 75.6099 17.48 76.4199 17.85C77.2299 18.23 77.93 18.73 78.51 19.36C79.09 19.99 79.55 20.71 79.87 21.53C80.19 22.34 80.36 23.19 80.36 24.08C80.36 24.97 80.2 25.78 79.88 26.59C79.56 27.4 79.11 28.11 78.54 28.73C77.97 29.35 77.27 29.85 76.47 30.23C75.67 30.61 74.79 30.79 73.84 30.79H69.13V37.89C69.13 38.3 68.92 38.5 68.49 38.5H65.63C65.21 38.5 65 38.29 65 37.89V17.96ZM76.1899 24.05C76.1899 23.66 76.11 23.27 75.96 22.9C75.81 22.53 75.6 22.19 75.33 21.9C75.06 21.61 74.74 21.3699 74.37 21.1899C74 21.0099 73.59 20.92 73.15 20.92H69.13V27.1899H73.15C73.58 27.1899 73.98 27.1001 74.35 26.9301C74.72 26.7601 75.0399 26.53 75.3199 26.24C75.5899 25.95 75.81 25.62 75.96 25.24C76.11 24.86 76.1899 24.4699 76.1899 24.0599V24.05Z" fill="white"/>
<path d="M83.8901 17.9103C83.8901 17.7403 83.94 17.5902 84.05 17.4702C84.16 17.3502 84.3101 17.2803 84.5201 17.2803H87.3501C87.5101 17.2803 87.6601 17.3402 87.8101 17.4502C87.9601 17.5602 88.0201 17.7203 88.0201 17.9103V37.8702C88.0201 38.2902 87.8001 38.5002 87.3501 38.5002H84.5201C84.1001 38.5002 83.8901 38.2902 83.8901 37.8702V17.9103Z" fill="white"/>
<path d="M91.8101 27.92C91.8101 26.92 91.9401 25.95 92.2001 25.02C92.4601 24.09 92.82 23.22 93.3 22.41C93.78 21.6 94.3401 20.86 95.0101 20.2C95.6801 19.54 96.4101 18.96 97.2201 18.49C98.0301 18.02 98.9001 17.65 99.8301 17.39C100.76 17.13 101.73 17 102.74 17C103.75 17 104.7 17.13 105.63 17.39C106.56 17.65 107.43 18.02 108.24 18.49C109.05 18.96 109.79 19.53 110.45 20.2C111.12 20.87 111.69 21.61 112.16 22.41C112.63 23.21 113 24.09 113.26 25.02C113.52 25.95 113.65 26.9299 113.65 27.9399C113.65 28.9499 113.52 29.92 113.26 30.84C113 31.76 112.63 32.6299 112.16 33.4399C111.69 34.2499 111.12 34.99 110.45 35.65C109.78 36.31 109.05 36.88 108.24 37.35C107.43 37.82 106.56 38.1799 105.63 38.4399C104.7 38.6999 103.73 38.83 102.72 38.83C101.71 38.83 100.74 38.6999 99.8101 38.4399C98.8801 38.1799 98.0101 37.82 97.2001 37.34C96.3901 36.86 95.6601 36.3 94.9901 35.63C94.3201 34.96 93.7602 34.2301 93.2902 33.4301C92.8202 32.6201 92.4501 31.76 92.2001 30.83C91.9401 29.9 91.8101 28.93 91.8101 27.92ZM95.9401 27.89C95.9401 28.85 96.1101 29.75 96.4601 30.59C96.8101 31.43 97.2801 32.16 97.8901 32.78C98.4901 33.4 99.2102 33.89 100.03 34.25C100.85 34.61 101.75 34.79 102.71 34.79C103.67 34.79 104.55 34.61 105.38 34.25C106.2 33.89 106.92 33.4 107.53 32.78C108.14 32.16 108.62 31.43 108.97 30.59C109.32 29.75 109.49 28.85 109.49 27.89C109.49 26.93 109.32 26.04 108.97 25.2C108.62 24.36 108.14 23.63 107.53 23.01C106.92 22.39 106.2 21.89 105.38 21.53C104.56 21.17 103.67 20.99 102.71 20.99C101.75 20.99 100.85 21.17 100.03 21.53C99.2102 21.89 98.4901 22.39 97.8901 23.01C97.2801 23.63 96.8101 24.37 96.4601 25.2C96.1101 26.04 95.9401 26.93 95.9401 27.89Z" fill="white"/>
<path d="M117.41 17.9301C117.41 17.7501 117.46 17.6 117.57 17.47C117.68 17.34 117.83 17.28 118.03 17.28H121.32C121.45 17.28 121.58 17.31 121.7 17.37C121.82 17.43 121.93 17.53 122.02 17.66C123.65 19.98 125.26 22.29 126.86 24.58C128.46 26.87 130.07 29.18 131.7 31.5V17.8099C131.73 17.6399 131.8 17.5 131.91 17.41C132.02 17.31 132.16 17.27 132.32 17.27H135.08C135.27 17.27 135.43 17.3299 135.57 17.4399C135.71 17.5499 135.78 17.71 135.78 17.9V37.9C135.78 38.29 135.56 38.49 135.11 38.49H132.01C131.8 38.49 131.61 38.36 131.43 38.1C129.75 35.67 128.08 33.2399 126.42 30.8199C124.76 28.3999 123.09 25.96 121.43 23.53V37.86C121.43 38.07 121.38 38.23 121.28 38.33C121.18 38.44 121.01 38.49 120.77 38.49H118.03C117.81 38.49 117.65 38.44 117.55 38.33C117.45 38.22 117.4 38.07 117.4 37.88V17.92L117.41 17.9301Z" fill="white"/>
<path d="M140.41 17.9702C140.41 17.5102 140.62 17.2803 141.04 17.2803H154.81C155.06 17.2803 155.23 17.3502 155.34 17.4902C155.44 17.6302 155.5 17.8003 155.5 18.0103V20.5303C155.5 20.7003 155.44 20.8602 155.32 20.9902C155.2 21.1202 155.02 21.1902 154.78 21.1902H144.62V25.5203H152.45C152.64 25.5003 152.79 25.5403 152.91 25.6403C153.02 25.7403 153.08 25.9103 153.08 26.1503V28.7402C153.08 28.9102 153.03 29.0602 152.94 29.2002C152.84 29.3302 152.69 29.4003 152.48 29.4003H144.62V34.5902H155.15C155.42 34.5902 155.59 34.6503 155.68 34.7603C155.77 34.8803 155.81 35.0503 155.81 35.2903V37.9003C155.81 38.3003 155.6 38.5002 155.18 38.5002H141.03C140.86 38.5002 140.71 38.4502 140.59 38.3602C140.47 38.2602 140.4 38.1103 140.4 37.9003V17.9702H140.41Z" fill="white"/>
<path d="M166.73 37.9797C166.78 37.7897 166.83 37.6097 166.89 37.4497C166.95 37.2897 167.01 37.1398 167.06 37.0098L174.76 17.8397C174.79 17.7297 174.87 17.6197 175 17.4897C175.13 17.3597 175.3 17.2998 175.52 17.2998H177.82C178.05 17.2998 178.21 17.3597 178.31 17.4697C178.41 17.5797 178.48 17.6798 178.53 17.7698L179 18.8898L186.54 37.7698C186.54 37.7698 186.54 37.8498 186.56 37.9198C186.57 37.9898 186.58 38.0497 186.58 38.0997C186.58 38.3897 186.37 38.5298 185.95 38.5298H183.13C182.92 38.5298 182.76 38.4898 182.64 38.3998C182.53 38.3198 182.43 38.1798 182.35 37.9998L182.09 37.3397C181.91 36.8797 181.73 36.4197 181.55 35.9697C181.37 35.5197 181.19 35.0497 181.02 34.5797H172.2C171.95 35.2497 171.71 35.8697 171.48 36.4597C171.25 37.0497 171.05 37.5598 170.89 37.9998C170.76 38.3498 170.51 38.5298 170.15 38.5298H167.29C167.11 38.5298 166.96 38.4998 166.85 38.4298C166.74 38.3598 166.68 38.2598 166.68 38.1298C166.68 38.0698 166.68 38.0298 166.69 37.9998L166.73 37.9797ZM176.68 22.7297C176.17 24.0397 175.65 25.4097 175.14 26.8197C174.63 28.2297 174.12 29.5898 173.6 30.8898H179.69L176.68 22.7297Z" fill="white"/>
<path d="M189.65 17.9103C189.65 17.7403 189.7 17.5902 189.81 17.4702C189.92 17.3502 190.07 17.2803 190.28 17.2803H193.11C193.27 17.2803 193.42 17.3402 193.57 17.4502C193.72 17.5602 193.78 17.7203 193.78 17.9103V37.8702C193.78 38.2902 193.56 38.5002 193.11 38.5002H190.28C189.86 38.5002 189.65 38.2902 189.65 37.8702V17.9103Z" fill="white"/>
<defs>
<linearGradient id="paint0_linear_2002_506" x1="25.72" y1="3.14" x2="12.3001" y2="35.14" gradientUnits="userSpaceOnUse">
<stop stop-color="#9DD29C"/>
<stop offset="1" stop-color="#009D96"/>
</linearGradient>
<linearGradient id="paint1_linear_2002_506" x1="45.6801" y1="11.5102" x2="32.26" y2="43.5102" gradientUnits="userSpaceOnUse">
<stop stop-color="#9DD29C"/>
<stop offset="1" stop-color="#009D96"/>
</linearGradient>
<linearGradient id="paint2_linear_2002_506" x1="23.9398" y1="2.39007" x2="10.5196" y2="34.39" gradientUnits="userSpaceOnUse">
<stop stop-color="#9DD29C"/>
<stop offset="1" stop-color="#009D96"/>
</linearGradient>
<linearGradient id="paint3_linear_2002_506" x1="25.4798" y1="3.04014" x2="12.0596" y2="35.0401" gradientUnits="userSpaceOnUse">
<stop stop-color="#9DD29C"/>
<stop offset="1" stop-color="#009D96"/>
</linearGradient>
<linearGradient id="paint4_linear_2002_506" x1="27.1798" y1="3.75035" x2="13.76" y2="35.7498" gradientUnits="userSpaceOnUse">
<stop stop-color="#9DD29C"/>
<stop offset="1" stop-color="#009D96"/>
</linearGradient>
<linearGradient id="paint5_linear_2002_506" x1="44.55" y1="11.0399" x2="31.13" y2="43.0401" gradientUnits="userSpaceOnUse">
<stop stop-color="#9DD29C"/>
<stop offset="1" stop-color="#009D96"/>
</linearGradient>
</defs>
</svg>
