<svg width="30" height="30" viewBox="0 0 30 30" fill="none" xmlns="http://www.w3.org/2000/svg">
<path d="M14.7465 29.4508C22.8907 29.4508 29.4929 22.858 29.4929 14.7254C29.4929 6.59278 22.8907 0 14.7465 0C6.60222 0 0 6.59278 0 14.7254C0 22.858 6.60222 29.4508 14.7465 29.4508Z" fill="#E1C9D3" fill-opacity="0.78"/>
<path d="M12.3003 17.0396L11.9662 20.6016C11.9662 20.6016 11.8274 21.6948 12.9171 20.6016C14.0119 19.5083 15.0553 18.6666 15.0553 18.6666L12.3003 17.0396Z" fill="#CB2425"/>
<path d="M10.0131 15.9723L6.4152 14.8021C6.4152 14.8021 5.98344 14.6275 6.12222 14.2323C6.15306 14.1502 6.2096 14.0835 6.37922 13.9603C7.17591 13.406 21.136 8.39659 21.136 8.39659C21.136 8.39659 21.5317 8.26314 21.763 8.3504C21.871 8.39146 21.9378 8.43765 21.9943 8.60189C22.0149 8.66349 22.0252 8.7918 22.0252 8.92011C22.0252 9.0125 22.0149 9.09976 22.0046 9.2332C21.9172 10.6036 19.373 20.8277 19.373 20.8277C19.373 20.8277 19.2188 21.4282 18.6739 21.4487C18.4735 21.4539 18.2319 21.418 17.9441 21.1665C16.875 20.2477 13.1742 17.7636 12.357 17.2195C12.3107 17.1887 12.2953 17.1476 12.2901 17.1117C12.2799 17.0553 12.3415 16.9834 12.3415 16.9834C12.3415 16.9834 18.7819 11.2657 18.9566 10.6652C18.9721 10.619 18.9207 10.5933 18.8538 10.6139C18.4272 10.773 11.0103 15.4488 10.1879 15.9672C10.1468 15.9928 10.0131 15.9723 10.0131 15.9723Z" fill="#CB2425"/>
</svg>
