<svg width="30" height="30" viewBox="0 0 30 30" fill="none" xmlns="http://www.w3.org/2000/svg">
<path d="M30 15.0004C30 23.2843 23.2843 30 14.9996 30C6.71574 30 0 23.2843 0 15.0004C0 6.71574 6.71952 0 14.9996 0C23.2843 0 30 6.71952 30 15.0004Z" fill="#E1C9D3"/>
<path d="M19.9945 13.8205L19.7307 15.8543C19.7095 16.0183 19.6268 16.1692 19.4979 16.2788C19.3691 16.3884 19.203 16.4491 19.0308 16.4496H15.5993V24.9526C15.2374 24.9837 14.871 24.9995 14.5001 25C13.6872 25.0005 12.8763 24.9236 12.0792 24.7705V16.4496H9.44C9.32323 16.449 9.21143 16.404 9.12901 16.3246C9.04658 16.2452 9.00021 16.1378 9 16.0257V13.4816C9.00021 13.3695 9.04658 13.262 9.12901 13.1826C9.21143 13.1032 9.32323 13.0583 9.44 13.0577H12.0792V9.24041C12.0781 8.68465 12.191 8.13412 12.4115 7.62025C12.632 7.10638 12.9558 6.63923 13.3643 6.24547C13.7729 5.85171 14.2583 5.53906 14.7928 5.32536C15.3272 5.11166 15.9003 5.0011 16.4793 5H19.5585C19.6753 5.00061 19.7871 5.04551 19.8695 5.12491C19.9519 5.20432 19.9983 5.31179 19.9985 5.42389V7.96874C19.9983 8.08084 19.9519 8.18831 19.8695 8.26771C19.7871 8.34712 19.6753 8.39203 19.5585 8.39263H17.3585C17.1269 8.39313 16.8978 8.43741 16.6841 8.52293C16.4703 8.60845 16.2762 8.73354 16.1129 8.89105C15.9495 9.04857 15.8201 9.23543 15.732 9.44097C15.6438 9.6465 15.5988 9.86669 15.5993 10.0889V13.0577H19.2947C19.3948 13.0579 19.4937 13.0786 19.5849 13.1182C19.6761 13.1579 19.7574 13.2157 19.8236 13.2878C19.8897 13.3599 19.9392 13.4447 19.9687 13.5366C19.9981 13.6284 20.007 13.7252 19.9945 13.8205Z" fill="#CB2425"/>
</svg>
