<svg width="29" height="29" viewBox="0 0 29 29" fill="none" xmlns="http://www.w3.org/2000/svg">
<g clip-path="url(#clip0_2221_599)">
<mask id="mask0_2221_599" style="mask-type:luminance" maskUnits="userSpaceOnUse" x="0" y="0" width="29" height="29">
<path d="M29 0H0V29H29V0Z" fill="white"/>
</mask>
<g mask="url(#mask0_2221_599)">
<path d="M14.0473 28.9425C21.8054 28.9425 28.0946 22.5527 28.0946 14.6704C28.0946 6.78823 21.8054 0.398438 14.0473 0.398438C6.28919 0.398438 0 6.78823 0 14.6704C0 22.5527 6.28919 28.9425 14.0473 28.9425Z" fill="#E1C9D3"/>
<path d="M22 13.2879V10.3205C20.6146 10.3205 19.5573 9.94956 18.875 9.22864C18.1748 8.40583 17.7825 7.36384 17.7656 6.28211V6.06792L14.9688 6V18.0526C14.8728 18.5784 14.6183 19.0621 14.2397 19.4383C13.861 19.8144 13.3764 20.065 12.8513 20.1563C12.326 20.2474 11.7857 20.1747 11.303 19.9481C10.8203 19.7214 10.4186 19.3517 10.1521 18.8887C9.88554 18.4258 9.76692 17.892 9.8125 17.3593C9.85796 16.8267 10.0653 16.3208 10.4065 15.9102C10.7476 15.4995 11.2062 15.2036 11.7203 15.0626C12.2344 14.9216 12.7793 14.9422 13.2813 15.1218V12.2483C12.9886 12.2002 12.6925 12.1758 12.3958 12.1752C11.3287 12.1752 10.2855 12.4926 9.39804 13.0873C8.51073 13.6821 7.81914 14.5273 7.41073 15.5164C7.00234 16.5053 6.89548 17.5936 7.10368 18.6435C7.31188 19.6934 7.82578 20.6579 8.5804 21.4147C9.33504 22.1717 10.2964 22.6872 11.3432 22.896C12.3898 23.1049 13.4748 22.9976 14.4608 22.5881C15.4467 22.1784 16.2894 21.4846 16.8823 20.5946C17.4752 19.7045 17.7917 18.6581 17.7917 17.5876C17.7911 17.3658 17.7772 17.1442 17.75 16.9241V12.1438C19.0218 12.9405 20.5015 13.3388 22 13.2879Z" fill="#CB2425"/>
</g>
</g>
<defs>
<clipPath id="clip0_2221_599">
<rect width="29" height="29" fill="white"/>
</clipPath>
</defs>
</svg>
