<svg width="31" height="30" viewBox="0 0 31 30" fill="none" xmlns="http://www.w3.org/2000/svg">
<path d="M31 15.0004C31 23.2843 24.0567 30 15.5 30C6.93942 30 0 23.2843 0 15.0004C0 6.71575 6.94332 0 15.5 0C24.0606 0 31 6.71952 31 15.0004Z" fill="#E1C9D3"/>
<path d="M21.7604 9H9.23961C8.64563 9 8.07598 9.24917 7.65597 9.69268C7.23596 10.1362 7 10.7377 7 11.365V19.635C7 20.2623 7.23596 20.8638 7.65597 21.3073C8.07598 21.7508 8.64563 22 9.23961 22H21.7604C22.0545 22 22.3457 21.9388 22.6174 21.82C22.8892 21.7011 23.1361 21.5269 23.344 21.3073C23.552 21.0877 23.717 20.827 23.8295 20.5401C23.9421 20.2531 24 19.9456 24 19.635V11.365C24 11.0544 23.9421 10.7469 23.8295 10.4599C23.717 10.173 23.552 9.91229 23.344 9.69268C23.1361 9.47308 22.8892 9.29887 22.6174 9.18002C22.3457 9.06117 22.0545 9 21.7604 9ZM17.5115 16.071L14.0296 17.9078C13.9374 17.9572 13.8348 17.9809 13.7315 17.9764C13.6282 17.972 13.5278 17.9396 13.4397 17.8824C13.3517 17.8253 13.279 17.7452 13.2287 17.6498C13.1783 17.5545 13.152 17.4472 13.1522 17.338V13.6659C13.1521 13.5567 13.1784 13.4494 13.2288 13.3541C13.2791 13.2588 13.3518 13.1787 13.4398 13.1215C13.5278 13.0642 13.6282 13.0318 13.7315 13.0272C13.8347 13.0226 13.9373 13.046 14.0296 13.0953L17.5115 14.9329C17.6109 14.9863 17.6944 15.0678 17.7527 15.1682C17.811 15.2686 17.8418 15.3841 17.8418 15.5019C17.8418 15.6197 17.811 15.7352 17.7527 15.8357C17.6944 15.9361 17.6109 16.0175 17.5115 16.071Z" fill="#CB2425"/>
</svg>
