<svg width="140" height="134" viewBox="0 0 140 134" fill="none" xmlns="http://www.w3.org/2000/svg">
<path opacity="0.5" d="M42.7514 102.675L17.1035 87.8377L20.616 85.8086C27.3542 81.9195 34.9972 79.8721 42.7772 79.8721C50.5571 79.8721 58.2 81.9195 64.9382 85.8086L68.4558 87.8377L42.7514 102.675Z" fill="#0A1B30"/>
<path opacity="0.5" d="M96.1591 129.353L68.4409 113.351L96.154 97.3497L123.872 113.351L96.1591 129.353Z" fill="#0A1B30"/>
<path d="M42.7515 87.3072L0 62.6275V13.2632L42.7515 37.9479V87.3072Z" fill="#F21F46"/>
<path d="M39.4193 81.5387L3.33203 60.7011V19.0311L39.4193 39.8687V81.5387Z" fill="#132E48"/>
<path d="M39.4193 81.5387L3.33203 60.7011V19.0311L39.4193 39.8687V81.5387Z" fill="#132E48"/>
<path d="M39.4193 81.5387L3.33203 60.7011V19.0311L39.4193 39.8687V81.5387Z" fill="#132E48"/>
<path d="M85.5035 62.6275L42.752 87.3072V37.9479L85.5035 13.2632V62.6275Z" fill="#EA1034"/>
<path d="M82.3205 60.7889L45.9346 81.7964V39.7813L82.3205 18.7738V60.7889Z" fill="#0A1B30"/>
<path d="M42.7518 37.9478L0.00537109 13.2631L5.85589 9.88453C17.074 3.40897 29.7988 0 42.7518 0C55.7047 0 68.4294 3.40897 79.6475 9.88453L85.5033 13.2682L42.7518 37.9478Z" fill="#F86A67"/>
<path d="M42.7518 37.1905L0.659452 12.8868L0.00537109 13.2628L42.7518 37.9424L85.5033 13.2628L84.8493 12.8868L42.7518 37.1905Z" fill="#F99882"/>
<path d="M42.7518 34.5694L5.85596 13.2631C17.074 6.78751 29.7989 3.37854 42.7518 3.37854C55.7048 3.37854 68.4295 6.78751 79.6476 13.2631L42.7518 34.5694Z" fill="#224769"/>
<g opacity="0.5">
<mask id="mask0_1_4274" style="mask-type:luminance" maskUnits="userSpaceOnUse" x="3" y="19" width="37" height="63">
<path d="M39.4259 81.5449L3.3335 60.7073V19.0372L39.4259 39.8698V81.5449Z" fill="white"/>
</mask>
<g mask="url(#mask0_1_4274)">
<path d="M41.5675 39.8592V39.5038L40.826 39.0764V38.2214L40.5169 38.0412V38.9012L33.1213 34.6266V33.7614L32.8123 33.5811V34.4412L25.4114 30.1666V29.3117L25.1076 29.1314V29.9914L17.7068 25.7168V24.8619L17.3978 24.6817V25.5417L9.99699 21.2671V20.4122L9.69321 20.237V21.0919L2.29235 16.8174V15.9624L1.98329 15.7874V16.6422L1.2417 16.2147V16.565L1.98329 16.9976V25.5417L1.2417 25.1142V25.4644L1.98329 25.8971V34.4412L1.2417 34.0086V34.3639L1.98329 34.7914V43.3408L1.2417 42.9081V43.2634L1.98329 43.6909V52.2351L1.2417 51.8076V52.1629L1.98329 52.5904V61.1345L1.2417 60.7071V61.0624L1.98329 61.4899V62.3448L2.29235 62.5251V61.665L9.69321 65.9396V66.7945L9.99699 66.9748V66.1148L17.3978 70.3895V71.2443L17.7068 71.4245V70.5645L25.1076 74.8391V75.694L25.4114 75.8743V75.0143L32.8123 79.2888V80.1438L33.1213 80.3189V79.464L40.5169 83.7386V84.5935L40.826 84.7687V83.9137L41.5675 84.3412V83.991L40.826 83.5583V75.0143L41.5675 75.4417V75.0915L40.826 74.6588V66.1148L41.5675 66.5473V66.192L40.826 65.7645V57.2153L41.5675 57.6478V57.2925L40.826 56.8651V48.3209L41.5675 48.7484V48.393L40.826 47.9656V39.4266L41.5675 39.8592ZM32.8123 34.8017V43.3511L25.4114 39.0764V30.5322L32.8123 34.8017ZM17.7068 43.5261V34.982L25.1076 39.2514V47.8008L17.7068 43.5261ZM25.1076 48.1612V56.7054L17.7068 52.4359V43.8917L25.1076 48.1612ZM17.3824 43.3612L9.98152 39.0867V30.5425L17.3824 34.812V43.3612ZM17.3824 43.7116V52.2556L9.98152 47.9862V39.4266L17.3824 43.7116ZM17.3824 52.6111V61.1551L9.98152 56.8856V48.3415L17.3824 52.6111ZM17.6913 52.7861L25.0922 57.0607V65.6049L17.6913 61.3354V52.7861ZM25.4166 57.2359L32.8174 61.5104V70.0546L25.4166 65.7851V57.2359ZM25.4166 56.8856V48.3415L32.8174 52.6111V61.1551L25.4166 56.8856ZM25.4166 47.9862V39.4266L32.8174 43.6961V52.2401L25.4166 47.9862ZM25.1128 30.3674V38.9116L17.7119 34.6369V26.0928L25.1128 30.3674ZM17.3875 25.9177V34.4619L9.98668 30.1872V21.643L17.3875 25.9177ZM2.28204 17.1933L9.6829 21.4679V30.0121L2.28204 25.7374V17.1933ZM2.28204 26.0928L9.6829 30.3622V38.9116L2.28204 34.6369V26.0928ZM2.28204 34.9922L9.6829 39.2617V47.8059L2.28204 43.5364V34.9922ZM2.28204 43.8917L9.6829 48.1612V56.7054L2.28204 52.4359V43.8917ZM2.28204 61.3354V52.7861L9.6829 57.0607V65.6049L2.28204 61.3354ZM10.0073 65.7851V57.2359L17.4081 61.5104V70.0546L10.0073 65.7851ZM17.7325 70.2298V61.6856L25.1334 65.9603V74.5044L17.7325 70.2298ZM25.4578 74.6795V66.1354L32.8587 70.4099V78.9541L25.4578 74.6795ZM40.5633 83.4038L33.1676 79.1293V70.5851L40.5633 74.8598V83.4038ZM40.5633 74.5044L33.1676 70.2349V61.6856L40.5633 65.9603V74.5044ZM40.5633 65.6049L33.1676 61.3354V52.7912L40.5633 57.0607V65.6049ZM40.5633 56.7054L33.1676 52.4359V43.8917L40.5633 48.1612V56.7054ZM40.5633 47.8111L33.1676 43.5364V34.9922L40.5633 39.2617V47.8111Z" fill="url(#paint0_linear_1_4274)"/>
</g>
</g>
<g opacity="0.3">
<mask id="mask1_1_4274" style="mask-type:luminance" maskUnits="userSpaceOnUse" x="5" y="3" width="75" height="32">
<path d="M42.7513 34.5694L5.85547 13.2631C17.0736 6.78751 29.7984 3.37854 42.7513 3.37854C55.7043 3.37854 68.429 6.78751 79.6471 13.2631L42.7513 34.5694Z" fill="white"/>
</mask>
<g mask="url(#mask1_1_4274)">
<path d="M1.86423 14.5249L1.54492 14.3395L43.5239 -9.89722L43.8432 -9.71181L1.86423 14.5249Z" fill="url(#paint1_linear_1_4274)"/>
<path d="M9.88816 19.1554L9.56885 18.97L51.5479 -5.26672L51.8672 -5.08132L9.88816 19.1554Z" fill="url(#paint2_linear_1_4274)"/>
<path d="M17.9126 23.7905L17.5933 23.6051L59.5723 -0.631592L59.8916 -0.446185L17.9126 23.7905Z" fill="url(#paint3_linear_1_4274)"/>
<path d="M25.9365 28.4204L25.6172 28.235L67.5962 3.99829L67.9155 4.1837L25.9365 28.4204Z" fill="url(#paint4_linear_1_4274)"/>
<path d="M33.9551 33.0505L33.6357 32.8702L75.6147 8.63354L75.9341 8.8138L33.9551 33.0505Z" fill="url(#paint5_linear_1_4274)"/>
<path d="M41.9785 37.6855L41.6592 37.5001L83.6382 13.2634L83.9575 13.4488L41.9785 37.6855Z" fill="url(#paint6_linear_1_4274)"/>
<path d="M41.6592 -9.71169L41.9785 -9.89709L83.9575 14.3396L83.6382 14.525L41.6592 -9.71169Z" fill="url(#paint7_linear_1_4274)"/>
<path d="M33.6357 -5.08132L33.9551 -5.26672L75.9341 18.97L75.6147 19.1554L33.6357 -5.08132Z" fill="url(#paint8_linear_1_4274)"/>
<path d="M25.6172 -0.446185L25.9313 -0.631592L67.9155 23.6051L67.5962 23.7905L25.6172 -0.446185Z" fill="url(#paint9_linear_1_4274)"/>
<path d="M17.5933 4.1837L17.9126 3.99829L59.8916 28.235L59.5723 28.4204L17.5933 4.1837Z" fill="url(#paint10_linear_1_4274)"/>
<path d="M9.56885 8.8138L9.88816 8.63354L51.8672 32.8702L51.5479 33.0505L9.56885 8.8138Z" fill="url(#paint11_linear_1_4274)"/>
<path d="M1.54492 13.4488L1.86423 13.2634L43.8432 37.5001L43.5239 37.6855L1.54492 13.4488Z" fill="url(#paint12_linear_1_4274)"/>
</g>
</g>
<path d="M42.4268 37.5823V87.1166L42.7512 87.3072L43.0499 87.1372V37.5823H42.4268Z" fill="#F99882"/>
<path d="M96.4835 119.918L53.7319 95.2383V45.8739L96.4835 70.5587V119.918Z" fill="#F21F46"/>
<path d="M93.1512 114.149L57.064 93.317V51.6418L93.1512 72.4794V114.149Z" fill="#132E48"/>
<path d="M93.1512 114.149L57.064 93.317V51.6418L93.1512 72.4794V114.149Z" fill="#132E48"/>
<path d="M93.1512 114.149L57.064 93.317V51.6418L93.1512 72.4794V114.149Z" fill="#132E48"/>
<path d="M139.234 95.2383L96.4829 119.918V70.5587L139.234 45.8739V95.2383Z" fill="#EA1034"/>
<path d="M136.052 93.3996L99.666 114.407V72.3921L136.052 51.3845V93.3996Z" fill="#0A1B30"/>
<path d="M96.4835 70.5587L53.7319 45.8739L96.4835 21.1943L139.235 45.8739L96.4835 70.5587Z" fill="#F86A67"/>
<path d="M96.4835 69.8017L54.3912 45.498L53.7319 45.874L96.4835 70.5588L139.235 45.874L138.576 45.498L96.4835 69.8017Z" fill="#F99882"/>
<path d="M96.4832 67.1751L59.5874 45.874L96.4832 24.5729L133.379 45.874L96.4832 67.1751Z" fill="#224769"/>
<g opacity="0.5">
<mask id="mask2_1_4274" style="mask-type:luminance" maskUnits="userSpaceOnUse" x="57" y="51" width="37" height="64">
<path d="M93.1511 114.156L57.064 93.3179V51.6479L93.1511 72.4804V114.156Z" fill="white"/>
</mask>
<g mask="url(#mask2_1_4274)">
<path d="M95.299 72.47V72.1146L94.5573 71.6871V70.8426L94.2483 70.6622V71.5224L86.8475 67.2477V66.3929L86.5437 66.2126V67.0726L79.1429 62.7979V61.943L78.8339 61.7679V62.6229L71.4382 58.3482V57.4934L71.1292 57.3182V58.1731L63.7284 53.8986V53.0435L63.4245 52.8685V53.7234L56.0238 49.4487V48.5939L55.7147 48.4187V49.2737L54.9731 48.8462V49.2015L55.7147 49.629V58.1731L54.9731 57.7457V58.0959L55.7147 58.5285V67.0726L54.9731 66.6452V66.9954L55.7147 67.4281V75.9721L54.9731 75.5396V75.8949L55.7147 76.3223V84.8665L54.9731 84.4389V84.7944L55.7147 85.2218V93.766L54.9731 93.3385V93.6939L55.7147 94.1213V94.9763L56.0238 95.1565V94.2964L63.4245 98.5711V99.426L63.7284 99.6063V98.7461L71.1292 103.021V103.876L71.4382 104.056V103.196L78.8339 107.471V108.325L79.1429 108.506V107.646L86.5437 111.92V112.775L86.8475 112.955V112.095L94.2483 116.37V117.225L94.5573 117.405V116.545L95.299 116.973V116.622L94.5573 116.19V107.646L95.299 108.078V107.723L94.5573 107.295V98.7461L95.299 99.1788V98.8235L94.5573 98.396V89.8518L95.299 90.2793V89.924L94.5573 89.4964V80.9523L95.299 81.3798V81.0244L94.5573 80.5969V72.0529L95.299 72.47ZM86.5437 67.4177V75.9618L79.1429 71.6871V63.1431L86.5437 67.4177ZM71.4382 76.1369V67.5928L78.8339 71.8674V80.4116L71.4382 76.1369ZM78.8339 80.7721V89.3163L71.4382 85.0468V76.5077L78.8339 80.7721ZM71.1087 75.9721L63.7078 71.6974V63.1534L71.1087 67.4281V75.9721ZM71.1087 76.3223V84.8716L63.7078 80.5969V72.0529L71.1087 76.3223ZM71.1087 85.2218V93.766L63.7078 89.4964V80.9523L71.1087 85.2218ZM71.4176 85.4021L78.8133 89.6716V98.2156L71.4176 93.9463V85.4021ZM79.1429 89.8518L86.5437 94.1213V102.665L79.1429 98.396V89.8518ZM79.1429 89.4964V80.9523L86.5437 85.2218V93.766L79.1429 89.4964ZM79.1429 80.5969V72.0529L86.5437 76.3223V84.8716L79.1429 80.5969ZM78.8339 62.9782V71.5224L71.4382 67.2477V58.7036L78.8339 62.9782ZM71.1087 58.5285V67.0726L63.7078 62.7979V54.2539L71.1087 58.5285ZM56.0032 49.8041L63.4039 54.0787V62.6023L56.0032 58.3276V49.8041ZM56.0032 58.7036L63.4039 62.9782V71.5224L56.0032 67.2477V58.7036ZM56.0032 67.6031L63.4039 71.8726V80.4219L56.0032 76.1473V67.6031ZM56.0032 76.5026L63.4039 80.7721V89.3163L56.0032 85.0468V76.5026ZM56.0032 93.9463V85.4021L63.4039 89.6716V98.2156L56.0032 93.9463ZM63.7284 98.396V89.8466L71.1292 94.1213V102.665L63.7284 98.396ZM71.4537 102.846V94.2964L78.8493 98.5711V107.115L71.4537 102.846ZM79.1789 107.295V98.7461L86.5797 103.021V111.565L79.1789 107.295ZM94.2844 116.015L86.8836 111.74V103.196L94.2844 107.471V116.015ZM94.2844 107.115L86.8836 102.846V94.3016L94.2844 98.5711V107.115ZM94.2844 98.2156L86.8836 93.9463V85.4021L94.2844 89.6716V98.2156ZM94.2844 89.3213L86.8836 85.0468V76.5077L94.2844 80.7772V89.3213ZM94.2844 80.4219L86.8836 76.1473V67.6031L94.2844 71.8777V80.4219Z" fill="url(#paint13_linear_1_4274)"/>
</g>
</g>
<g opacity="0.5">
<mask id="mask3_1_4274" style="mask-type:luminance" maskUnits="userSpaceOnUse" x="99" y="51" width="38" height="64">
<path d="M99.666 114.412L136.052 93.4044V51.3842L99.666 72.3969V114.412Z" fill="white"/>
</mask>
<g mask="url(#mask3_1_4274)">
<path d="M98.2492 71.9541V80.5652L97.5024 80.9979V81.3583L98.2492 80.9258V89.5369L97.5024 89.9694V90.33L98.2492 89.8974V98.5136L97.5024 98.9411V99.3016L98.2492 98.8689V107.485L97.5024 107.918V108.273L98.2492 107.841V116.457L97.5024 116.889V117.245L98.2492 116.812V117.677L98.5581 117.497V116.632L106.021 112.326V113.192L106.33 113.011V112.146L113.792 107.841V108.706L114.101 108.525V107.66L121.564 103.355V104.22L121.873 104.04V103.175L129.33 98.8689V99.7342L129.639 99.5539V98.6887L137.102 94.3831V95.2432L137.411 95.0682V94.203L138.163 93.7703V93.415L137.411 93.8475V85.2313L138.163 84.7988V84.4433L137.411 84.876V76.2597L138.163 75.8271V75.4717L137.411 75.9044V67.2882L138.163 66.8555V66.5002L137.411 66.9276V58.3165L138.163 57.884V57.5234L137.411 57.956V49.3449L138.163 48.9123V48.5518L137.411 48.9845V48.1191L137.102 48.2994V49.1646L129.639 53.4702V52.6102L129.33 52.7852V53.6505L121.873 57.956V57.096L121.564 57.271V58.1363L114.101 62.4418V61.5714L113.792 61.7466V62.6118L106.33 66.9224V66.0572L106.021 66.2324V67.0976L98.5581 71.4083V70.543L98.2492 70.7181V71.5833L97.5024 72.016V72.3713L98.2492 71.9541ZM113.792 62.9774V71.5936L106.33 75.9044V67.2882L113.792 62.9774ZM114.101 80.3902V71.774L121.564 67.4632V76.0794L114.101 80.3902ZM121.564 76.44V85.0511L114.101 89.3617V80.7455L121.564 76.44ZM121.873 67.2882L129.33 62.9774V71.5936L121.873 75.9044V67.2882ZM129.33 71.949V80.5652L121.873 84.876V76.2597L129.33 71.949ZM129.33 80.9207V89.5369L121.873 93.8475V85.2313L129.33 80.9207ZM121.564 94.0227L114.101 98.3333V89.7171L121.564 85.4116V94.0227ZM113.792 98.5084L106.33 102.819V94.203L113.792 89.8974V98.5084ZM106.33 93.8733V85.2571L113.792 80.9515V89.5627L106.33 93.8733ZM106.33 84.9017V76.2855L113.792 71.9748V80.591L106.33 84.9017ZM121.564 58.5174V67.1336L114.101 71.4443V62.8281L121.564 58.5174ZM129.33 54.0316V62.6015L121.873 66.9122V58.2959L129.33 54.0316ZM137.102 58.1518L129.639 62.4573V53.8462L137.102 49.5354V58.1518ZM137.102 67.1233L129.639 71.434V62.8177L137.102 58.4813V67.1233ZM137.102 76.0949L129.639 80.4056V71.7894L137.102 67.4787V76.0949ZM137.102 85.0666L129.639 89.3772V80.761L137.102 76.4502V85.0666ZM129.639 98.3488V89.7325L137.102 85.4271V94.0175L129.639 98.3488ZM121.873 102.835V94.2183L129.33 89.9128V98.5239L121.873 102.835ZM114.101 107.32V98.7042L121.564 94.3986V103.015L114.101 107.32ZM106.33 111.806V103.19L113.792 98.8844V107.501L106.33 111.806ZM98.5581 107.686L106.021 103.38V111.997L98.5581 116.302V107.686ZM98.5581 98.7145L106.021 94.4089V103.025L98.5581 107.331V98.7145ZM98.5581 89.7428L106.021 85.4374V94.0175L98.5581 98.3283V89.7428ZM98.5581 80.7713L106.021 76.4657V85.0768L98.5581 89.3875V80.7713ZM98.5581 71.7997L106.021 67.489V76.1052L98.5581 80.416V71.7997Z" fill="url(#paint14_linear_1_4274)"/>
</g>
</g>
<g opacity="0.3">
<mask id="mask4_1_4274" style="mask-type:luminance" maskUnits="userSpaceOnUse" x="59" y="24" width="75" height="44">
<path d="M96.4832 67.1802L59.5874 45.8792L96.4832 24.5729L133.379 45.8792L96.4832 67.1802Z" fill="white"/>
</mask>
<g mask="url(#mask4_1_4274)">
<path d="M55.5962 46.5078L55.2769 46.3224L97.2559 22.0857L97.5752 22.2711L55.5962 46.5078Z" fill="url(#paint15_linear_1_4274)"/>
<path d="M63.6201 51.1378L63.3008 50.9524L105.28 26.7157L105.599 26.9011L63.6201 51.1378Z" fill="url(#paint16_linear_1_4274)"/>
<path d="M71.644 55.7679L71.3247 55.5876L113.304 31.351L113.618 31.5312L71.644 55.7679Z" fill="url(#paint17_linear_1_4274)"/>
<path d="M79.6626 60.4029L79.3433 60.2175L121.322 35.9808L121.642 36.1662L79.6626 60.4029Z" fill="url(#paint18_linear_1_4274)"/>
<path d="M87.6865 65.0329L87.3672 64.8475L129.346 40.616L129.666 40.7962L87.6865 65.0329Z" fill="url(#paint19_linear_1_4274)"/>
<path d="M95.7109 69.668L95.3916 69.4825L137.371 45.2458L137.69 45.4313L95.7109 69.668Z" fill="url(#paint20_linear_1_4274)"/>
<path d="M95.3916 22.2712L95.7109 22.0858L137.69 46.3225L137.371 46.5079L95.3916 22.2712Z" fill="url(#paint21_linear_1_4274)"/>
<path d="M87.3672 26.9011L87.6865 26.7157L129.666 50.9524L129.346 51.1378L87.3672 26.9011Z" fill="url(#paint22_linear_1_4274)"/>
<path d="M79.3433 31.5312L79.6626 31.351L121.647 55.5876L121.322 55.7679L79.3433 31.5312Z" fill="url(#paint23_linear_1_4274)"/>
<path d="M71.3247 36.1662L71.6389 35.9808L113.623 60.2175L113.304 60.4029L71.3247 36.1662Z" fill="url(#paint24_linear_1_4274)"/>
<path d="M63.3008 40.7965L63.6201 40.6111L105.599 64.8478L105.28 65.0332L63.3008 40.7965Z" fill="url(#paint25_linear_1_4274)"/>
<path d="M55.2769 45.4261L55.5962 45.2458L97.5752 69.4825L97.2559 69.668L55.2769 45.4261Z" fill="url(#paint26_linear_1_4274)"/>
</g>
</g>
<g opacity="0.5">
<path d="M70.5887 70.1673C70.3814 70.1593 70.1793 70.0992 70.0015 69.9923C69.6541 69.7687 69.3656 69.4648 69.1603 69.1062C68.9551 68.7477 68.839 68.345 68.8221 67.9322C68.8059 67.7615 68.8362 67.5894 68.9096 67.4344C68.983 67.2794 69.0969 67.1471 69.2393 67.0514C69.3928 66.9763 69.5636 66.9439 69.734 66.9575C69.9043 66.9711 70.068 67.0302 70.2076 67.1287C70.556 67.3517 70.8455 67.6553 71.0517 68.0139C71.2579 68.3725 71.3746 68.7755 71.392 69.1888C71.4073 69.3587 71.3767 69.5296 71.3033 69.6836C71.2299 69.8376 71.1165 69.9691 70.975 70.0643C70.8575 70.1319 70.7243 70.1674 70.5887 70.1673ZM69.6256 67.3811C69.5631 67.3806 69.5013 67.3948 69.4453 67.4223C69.3695 67.4834 69.3104 67.5626 69.2735 67.6527C69.2366 67.7427 69.223 67.8407 69.2342 67.9374C69.2556 68.2748 69.3547 68.6027 69.5235 68.8957C69.6923 69.1887 69.9264 69.4387 70.2076 69.6265C70.2871 69.6836 70.3791 69.7204 70.4761 69.7339C70.573 69.7473 70.6717 69.7371 70.7637 69.7038C70.8392 69.6425 70.898 69.5632 70.9349 69.4732C70.9717 69.3833 70.9856 69.2855 70.975 69.1888C70.9551 68.851 70.8567 68.5224 70.6878 68.2292C70.5188 67.936 70.2838 67.6862 70.0015 67.4995C69.8912 67.4307 69.7656 67.39 69.6359 67.3811H69.6256Z" fill="url(#paint27_linear_1_4274)"/>
<path d="M81.481 80.0606C81.2731 80.0557 81.0705 79.9953 80.8939 79.8856C80.5455 79.6626 80.2559 79.3588 80.0497 79.0002C79.8435 78.6417 79.7268 78.2388 79.7093 77.8255C79.6941 77.655 79.7253 77.4836 79.7996 77.3295C79.874 77.1753 79.9887 77.0442 80.1316 76.95C80.2848 76.8738 80.4559 76.8406 80.6265 76.8542C80.797 76.8678 80.9607 76.9276 81.0999 77.0272C81.4482 77.2502 81.7377 77.5538 81.9439 77.9124C82.1501 78.271 82.2669 78.674 82.2844 79.0873C82.2995 79.2584 82.2682 79.4305 82.1939 79.5854C82.1196 79.7404 82.005 79.8725 81.8621 79.9679C81.7455 80.032 81.614 80.0639 81.481 80.0606ZM80.5128 77.2744C80.4512 77.2732 80.3905 77.2893 80.3376 77.3208C80.2615 77.3815 80.2021 77.4606 80.1651 77.5508C80.1282 77.6409 80.1149 77.7391 80.1265 77.8358C80.1476 78.1733 80.2464 78.5014 80.4152 78.7944C80.5841 79.0875 80.8184 79.3376 81.0999 79.5251C81.1781 79.5847 81.2704 79.6231 81.3678 79.6366C81.4652 79.6501 81.5646 79.6383 81.6561 79.6023C81.7319 79.5412 81.7909 79.462 81.8279 79.3719C81.8648 79.2819 81.8783 79.1839 81.8672 79.0873C81.845 78.75 81.7456 78.4223 81.5769 78.1294C81.4081 77.8365 81.1745 77.5863 80.8939 77.398C80.7807 77.3263 80.6514 77.2838 80.5178 77.2744H80.5128Z" fill="url(#paint28_linear_1_4274)"/>
<path d="M87.9909 81.0704C87.7852 81.0622 87.585 81.0019 87.409 80.8952C87.0606 80.6722 86.7711 80.3686 86.5649 80.01C86.3587 79.6514 86.2419 79.2484 86.2244 78.8351C86.2094 78.6645 86.2401 78.4929 86.3135 78.3381C86.3868 78.1833 86.5001 78.0509 86.6416 77.9545C86.796 77.8794 86.9676 77.847 87.1388 77.8606C87.3099 77.8741 87.4743 77.9332 87.615 78.0317C87.9633 78.2547 88.253 78.5583 88.4591 78.9169C88.6653 79.2755 88.782 79.6785 88.7995 80.0918C88.8147 80.2622 88.7836 80.4336 88.7092 80.5878C88.6349 80.7419 88.5201 80.8731 88.3772 80.9673C88.2597 81.0349 88.1265 81.0705 87.9909 81.0704ZM87.0279 78.284C86.9671 78.2836 86.907 78.2978 86.8527 78.3253C86.777 78.3863 86.7179 78.4656 86.681 78.5556C86.6441 78.6457 86.6305 78.7436 86.6416 78.8403C86.6627 79.1778 86.7615 79.5059 86.9303 79.7989C87.0992 80.092 87.3335 80.3421 87.615 80.5296C87.6941 80.5875 87.7867 80.6245 87.8839 80.6371C87.9811 80.6497 88.0799 80.6374 88.1712 80.6016C88.2478 80.5412 88.3074 80.4621 88.3444 80.3719C88.3813 80.2817 88.3944 80.1834 88.3823 80.0866C88.3613 79.7491 88.2625 79.421 88.0936 79.128C87.9248 78.8349 87.6905 78.5848 87.409 78.3973C87.2934 78.3284 87.1624 78.2895 87.0279 78.284Z" fill="url(#paint29_linear_1_4274)"/>
</g>
<g opacity="0.3">
<path d="M122.378 70.1672C122.244 70.1679 122.113 70.1323 121.997 70.0642C121.854 69.97 121.74 69.8389 121.665 69.6847C121.591 69.5306 121.56 69.3592 121.575 69.1887C121.593 68.7754 121.709 68.3724 121.915 68.0138C122.122 67.6552 122.411 67.3516 122.759 67.1286C122.899 67.0301 123.063 66.971 123.233 66.9574C123.403 66.9438 123.574 66.9762 123.728 67.0513C123.871 67.1467 123.985 67.2788 124.06 67.4338C124.134 67.5887 124.165 67.7609 124.15 67.9321C124.133 68.3454 124.016 68.7482 123.81 69.1068C123.603 69.4654 123.314 69.7692 122.966 69.9921C122.788 70.0997 122.586 70.1599 122.378 70.1672ZM123.347 67.381C123.212 67.388 123.081 67.4287 122.966 67.4994C122.684 67.6869 122.45 67.9369 122.281 68.2299C122.112 68.523 122.013 68.8511 121.992 69.1887C121.981 69.2853 121.995 69.3831 122.032 69.4731C122.069 69.5631 122.128 69.6423 122.203 69.7037C122.295 69.7374 122.394 69.748 122.491 69.7345C122.588 69.721 122.68 69.6839 122.759 69.6264C123.041 69.4386 123.275 69.1886 123.444 68.8956C123.612 68.6026 123.711 68.2747 123.733 67.9372C123.744 67.8405 123.731 67.7426 123.694 67.6526C123.657 67.5625 123.597 67.4833 123.522 67.4222C123.467 67.3947 123.408 67.3805 123.347 67.381Z" fill="url(#paint30_linear_1_4274)"/>
<path d="M111.485 80.0607C111.35 80.0627 111.217 80.029 111.099 79.9629C110.958 79.8665 110.844 79.7341 110.771 79.5793C110.698 79.4245 110.667 79.2529 110.682 79.0823C110.699 78.6695 110.815 78.2668 111.02 77.9083C111.225 77.5497 111.514 77.2458 111.861 77.0222C112.001 76.9222 112.166 76.8622 112.337 76.8485C112.509 76.8349 112.681 76.8683 112.835 76.945C112.976 77.0402 113.09 77.1716 113.163 77.3256C113.236 77.4796 113.267 77.6506 113.252 77.8205C113.235 78.2333 113.119 78.6359 112.914 78.9945C112.709 79.353 112.42 79.657 112.072 79.8806C111.896 79.9908 111.693 80.0528 111.485 80.0607ZM112.448 77.2745C112.315 77.2811 112.186 77.3219 112.072 77.393C111.79 77.5802 111.555 77.8301 111.386 78.1231C111.216 78.4162 111.116 78.7444 111.094 79.0823C111.083 79.1789 111.096 79.2769 111.133 79.3669C111.17 79.457 111.229 79.5362 111.305 79.5973C111.397 79.6333 111.496 79.6451 111.593 79.6316C111.691 79.6181 111.783 79.5797 111.861 79.5201C112.144 79.3337 112.38 79.084 112.55 78.7908C112.72 78.4976 112.819 78.169 112.84 77.8308C112.852 77.7335 112.838 77.6349 112.8 77.5445C112.762 77.4541 112.701 77.3753 112.624 77.3158C112.57 77.2856 112.51 77.2712 112.448 77.2745Z" fill="url(#paint31_linear_1_4274)"/>
<path d="M104.976 81.07C104.841 81.0701 104.707 81.0345 104.59 80.9669C104.448 80.8717 104.335 80.7402 104.262 80.5862C104.188 80.4322 104.158 80.2613 104.173 80.0914C104.19 79.6786 104.306 79.2759 104.511 78.9174C104.716 78.5588 105.005 78.2549 105.352 78.0313C105.493 77.9329 105.657 77.8738 105.828 77.8602C105.999 77.8466 106.171 77.8791 106.325 77.9541C106.467 78.0506 106.58 78.1829 106.654 78.3377C106.727 78.4925 106.758 78.6641 106.743 78.8348C106.726 79.2476 106.61 79.6502 106.404 80.0088C106.199 80.3673 105.911 80.6713 105.563 80.8948C105.385 81.0018 105.184 81.062 104.976 81.07ZM105.939 78.2837C105.806 78.2909 105.677 78.3316 105.563 78.4021C105.28 78.5885 105.045 78.8382 104.875 79.1314C104.705 79.4246 104.606 79.7532 104.585 80.0914C104.574 80.1886 104.588 80.287 104.626 80.3772C104.664 80.4674 104.724 80.5462 104.801 80.6064C104.891 80.6423 104.99 80.6545 105.086 80.6419C105.182 80.6292 105.274 80.5923 105.352 80.5344C105.634 80.3471 105.869 80.0972 106.039 79.8042C106.209 79.5112 106.309 79.183 106.331 78.8451C106.342 78.7484 106.328 78.6505 106.291 78.5604C106.254 78.4704 106.195 78.3911 106.12 78.3301C106.064 78.3007 106.002 78.2848 105.939 78.2837Z" fill="url(#paint32_linear_1_4274)"/>
</g>
<path d="M96.1538 70.193V119.727L96.4834 119.918L96.7821 119.748V70.193H96.1538Z" fill="#F99882"/>
<path d="M90.4942 111.122L80.5132 105.354V66.8922L90.4942 72.6552V111.122Z" fill="#0A1B30"/>
<mask id="mask5_1_4274" style="mask-type:luminance" maskUnits="userSpaceOnUse" x="38" y="67" width="53" height="67">
<path d="M81.5434 67.4893L90.4943 72.66V111.121L48.8192 133.803L38.5034 125.552L42.4278 84.6239L81.5434 67.4893Z" fill="white"/>
</mask>
<g mask="url(#mask5_1_4274)">
<path d="M65.8293 102.062C64.552 94.3932 57.4859 92.0292 50.8216 89.1503C50.4747 89.9654 50.2876 90.8396 50.2705 91.7254V121.869C50.2705 123.105 50.7083 123.929 51.3779 124.264L55.8533 126.839L55.1889 122.925L64.8094 117.373C66.6171 112.702 66.8954 107.408 65.8293 102.062Z" fill="#F21F46"/>
<path d="M98.9454 65.8719L94.4185 63.2659C94.1196 63.1176 93.7863 63.0527 93.4536 63.0781C93.121 63.1035 92.8013 63.2182 92.5283 63.4101L53.2017 86.1171C52.1101 86.8446 51.277 87.8995 50.8223 89.13C57.4866 92.0089 64.5527 94.3729 65.8299 102.041C66.896 107.362 66.6179 112.682 64.7999 117.374L92.5335 101.362C94.1506 100.429 95.4639 97.9213 95.4639 95.7685V67.1336L96.1953 68.0504L98.9454 65.8719Z" fill="#F86A67"/>
<path d="M50.312 91.2001L63.1874 98.6266V92.4464L52.7944 86.4465C51.3866 87.653 50.4975 89.3554 50.312 91.2001Z" fill="#FB8282"/>
<path d="M97.0187 103.968L57.687 126.675C56.0698 127.607 54.7617 126.618 54.7617 124.46V94.3162C54.7617 92.1634 56.0698 89.6809 57.687 88.723L97.0187 66.0159C98.6359 65.0837 99.9441 66.0726 99.9441 68.2305V98.3744C99.9441 100.527 98.6359 103.035 97.0187 103.968Z" fill="#EA1034"/>
<path d="M97.0187 103.968L57.687 126.675C56.0698 127.607 54.7617 126.618 54.7617 124.46V94.3162C54.7617 92.1634 56.0698 89.6809 57.687 88.723L97.0187 66.0159C98.6359 65.0837 99.9441 66.0726 99.9441 68.2305V98.3744C99.9441 100.527 98.6359 103.035 97.0187 103.968Z" fill="#EA1034"/>
<path d="M54.7616 124.46V94.3162C54.7616 92.1634 56.0697 89.681 57.6868 88.7231L97.0186 66.0159C97.4753 65.7194 98.0308 65.6158 98.5637 65.7276C98.2741 65.6173 97.9621 65.5789 97.6545 65.6157C97.3468 65.6525 97.0526 65.7633 96.7972 65.9387L57.4654 88.6459C55.8483 89.5781 54.54 92.081 54.54 94.2389V124.403C54.54 125.794 55.0912 126.69 55.9152 126.906C55.2148 126.577 54.7616 125.727 54.7616 124.46Z" fill="#F99882"/>
<path d="M95.268 100.934L59.4383 121.623C58.8254 121.978 58.3311 121.623 58.3311 120.788V93.8735C58.3368 93.4579 58.44 93.0494 58.6323 92.6809C58.8246 92.3124 59.1006 91.9942 59.4383 91.7517L95.268 71.0634C95.8809 70.7132 96.3804 71.0892 96.3804 71.9029V98.8177C96.3741 99.2331 96.2702 99.6411 96.0769 100.009C95.8837 100.377 95.6065 100.694 95.268 100.934Z" fill="#0A1B30"/>
<path d="M95.9631 70.9961C96.1548 71.2181 96.251 71.5069 96.2308 71.7996V98.7143C96.2255 99.1293 96.1226 99.5372 95.9302 99.9049C95.7378 100.273 95.4614 100.59 95.1236 100.831L59.2938 121.519C59.1937 121.59 59.077 121.633 58.9551 121.645C58.8332 121.657 58.7104 121.636 58.5986 121.586C58.712 121.69 58.8583 121.75 59.0118 121.757C59.1653 121.763 59.3162 121.716 59.438 121.622L95.2678 100.934C95.6063 100.693 95.8834 100.376 96.0767 100.008C96.2699 99.6407 96.3739 99.2327 96.3802 98.8173V71.9025C96.4012 71.7276 96.3735 71.5503 96.2999 71.3903C96.2262 71.2303 96.1097 71.0939 95.9631 70.9961Z" fill="#F99882"/>
<path d="M58.5004 120.891V93.9764C58.507 93.5617 58.6106 93.1543 58.8028 92.7867C58.9951 92.4191 59.2708 92.1017 59.6078 91.8598L95.4427 71.1715C95.5361 71.1085 95.6424 71.0674 95.7539 71.0514C95.8654 71.0353 95.9791 71.0447 96.0865 71.0788C95.9692 70.9882 95.8251 70.939 95.677 70.939C95.5288 70.939 95.3848 70.9882 95.2676 71.0788L59.4378 91.767C59.1001 92.0094 58.8241 92.3278 58.6318 92.6963C58.4395 93.0648 58.3363 93.4733 58.3306 93.8889V120.799C58.3042 120.983 58.3344 121.17 58.4172 121.337C58.5 121.503 58.6314 121.641 58.794 121.731C58.6884 121.62 58.6076 121.487 58.557 121.343C58.5064 121.198 58.4871 121.044 58.5004 120.891Z" fill="#ABCCE4"/>
<path d="M69.9342 100.631C69.9342 103.278 68.075 106.497 65.778 107.841C63.481 109.185 61.627 108.093 61.627 105.446C61.627 102.799 63.4862 99.5798 65.778 98.2356C68.0698 96.8914 69.9342 97.9833 69.9342 100.631Z" fill="#F7C55B"/>
<path d="M80.2916 98.0847C81.9128 95.2765 81.9131 92.2415 80.2923 91.3057C78.6715 90.3699 76.0432 91.8877 74.4219 94.6958C72.8006 97.504 72.8003 100.539 74.4212 101.475C76.042 102.411 78.6703 100.893 80.2916 98.0847Z" fill="#F7C55B"/>
<path d="M93.079 87.2659C93.079 89.9131 91.2197 93.132 88.9279 94.4762C86.6361 95.8203 84.7769 94.7286 84.7769 92.0814C84.7769 89.4342 86.6361 86.2153 88.9279 84.8711C91.2197 83.5269 93.079 84.6187 93.079 87.2659Z" fill="#F7C55B"/>
<path d="M61.8638 105.543C61.8638 102.896 63.7231 99.6774 66.0201 98.3332C67.0501 97.7255 68.0132 97.6278 68.7445 97.9419C67.9926 97.4887 66.942 97.5401 65.778 98.2148C63.4862 99.5384 61.627 102.757 61.627 105.425C61.627 106.867 62.178 107.835 63.0536 108.211C62.3171 107.768 61.8638 106.852 61.8638 105.543Z" fill="#FAEE85"/>
<path d="M73.4408 98.8583C73.4408 96.2112 75.3 92.9923 77.5918 91.6481C78.6219 91.0455 79.5901 90.9425 80.3215 91.2567C79.5644 90.8035 78.5137 90.855 77.355 91.5297C75.058 92.8533 73.1987 96.0721 73.1987 98.7399C73.1987 100.182 73.755 101.15 74.6253 101.526C73.894 101.083 73.4408 100.166 73.4408 98.8583Z" fill="#FAEE85"/>
<path d="M85.0139 92.1739C85.0139 89.5267 86.873 86.3078 89.1648 84.9636C90.1948 84.3611 91.1631 84.2581 91.8944 84.5722C91.1425 84.119 90.0919 84.1757 88.9279 84.8452C86.6361 86.1688 84.7769 89.3876 84.7769 92.0554C84.7769 93.4975 85.3279 94.4658 86.1983 94.8417C85.467 94.404 85.0139 93.5026 85.0139 92.1739Z" fill="#FAEE85"/>
</g>
<path opacity="0.6" d="M82.0786 69.4617L86.4305 71.9287V76.1673L90.494 73.8188V72.6548L83.5207 68.6326L82.0786 69.4617Z" fill="#A40020"/>
<path opacity="0.6" d="M86.5435 105.976V110.014L90.4936 107.732V103.504L86.5435 105.786V105.976Z" fill="#A40020"/>
<path d="M46.0523 39.838L82.3198 18.9026V18.7738L45.9287 39.7813V81.7964L46.0523 81.7295V39.838Z" fill="#ABCCE4"/>
<path d="M99.7845 72.4487L136.052 51.5133V51.3845L99.666 72.3921V114.407L99.7845 114.34V72.4487Z" fill="#ABCCE4"/>
<defs>
<linearGradient id="paint0_linear_1_4274" x1="9.56953" y1="65.3165" x2="34.5221" y2="33.6378" gradientUnits="userSpaceOnUse">
<stop stop-color="#123054"/>
<stop offset="1" stop-color="#0A1B30"/>
</linearGradient>
<linearGradient id="paint1_linear_1_4274" x1="1.54492" y1="2.31383" x2="43.8432" y2="2.31383" gradientUnits="userSpaceOnUse">
<stop stop-color="#123054"/>
<stop offset="1" stop-color="#0A1B30"/>
</linearGradient>
<linearGradient id="paint2_linear_1_4274" x1="9.56885" y1="6.94432" x2="51.8672" y2="6.94432" gradientUnits="userSpaceOnUse">
<stop stop-color="#123054"/>
<stop offset="1" stop-color="#0A1B30"/>
</linearGradient>
<linearGradient id="paint3_linear_1_4274" x1="17.5933" y1="11.5795" x2="59.8916" y2="11.5795" gradientUnits="userSpaceOnUse">
<stop stop-color="#123054"/>
<stop offset="1" stop-color="#0A1B30"/>
</linearGradient>
<linearGradient id="paint4_linear_1_4274" x1="25.6172" y1="16.2093" x2="67.9155" y2="16.2093" gradientUnits="userSpaceOnUse">
<stop stop-color="#123054"/>
<stop offset="1" stop-color="#0A1B30"/>
</linearGradient>
<linearGradient id="paint5_linear_1_4274" x1="33.6357" y1="20.8446" x2="75.9341" y2="20.8446" gradientUnits="userSpaceOnUse">
<stop stop-color="#123054"/>
<stop offset="1" stop-color="#0A1B30"/>
</linearGradient>
<linearGradient id="paint6_linear_1_4274" x1="41.6592" y1="25.4745" x2="83.9575" y2="25.4745" gradientUnits="userSpaceOnUse">
<stop stop-color="#123054"/>
<stop offset="1" stop-color="#0A1B30"/>
</linearGradient>
<linearGradient id="paint7_linear_1_4274" x1="41.6592" y1="2.31395" x2="83.9575" y2="2.31395" gradientUnits="userSpaceOnUse">
<stop stop-color="#123054"/>
<stop offset="1" stop-color="#0A1B30"/>
</linearGradient>
<linearGradient id="paint8_linear_1_4274" x1="33.6357" y1="6.94432" x2="75.9341" y2="6.94432" gradientUnits="userSpaceOnUse">
<stop stop-color="#123054"/>
<stop offset="1" stop-color="#0A1B30"/>
</linearGradient>
<linearGradient id="paint9_linear_1_4274" x1="25.612" y1="11.5795" x2="67.9155" y2="11.5795" gradientUnits="userSpaceOnUse">
<stop stop-color="#123054"/>
<stop offset="1" stop-color="#0A1B30"/>
</linearGradient>
<linearGradient id="paint10_linear_1_4274" x1="17.5933" y1="16.2093" x2="59.8916" y2="16.2093" gradientUnits="userSpaceOnUse">
<stop stop-color="#123054"/>
<stop offset="1" stop-color="#0A1B30"/>
</linearGradient>
<linearGradient id="paint11_linear_1_4274" x1="9.56885" y1="20.8446" x2="51.8672" y2="20.8446" gradientUnits="userSpaceOnUse">
<stop stop-color="#123054"/>
<stop offset="1" stop-color="#0A1B30"/>
</linearGradient>
<linearGradient id="paint12_linear_1_4274" x1="1.54492" y1="25.4745" x2="43.8432" y2="25.4745" gradientUnits="userSpaceOnUse">
<stop stop-color="#123054"/>
<stop offset="1" stop-color="#0A1B30"/>
</linearGradient>
<linearGradient id="paint13_linear_1_4274" x1="63.301" y1="97.9272" x2="88.2484" y2="66.2486" gradientUnits="userSpaceOnUse">
<stop stop-color="#123054"/>
<stop offset="1" stop-color="#0A1B30"/>
</linearGradient>
<linearGradient id="paint14_linear_1_4274" x1="129.763" y1="98.05" x2="104.61" y2="66.1087" gradientUnits="userSpaceOnUse">
<stop stop-color="#071528"/>
<stop offset="1" stop-color="#081629"/>
</linearGradient>
<linearGradient id="paint15_linear_1_4274" x1="55.2769" y1="34.2967" x2="97.5752" y2="34.2967" gradientUnits="userSpaceOnUse">
<stop stop-color="#123054"/>
<stop offset="1" stop-color="#0A1B30"/>
</linearGradient>
<linearGradient id="paint16_linear_1_4274" x1="63.3008" y1="38.9267" x2="105.599" y2="38.9267" gradientUnits="userSpaceOnUse">
<stop stop-color="#123054"/>
<stop offset="1" stop-color="#0A1B30"/>
</linearGradient>
<linearGradient id="paint17_linear_1_4274" x1="71.3247" y1="43.562" x2="113.623" y2="43.562" gradientUnits="userSpaceOnUse">
<stop stop-color="#123054"/>
<stop offset="1" stop-color="#0A1B30"/>
</linearGradient>
<linearGradient id="paint18_linear_1_4274" x1="79.3433" y1="48.1919" x2="121.642" y2="48.1919" gradientUnits="userSpaceOnUse">
<stop stop-color="#123054"/>
<stop offset="1" stop-color="#0A1B30"/>
</linearGradient>
<linearGradient id="paint19_linear_1_4274" x1="87.3672" y1="52.8219" x2="129.666" y2="52.8219" gradientUnits="userSpaceOnUse">
<stop stop-color="#123054"/>
<stop offset="1" stop-color="#0A1B30"/>
</linearGradient>
<linearGradient id="paint20_linear_1_4274" x1="95.3916" y1="57.4569" x2="137.69" y2="57.4569" gradientUnits="userSpaceOnUse">
<stop stop-color="#123054"/>
<stop offset="1" stop-color="#0A1B30"/>
</linearGradient>
<linearGradient id="paint21_linear_1_4274" x1="95.3916" y1="34.2969" x2="137.69" y2="34.2969" gradientUnits="userSpaceOnUse">
<stop stop-color="#123054"/>
<stop offset="1" stop-color="#0A1B30"/>
</linearGradient>
<linearGradient id="paint22_linear_1_4274" x1="87.3672" y1="38.9267" x2="129.666" y2="38.9267" gradientUnits="userSpaceOnUse">
<stop stop-color="#123054"/>
<stop offset="1" stop-color="#0A1B30"/>
</linearGradient>
<linearGradient id="paint23_linear_1_4274" x1="79.3433" y1="43.562" x2="121.642" y2="43.562" gradientUnits="userSpaceOnUse">
<stop stop-color="#123054"/>
<stop offset="1" stop-color="#0A1B30"/>
</linearGradient>
<linearGradient id="paint24_linear_1_4274" x1="71.3196" y1="48.1919" x2="113.623" y2="48.1919" gradientUnits="userSpaceOnUse">
<stop stop-color="#123054"/>
<stop offset="1" stop-color="#0A1B30"/>
</linearGradient>
<linearGradient id="paint25_linear_1_4274" x1="63.3008" y1="52.8221" x2="105.599" y2="52.8221" gradientUnits="userSpaceOnUse">
<stop stop-color="#123054"/>
<stop offset="1" stop-color="#0A1B30"/>
</linearGradient>
<linearGradient id="paint26_linear_1_4274" x1="55.2769" y1="57.4569" x2="97.5752" y2="57.4569" gradientUnits="userSpaceOnUse">
<stop stop-color="#123054"/>
<stop offset="1" stop-color="#0A1B30"/>
</linearGradient>
<linearGradient id="paint27_linear_1_4274" x1="62.0529" y1="65.0023" x2="64.6383" y2="65.0023" gradientUnits="userSpaceOnUse">
<stop stop-color="#D9D8E7"/>
<stop offset="1" stop-color="#D9D8E7"/>
</linearGradient>
<linearGradient id="paint28_linear_1_4274" x1="72.9989" y1="74.8821" x2="75.5842" y2="74.8821" gradientUnits="userSpaceOnUse">
<stop stop-color="#D9D8E7"/>
<stop offset="1" stop-color="#D9D8E7"/>
</linearGradient>
<linearGradient id="paint29_linear_1_4274" x1="79.5363" y1="75.8972" x2="82.1217" y2="75.8972" gradientUnits="userSpaceOnUse">
<stop stop-color="#D9D8E7"/>
<stop offset="1" stop-color="#D9D8E7"/>
</linearGradient>
<linearGradient id="paint30_linear_1_4274" x1="97.597" y1="81.9526" x2="95.0117" y2="81.9526" gradientUnits="userSpaceOnUse">
<stop stop-color="#D9D8E7"/>
<stop offset="1" stop-color="#D9D8E7"/>
</linearGradient>
<linearGradient id="paint31_linear_1_4274" x1="86.6504" y1="91.8328" x2="84.065" y2="91.8328" gradientUnits="userSpaceOnUse">
<stop stop-color="#D9D8E7"/>
<stop offset="1" stop-color="#D9D8E7"/>
</linearGradient>
<linearGradient id="paint32_linear_1_4274" x1="80.1137" y1="92.8538" x2="77.5284" y2="92.8538" gradientUnits="userSpaceOnUse">
<stop stop-color="#D9D8E7"/>
<stop offset="1" stop-color="#D9D8E7"/>
</linearGradient>
</defs>
</svg>
