<svg width="88" height="103" viewBox="0 0 88 103" fill="none" xmlns="http://www.w3.org/2000/svg">
<path d="M60.8711 11.5654V61.1211L17.8682 85.0098L1.5 75.4238V56.4756L15.6895 48.1797V70.0215L17.9316 68.7451L45.666 52.9648L46.4248 52.5342V16.6943L44.1895 17.9512L1.77441 41.793V25.5908L44.2285 1.73047L60.8711 11.5654Z" fill="#4D4D4D" stroke="#393939" stroke-width="3"/>
<path d="M86.4995 51.2148V75.9355L44.2681 100.577L29.2476 91.7295L70.4429 67.9541L70.4595 67.9453L70.4751 67.9355L70.8052 67.7334L71.5151 67.2998L71.5229 66.4688L71.7534 42.8213L86.4995 51.2148Z" fill="#4D4D4D" stroke="#393939" stroke-width="3"/>
<path d="M35.6737 34.1636L26.0927 39.6675V36.3354L35.6737 30.8315V34.1636Z" fill="#4D4D4D" stroke="#393939"/>
<path d="M35.6737 42.0903L26.0927 47.5942V44.2622L35.6737 38.7583V42.0903Z" fill="#4D4D4D" stroke="#393939"/>
<path d="M35.6737 50.8037L26.0927 56.3066V52.9756L35.6737 47.4717V50.8037Z" fill="#4D4D4D" stroke="#393939"/>
<path d="M86.5005 24.8091V36.4497L71.5229 27.6802V16.1147L86.5005 24.8091Z" fill="#5D5D5D" stroke="#393939" stroke-width="3"/>
</svg>
