<svg width="101" height="117" viewBox="0 0 101 117" fill="none" xmlns="http://www.w3.org/2000/svg">
<path d="M63.8096 12.8115V64.9287L18.7236 90.0137L1.5 79.9131V59.9629L16.499 51.1543V74.084L18.7422 72.8047L47.7822 56.252L48.5391 55.8203V18.3545L46.3037 19.6133L1.75293 44.7012V27.5439L46.3145 2.44824L63.8096 12.8115Z" fill="#4D4D4D" stroke="#393939" stroke-width="3"/>
<path d="M38.0276 36.478L27.2454 42.6792V38.8276L38.0276 32.6265V36.478Z" fill="#4D4D4D" stroke="#393939"/>
<path d="M38.0276 45.6455L27.2454 51.2852V47.8594L38.0276 42.2197V45.6455Z" fill="#4D4D4D" stroke="#393939"/>
<path d="M38.0276 54.2119L27.2454 59.8516V56.4258L38.0276 50.7861V54.2119Z" fill="#4D4D4D" stroke="#393939"/>
<path d="M80.9225 24.3604C87.6419 23.433 91.8036 24.0054 94.2897 25.8613C96.5943 27.582 97.5903 30.5117 97.7057 34.8223L97.7174 35.7021C97.6903 36.6009 97.6666 39.2645 97.6442 41.915C97.6221 44.5228 97.5999 47.118 97.5739 48.0518C97.5147 48.2232 97.3615 48.4189 97.0641 48.6143C96.747 48.8225 96.3152 48.9992 95.818 49.127C94.9412 49.3522 93.9483 49.4036 93.1823 49.2734L92.8688 49.2061C92.3608 49.0675 91.8752 48.6154 91.776 48.0791C91.7317 46.3534 91.7095 42.8793 91.6871 39.3955C91.6646 35.8975 91.6414 32.3891 91.5963 30.6611H91.5973C91.5973 29.5409 90.6475 28.8918 89.5533 28.5342C88.4221 28.1644 86.8877 28.0107 85.2057 28.0107C82.8745 28.0107 81.3407 28.3658 80.3737 28.9414C79.3787 29.5336 79.0011 30.3515 78.9957 31.1494C78.7965 36.8721 78.8141 51.2507 79.0133 56.9541L79.0143 56.9883L79.0211 57.0225C79.1628 57.8322 79.5057 58.5746 80.0192 59.2461L80.0699 59.3125L80.1393 59.3584C81.1365 60.0232 82.1973 60.5865 83.3043 61.0664C83.4663 61.5733 83.474 61.975 83.3893 62.2881C83.2958 62.6335 83.0773 62.923 82.7252 63.1553C82.0019 63.6325 80.7456 63.8384 79.153 63.6553C76.0785 62.6351 74.2971 60.8033 73.7037 58.1689C73.5077 51.6345 73.5072 36.553 73.7028 29.9961C74.764 26.936 77.1283 25.0546 80.9225 24.3604Z" fill="#4D4D4D" stroke="#393939"/>
<path d="M97.4939 57.0781C98.4351 57.0781 99.165 57.41 99.7878 58.0664L99.7908 58.0693C100.416 58.711 100.75 59.6858 100.75 61.0391C100.75 62.3956 100.414 63.4234 99.7908 64.0635L99.7878 64.0654C99.166 64.7208 98.4004 65.0537 97.4939 65.0537C96.6092 65.0537 95.8797 64.7607 95.2644 64.1826L95.1433 64.0635C94.5379 63.4239 94.2195 62.4149 94.2195 61.0391C94.2195 59.6665 94.5357 58.7093 95.1423 58.0684L95.1433 58.0693C95.7836 57.4122 96.5503 57.0781 97.4939 57.0781ZM96.0427 51.6387L93.4304 58.2549L90.7458 65.0537H88.7166L93.9773 51.6387H96.0427ZM97.4939 58.0967C96.835 58.0967 96.4086 58.4608 96.0281 58.9746L96.0242 58.9795C95.8172 59.2738 95.7205 59.6708 95.6716 60.0342C95.6218 60.4042 95.6179 60.7755 95.6179 61.0391C95.6179 61.4214 95.6695 61.8485 95.7693 62.2451C95.8676 62.6359 96.0176 63.0158 96.2234 63.2959V63.2969C96.6157 63.8544 97.0911 64.0176 97.4939 64.0176H97.7439V63.9707C97.9737 63.9186 98.1699 63.8012 98.3298 63.6699C98.544 63.494 98.713 63.2781 98.8308 63.124L98.8337 63.1211C99.0243 62.8637 99.181 62.6039 99.2869 62.2686C99.3919 61.9357 99.4421 61.542 99.4421 61.0205C99.4421 59.9691 99.234 59.3531 98.8337 58.8125H98.8328C98.6408 58.5412 98.426 58.358 98.1921 58.2451C97.9578 58.1321 97.7195 58.0967 97.4939 58.0967ZM86.5242 51.6748C87.4655 51.6748 88.1962 52.0066 88.8191 52.6631L88.821 52.666C89.4463 53.3077 89.78 54.2823 89.78 55.6357C89.78 56.9923 89.4447 58.0201 88.821 58.6602C88.1789 59.3191 87.4288 59.6504 86.5242 59.6504C85.5817 59.6503 84.8153 59.3177 84.1755 58.6621H84.1765C83.5699 58.0227 83.2508 57.013 83.2507 55.6357C83.2507 54.2634 83.5671 53.307 84.1736 52.666C84.8138 52.009 85.5807 51.6749 86.5242 51.6748ZM86.5242 53.0186C86.2439 53.0186 85.9986 53.0514 85.7712 53.1709C85.545 53.2899 85.3636 53.4804 85.1814 53.7393L85.1667 53.7607L85.156 53.7852C84.934 54.3099 84.9373 54.6523 84.9373 55.6357C84.9373 56.1501 84.9889 56.5069 85.0681 56.7988C85.1455 57.084 85.2507 57.3075 85.3347 57.5176L85.3455 57.5449L85.3621 57.5684C85.5389 57.8196 85.7021 58.0056 85.8884 58.125C86.0849 58.251 86.2851 58.2891 86.5066 58.2891H86.5242C87.1162 58.2891 87.4346 57.8764 87.6248 57.5537C87.8083 57.2479 88.0759 56.6974 88.0759 55.6357C88.0759 54.7393 88.0334 54.3776 87.8904 53.9697L87.823 53.79C87.7138 53.5078 87.5408 53.305 87.3035 53.1787C87.0736 53.0565 86.8051 53.0186 86.5242 53.0186Z" fill="#4D4D4D" stroke="#393939" stroke-width="0.5"/>
<g filter="url(#filter0_d_3001_13)">
<path d="M41.7084 89.4277L27.8297 97.5417L46.8767 108.872L62.3457 99.7463L41.7084 89.4277Z" fill="#4D4D4D"/>
<path d="M60.2535 99.8184L46.8785 107.709L29.7985 97.5488L41.7457 90.5645L60.2535 99.8184Z" stroke="#393939" stroke-width="2"/>
</g>
<g filter="url(#filter1_d_3001_13)">
<path d="M80.5975 88.9965L93.157 81.5872L74.128 70.5278L73.7846 70.7268L60.0505 78.7322L80.5975 88.9965Z" fill="#4D4D4D"/>
<path d="M91.1775 81.5933L80.5574 87.8589L62.1521 78.6636L74.1267 71.6831L91.1775 81.5933Z" stroke="#393939" stroke-width="2"/>
</g>
<g filter="url(#filter2_d_3001_13)">
<path d="M59.0027 79.3457L42.7748 88.815L63.394 99.134L79.5315 89.6105L59.0027 79.3457Z" fill="#4D4D4D"/>
<path d="M77.4398 89.6826L63.3539 97.9961L44.8734 88.7471L59.0385 80.4814L77.4398 89.6826Z" stroke="#393939" stroke-width="2"/>
</g>
<defs>
<filter id="filter0_d_3001_13" x="23.8297" y="89.4277" width="42.516" height="27.4448" filterUnits="userSpaceOnUse" color-interpolation-filters="sRGB">
<feFlood flood-opacity="0" result="BackgroundImageFix"/>
<feColorMatrix in="SourceAlpha" type="matrix" values="0 0 0 0 0 0 0 0 0 0 0 0 0 0 0 0 0 0 127 0" result="hardAlpha"/>
<feOffset dy="4"/>
<feGaussianBlur stdDeviation="2"/>
<feComposite in2="hardAlpha" operator="out"/>
<feColorMatrix type="matrix" values="0 0 0 0 0 0 0 0 0 0 0 0 0 0 0 0 0 0 0.25 0"/>
<feBlend mode="normal" in2="BackgroundImageFix" result="effect1_dropShadow_3001_13"/>
<feBlend mode="normal" in="SourceGraphic" in2="effect1_dropShadow_3001_13" result="shape"/>
</filter>
<filter id="filter1_d_3001_13" x="56.0505" y="70.5278" width="41.1064" height="26.4688" filterUnits="userSpaceOnUse" color-interpolation-filters="sRGB">
<feFlood flood-opacity="0" result="BackgroundImageFix"/>
<feColorMatrix in="SourceAlpha" type="matrix" values="0 0 0 0 0 0 0 0 0 0 0 0 0 0 0 0 0 0 127 0" result="hardAlpha"/>
<feOffset dy="4"/>
<feGaussianBlur stdDeviation="2"/>
<feComposite in2="hardAlpha" operator="out"/>
<feColorMatrix type="matrix" values="0 0 0 0 0 0 0 0 0 0 0 0 0 0 0 0 0 0 0.25 0"/>
<feBlend mode="normal" in2="BackgroundImageFix" result="effect1_dropShadow_3001_13"/>
<feBlend mode="normal" in="SourceGraphic" in2="effect1_dropShadow_3001_13" result="shape"/>
</filter>
<filter id="filter2_d_3001_13" x="38.7748" y="79.3457" width="44.7567" height="27.7881" filterUnits="userSpaceOnUse" color-interpolation-filters="sRGB">
<feFlood flood-opacity="0" result="BackgroundImageFix"/>
<feColorMatrix in="SourceAlpha" type="matrix" values="0 0 0 0 0 0 0 0 0 0 0 0 0 0 0 0 0 0 127 0" result="hardAlpha"/>
<feOffset dy="4"/>
<feGaussianBlur stdDeviation="2"/>
<feComposite in2="hardAlpha" operator="out"/>
<feColorMatrix type="matrix" values="0 0 0 0 0 0 0 0 0 0 0 0 0 0 0 0 0 0 0.25 0"/>
<feBlend mode="normal" in2="BackgroundImageFix" result="effect1_dropShadow_3001_13"/>
<feBlend mode="normal" in="SourceGraphic" in2="effect1_dropShadow_3001_13" result="shape"/>
</filter>
</defs>
</svg>
