<svg width="170" height="169" viewBox="0 0 170 169" fill="none" xmlns="http://www.w3.org/2000/svg">
<rect x="85" y="0.353553" width="118.765" height="118.765" rx="9.75" transform="rotate(45 85 0.353553)" fill="url(#paint0_linear_1_5563)" fill-opacity="0.1" stroke="url(#paint1_linear_1_5563)" stroke-width="0.5"/>
<path d="M116.285 60.4277H74.749V64.4165C77.0645 66.7147 78.5671 69.7062 79.0286 72.9366H116.285C117.237 72.9366 118.15 72.5583 118.823 71.8848C119.496 71.2114 119.874 70.298 119.874 69.3457V64.0197C119.874 63.548 119.782 63.081 119.601 62.6452C119.421 62.2094 119.157 61.8134 118.823 61.4799C118.49 61.1463 118.094 60.8817 117.659 60.7012C117.223 60.5206 116.756 60.4277 116.285 60.4277ZM116.075 67.1687C115.619 67.1687 115.172 67.0333 114.793 66.7795C114.413 66.5258 114.117 66.1651 113.943 65.7431C113.768 65.3212 113.722 64.8569 113.811 64.4089C113.9 63.9609 114.12 63.5495 114.443 63.2265C114.766 62.9036 115.177 62.6836 115.625 62.5945C116.073 62.5054 116.537 62.5512 116.958 62.726C117.38 62.9007 117.741 63.1967 117.994 63.5765C118.248 63.9562 118.383 64.4027 118.383 64.8594C118.383 65.1627 118.324 65.463 118.208 65.7431C118.092 66.0233 117.922 66.2779 117.707 66.4923C117.493 66.7068 117.238 66.8769 116.958 66.9929C116.678 67.109 116.378 67.1687 116.075 67.1687Z" fill="#C82022"/>
<path d="M116.285 79.5264H79.1823V81.6645C79.2809 81.6988 79.3775 81.7377 79.4719 81.781C79.2345 81.7233 78.9911 81.6941 78.7469 81.6939H53.661C51.7484 81.6939 50.1987 83.4427 50.1987 85.5997V106.777C50.1987 108.934 51.7494 110.683 53.661 110.683H74.7495V110.765H116.285C117.237 110.765 118.15 110.387 118.823 109.714C119.497 109.04 119.875 108.127 119.875 107.175V101.85C119.875 100.897 119.497 99.9837 118.824 99.3101C118.15 98.6365 117.237 98.2579 116.285 98.2577H82.2102V92.0342H116.285C117.237 92.0342 118.15 91.6558 118.823 90.9824C119.497 90.309 119.875 89.3957 119.875 88.4433V83.1173C119.875 82.6457 119.782 82.1788 119.602 81.7431C119.421 81.3074 119.157 80.9116 118.823 80.5781C118.49 80.2447 118.094 79.9802 117.659 79.7997C117.224 79.6193 116.757 79.5264 116.285 79.5264ZM69.8068 86.4164H71.2264V89.7092H70.4647V87.0283H69.8068V86.4164ZM65.2828 91.6238H66.7023V94.9176H65.9406V92.2357H65.2828V91.6238ZM57.5849 86.4164H59.0055V89.7092H58.2438V87.0283H57.5849V86.4164ZM53.0619 91.6238H54.4888V94.9176H53.7271V92.2357H53.0693L53.0619 91.6238ZM54.4888 105.33H53.7271V102.648H53.0693V102.037H54.4888V105.33ZM54.6305 100.179C53.8215 100.179 53.2193 99.5624 53.2193 98.476C53.2193 97.3896 53.8215 96.7734 54.6305 96.7734C55.4394 96.7734 56.0406 97.3896 56.0406 98.476C56.0406 99.5624 55.4404 100.181 54.6273 100.181L54.6305 100.179ZM54.6305 89.7638C53.8215 89.7638 53.2193 89.1476 53.2193 88.0612C53.2193 86.9748 53.8215 86.3576 54.6305 86.3576C55.4394 86.3576 56.0406 86.9737 56.0406 88.0612C56.0406 89.1487 55.4404 89.7659 54.6273 89.7659L54.6305 89.7638ZM57.8042 105.387C56.9953 105.387 56.3931 104.771 56.3931 103.683C56.3931 102.596 56.9953 101.981 57.8042 101.981C58.6131 101.981 59.2101 102.601 59.2101 103.685C59.2101 104.77 58.6142 105.389 57.8011 105.389L57.8042 105.387ZM57.5944 97.441V96.828H59.015V100.121H58.2533V97.4389L57.5944 97.441ZM57.8042 94.9711C56.9953 94.9711 56.3931 94.355 56.3931 93.2686C56.3931 92.1822 56.9953 91.566 57.8042 91.566C58.6131 91.566 59.2143 92.1822 59.2143 93.2686C59.2143 94.355 58.6142 94.9733 57.8011 94.9733L57.8042 94.9711ZM62.3272 105.387C61.5194 105.387 60.9171 104.771 60.9171 103.683C60.9171 102.596 61.5194 101.981 62.3272 101.981C63.1351 101.981 63.7384 102.597 63.7384 103.683C63.7384 104.77 63.1382 105.389 62.3241 105.389L62.3272 105.387ZM62.3272 100.179C61.5194 100.179 60.9171 99.5624 60.9171 98.476C60.9171 97.3896 61.5194 96.7734 62.3272 96.7734C63.1351 96.7734 63.7384 97.3896 63.7384 98.476C63.7384 99.5624 63.1382 100.181 62.3241 100.181L62.3272 100.179ZM62.3272 94.9711C61.5194 94.9711 60.9171 94.355 60.9171 93.2686C60.9171 92.1822 61.5194 91.566 62.3272 91.566C63.1351 91.566 63.7384 92.1822 63.7384 93.2686C63.7384 94.355 63.1382 94.9733 62.3241 94.9733L62.3272 94.9711ZM62.3272 89.7638C61.5194 89.7638 60.9171 89.1476 60.9171 88.0612C60.9171 86.9748 61.5194 86.3576 62.3272 86.3576C63.1351 86.3576 63.7384 86.9737 63.7384 88.0612C63.7384 89.1487 63.1382 89.7659 62.3241 89.7659L62.3272 89.7638ZM66.7097 105.33H65.9479V102.648H65.2901V102.037H66.7097V105.33ZM66.8513 100.179C66.0424 100.179 65.4401 99.5624 65.4401 98.476C65.4401 97.3896 66.0424 96.7734 66.8513 96.7734C67.6602 96.7734 68.2614 97.3896 68.2614 98.476C68.2614 99.5624 67.6613 100.181 66.8482 100.181L66.8513 100.179ZM66.8513 89.7638C66.0424 89.7638 65.4401 89.1476 65.4401 88.0612C65.4401 86.9748 66.0424 86.3576 66.8513 86.3576C67.6602 86.3576 68.2614 86.9737 68.2614 88.0612C68.2614 89.1487 67.6613 89.7659 66.8482 89.7659L66.8513 89.7638ZM70.0251 105.387C69.2162 105.387 68.615 104.771 68.615 103.683C68.615 102.596 69.2162 101.981 70.0251 101.981C70.834 101.981 71.4362 102.597 71.4362 103.683C71.4362 104.77 70.835 105.389 70.0219 105.389L70.0251 105.387ZM69.8152 97.441V96.828H71.2348V100.121H70.4731V97.4389L69.8152 97.441ZM70.0251 94.9711C69.2162 94.9711 68.615 94.355 68.615 93.2686C68.615 92.1822 69.2162 91.566 70.0251 91.566C70.834 91.566 71.4362 92.1822 71.4362 93.2686C71.4362 94.355 70.835 94.9733 70.0219 94.9733L70.0251 94.9711ZM74.4075 105.33H73.6458V102.648H72.9879V102.037H74.4075V105.33ZM74.4075 100.123H73.6458V97.441H72.9879V96.828H74.4075V100.123ZM74.4075 94.9155H73.6458V92.2336H72.9879V91.6217H74.4075V94.9155ZM74.4075 89.7071H73.6458V87.0262H72.9879V86.4143H74.4075V89.7071ZM77.7229 86.3576C78.536 86.3576 79.133 86.9737 79.133 88.0612C79.133 89.1487 78.536 89.7638 77.7229 89.7638C76.9098 89.7638 76.3117 89.1476 76.3117 88.0612C76.3117 86.9748 76.9108 86.3597 77.7197 86.3597L77.7229 86.3576ZM77.7229 91.566C78.536 91.566 79.133 92.1822 79.133 93.2686C79.133 94.355 78.536 94.9711 77.7229 94.9711C76.9098 94.9711 76.3117 94.355 76.3117 93.2686C76.3117 92.1822 76.9108 91.5681 77.7197 91.5681L77.7229 91.566ZM77.7229 96.7734C78.536 96.7734 79.133 97.3896 79.133 98.476C79.133 99.5624 78.536 100.179 77.7229 100.179C76.9098 100.179 76.3117 99.5624 76.3117 98.476C76.3117 97.3896 76.9108 96.7755 77.7197 96.7755L77.7229 96.7734ZM77.7229 101.981C78.536 101.981 79.133 102.597 79.133 103.683C79.133 104.77 78.536 105.387 77.7229 105.387C76.9098 105.387 76.3117 104.771 76.3117 103.683C76.3117 102.596 76.9108 101.983 77.7197 101.983L77.7229 101.981ZM116.076 100.385C116.532 100.385 116.978 100.521 117.358 100.774C117.738 101.028 118.033 101.389 118.208 101.811C118.383 102.233 118.429 102.697 118.339 103.145C118.25 103.593 118.031 104.005 117.708 104.327C117.385 104.65 116.974 104.87 116.526 104.959C116.078 105.049 115.614 105.003 115.192 104.828C114.771 104.653 114.41 104.357 114.156 103.978C113.903 103.598 113.767 103.151 113.767 102.695C113.767 102.082 114.011 101.495 114.443 101.062C114.876 100.629 115.463 100.385 116.076 100.385ZM116.076 86.2673C115.619 86.2673 115.173 86.1319 114.793 85.8781C114.414 85.6244 114.118 85.2637 113.943 84.8418C113.768 84.4198 113.723 83.9555 113.812 83.5075C113.901 83.0596 114.121 82.6481 114.443 82.3252C114.766 82.0022 115.178 81.7823 115.625 81.6932C116.073 81.6041 116.537 81.6498 116.959 81.8246C117.381 81.9994 117.741 82.2953 117.995 82.6751C118.248 83.0549 118.384 83.5013 118.384 83.958C118.384 84.5705 118.141 85.1579 117.708 85.5909C117.275 86.024 116.688 86.2673 116.076 86.2673Z" fill="#C82022"/>
<path d="M62.3235 87.0044C61.9479 87.0044 61.6846 87.3193 61.6846 88.0635C61.6846 88.8077 61.9479 89.1216 62.3235 89.1216C62.6991 89.1216 62.9677 88.8067 62.9677 88.0635C62.9677 87.3204 62.7044 87.0044 62.3235 87.0044Z" fill="#C82022"/>
<path d="M62.3235 97.4199C61.9479 97.4199 61.6846 97.7348 61.6846 98.478C61.6846 99.2212 61.9479 99.5361 62.3235 99.5361C62.6991 99.5361 62.9677 99.2212 62.9677 98.478C62.9677 97.7348 62.7044 97.4199 62.3235 97.4199Z" fill="#C82022"/>
<path d="M62.3235 92.21C61.9479 92.21 61.6846 92.5196 61.6846 93.268C61.6846 94.0164 61.9479 94.3261 62.3235 94.3261C62.6991 94.3261 62.9677 94.0112 62.9677 93.268C62.9677 92.5249 62.7044 92.21 62.3235 92.21Z" fill="#C82022"/>
<path d="M66.848 97.4199C66.4714 97.4199 66.208 97.7348 66.208 98.478C66.208 99.2212 66.4714 99.5361 66.848 99.5361C67.2247 99.5361 67.4922 99.2212 67.4922 98.478C67.4922 97.7348 67.2289 97.4199 66.848 97.4199Z" fill="#C82022"/>
<path d="M66.848 87.0044C66.4714 87.0044 66.208 87.3193 66.208 88.0635C66.208 88.8077 66.4714 89.1216 66.848 89.1216C67.2247 89.1216 67.4922 88.8067 67.4922 88.0635C67.4922 87.3204 67.2289 87.0044 66.848 87.0044Z" fill="#C82022"/>
<path d="M70.0218 102.627C69.6462 102.627 69.3828 102.942 69.3828 103.686C69.3828 104.429 69.6462 104.745 70.0218 104.745C70.3974 104.745 70.666 104.43 70.666 103.686C70.666 102.941 70.4026 102.627 70.0218 102.627Z" fill="#C82022"/>
<path d="M54.6273 87.0044C54.2507 87.0044 53.9873 87.3193 53.9873 88.0635C53.9873 88.8077 54.2507 89.1216 54.6273 89.1216C55.004 89.1216 55.2715 88.8067 55.2715 88.0635C55.2715 87.3204 55.0134 87.0044 54.6273 87.0044Z" fill="#C82022"/>
<path d="M54.6273 97.4199C54.2507 97.4199 53.9873 97.7348 53.9873 98.478C53.9873 99.2212 54.2507 99.5361 54.6273 99.5361C55.004 99.5361 55.2715 99.2212 55.2715 98.478C55.2715 97.7348 55.0134 97.4199 54.6273 97.4199Z" fill="#C82022"/>
<path d="M62.3235 102.627C61.9479 102.627 61.6846 102.942 61.6846 103.686C61.6846 104.429 61.9479 104.745 62.3235 104.745C62.6991 104.745 62.9677 104.43 62.9677 103.686C62.9677 102.941 62.7044 102.627 62.3235 102.627Z" fill="#C82022"/>
<path d="M70.0218 92.21C69.6462 92.21 69.3828 92.5196 69.3828 93.268C69.3828 94.0164 69.6462 94.3261 70.0218 94.3261C70.3974 94.3261 70.666 94.0112 70.666 93.268C70.666 92.5249 70.4026 92.21 70.0218 92.21Z" fill="#C82022"/>
<path d="M57.8011 102.627C57.4245 102.627 57.1611 102.942 57.1611 103.686C57.1611 104.429 57.4245 104.745 57.8011 104.745C58.1778 104.745 58.4453 104.43 58.4453 103.686C58.4453 102.941 58.182 102.627 57.8011 102.627Z" fill="#C82022"/>
<path d="M57.8011 92.21C57.4245 92.21 57.1611 92.5196 57.1611 93.268C57.1611 94.0164 57.4245 94.3261 57.8011 94.3261C58.1778 94.3261 58.4453 94.0112 58.4453 93.268C58.4453 92.5249 58.182 92.21 57.8011 92.21Z" fill="#C82022"/>
<path d="M77.7196 99.5361C78.1004 99.5361 78.3638 99.2212 78.3638 98.478C78.3638 97.7348 78.1004 97.4199 77.7196 97.4199C77.3387 97.4199 77.0796 97.7348 77.0796 98.478C77.0796 99.2212 77.3429 99.5361 77.7196 99.5361Z" fill="#C82022"/>
<path d="M77.7196 94.329C78.1004 94.329 78.3638 94.0141 78.3638 93.271C78.3638 92.5278 78.1004 92.2129 77.7196 92.2129C77.3387 92.2129 77.0796 92.5225 77.0796 93.271C77.0796 94.0194 77.3429 94.329 77.7196 94.329Z" fill="#C82022"/>
<path d="M77.7196 89.1216C78.1004 89.1216 78.3638 88.8067 78.3638 88.0635C78.3638 87.3204 78.1004 87.0044 77.7196 87.0044C77.3387 87.0044 77.0796 87.3193 77.0796 88.0635C77.0796 88.8077 77.3429 89.1216 77.7196 89.1216Z" fill="#C82022"/>
<path d="M77.7196 104.745C78.1004 104.745 78.3638 104.43 78.3638 103.686C78.3638 102.941 78.1004 102.627 77.7196 102.627C77.3387 102.627 77.0796 102.942 77.0796 103.686C77.0796 104.429 77.3429 104.745 77.7196 104.745Z" fill="#C82022"/>
<path d="M80.8234 66.1223H99.1263C100.543 66.1223 100.546 63.918 99.1263 63.918H80.8234C79.4102 63.919 79.4081 66.1223 80.8234 66.1223Z" fill="#757575"/>
<path d="M110.311 65.7456C110.798 64.5684 110.24 63.2188 109.063 62.7312C107.886 62.2435 106.537 62.8026 106.05 63.9798C105.563 65.157 106.121 66.5066 107.298 66.9942C108.475 67.4819 109.824 66.9228 110.311 65.7456Z" fill="#757575"/>
<path d="M109.812 85.3668C110.713 84.4658 110.713 83.0049 109.812 82.1039C108.912 81.2029 107.452 81.2029 106.551 82.1039C105.65 83.0049 105.65 84.4658 106.551 85.3668C107.452 86.2678 108.912 86.2678 109.812 85.3668Z" fill="#757575"/>
<path d="M122.351 94.6176C120.497 93.3412 117.654 93.7506 115.511 93.7506H83.3109V92.9109H100.224C106.624 92.9109 113.036 93.0473 119.434 92.9109C121.943 92.8584 124.155 91.1401 124.542 88.601C124.799 86.9288 124.612 85.1213 124.612 83.4366C124.612 81.7519 124.887 79.7071 124.248 78.1106C123.428 76.0637 121.489 74.8944 119.325 74.8776C112.882 74.8251 106.437 74.8776 99.9929 74.8776C93.4334 74.8776 86.8676 74.7884 80.3082 74.8703C80.2935 74.5921 80.2756 74.315 80.2526 74.0379H99.3938C106.092 74.0379 112.815 74.2121 119.511 74.0379C122.608 73.9571 124.613 71.4956 124.613 68.5125V62.0045C124.613 61.1081 124.62 60.2264 124.304 59.3667C123.704 57.7366 122.267 56.4455 120.549 56.1128C119.754 55.9574 118.926 56.0078 118.121 56.0078H81.1244C80.3575 56.0078 79.5874 55.9921 78.8162 56.0078C75.9184 56.0676 73.712 58.2782 73.6448 61.1743C73.6385 61.4598 73.6364 61.7453 73.6364 62.0318C73.2377 61.7393 72.824 61.4646 72.3952 61.2078C67.9027 58.5238 62.3084 58.2541 57.5431 60.3681C52.9896 62.3908 49.5231 66.6399 48.4404 71.503C47.7574 74.5764 48.006 77.9059 48.0396 81.0549C46.2833 81.8264 45.0715 83.5017 45.0159 85.6199C44.9802 86.9897 45.0159 88.3648 45.0159 89.7346V104.761C45.0159 106.572 44.89 108.329 46.0923 109.864C47.3713 111.497 49.1696 111.786 51.0812 111.786H78.3053C78.3516 111.786 78.3978 111.783 78.4438 111.778C78.5634 111.771 78.6809 111.762 78.7973 111.748C78.8951 111.773 78.9955 111.786 79.0964 111.786H118.384C119.106 111.786 119.836 111.82 120.548 111.681C123.201 111.149 124.612 108.771 124.612 106.223V100.229C124.612 99.6927 124.637 99.149 124.605 98.6126C124.559 97.8187 124.333 97.0457 123.942 96.3531C123.551 95.6605 123.007 95.0668 122.351 94.6176ZM95.7898 77.0809H117.865C118.406 77.0809 118.949 77.0672 119.492 77.0809C120.582 77.1082 121.59 77.6655 122.091 78.6554C122.425 79.3125 122.405 79.9926 122.405 80.7033V86.5814C122.405 87.1262 122.459 87.7161 122.375 88.2608C122.165 89.6254 120.989 90.6226 119.631 90.7045C117.873 90.8094 116.079 90.7045 114.318 90.7045H83.3109V86.4565C83.3246 86.0014 83.3137 85.5458 83.2784 85.0919C83.2784 85.0594 83.2689 85.0289 83.2647 84.9974H99.1304C100.547 84.9974 100.55 82.7932 99.1304 82.7932H82.4328C81.8982 82.0099 81.1554 81.3918 80.2882 81.0087C80.3019 79.7082 80.3491 78.393 80.3543 77.0798L95.7898 77.0809ZM62.6609 80.592C60.2017 80.592 57.7414 80.5826 55.281 80.5805V75.752C55.281 72.7825 56.2253 70.0597 58.5964 68.1356C61.4019 65.8589 65.4507 65.5492 68.5762 67.3494C71.409 68.9795 73.0363 71.9784 73.0499 75.2219C73.0562 77.0126 73.0499 78.8044 73.0499 80.5962L62.6609 80.592ZM78.2937 58.2341C78.9001 58.1397 79.5643 58.2048 80.1739 58.2048H119.085C120.838 58.2048 122.346 59.204 122.406 61.106C122.462 62.8558 122.406 64.6172 122.406 66.368C122.406 68.2574 122.787 70.722 120.623 71.6163C119.905 71.9134 119.049 71.8263 118.285 71.8263H79.9399C79.3196 68.8735 77.8968 66.1493 75.8281 63.9538C75.8432 63.876 75.8506 63.7969 75.8502 63.7176C75.8502 61.6372 75.5061 58.6718 78.2969 58.2373L78.2937 58.2341ZM50.2555 74.6803C50.3719 70.0891 52.8532 65.7487 56.7352 63.2998C60.6738 60.8153 65.7739 60.43 70.0042 62.4265C72.0601 63.3969 73.8519 64.849 75.2275 66.6596C76.6032 68.4703 77.5222 70.5861 77.9066 72.8276C78.171 74.3832 78.0808 76.0029 78.0808 77.5763V80.5385C77.1365 80.487 76.1629 80.5553 75.248 80.5847C75.248 78.8181 75.2532 77.0525 75.248 75.287C75.2354 71.5607 73.5431 68.143 70.4941 65.9712C67.1724 63.6074 62.6683 63.3701 59.0581 65.2207C55.386 67.1038 53.1145 70.9729 53.0694 75.0666C53.0494 76.9056 53.062 78.7456 53.0694 80.5857C52.1307 80.5857 51.1917 80.5892 50.2523 80.5962H50.2387C50.2355 78.6197 50.2051 76.6453 50.2555 74.6803ZM50.3604 109.585C48.5768 109.578 47.237 108.477 47.2191 106.615C47.1803 102.593 47.2191 98.5686 47.2191 94.5441V87.7339C47.2191 86.3904 46.981 84.7791 47.9536 83.7053C48.5663 83.0293 49.3616 82.8425 50.1915 82.7974H78.1395C79.5569 82.9496 80.7971 83.4849 81.0688 85.1381C81.2514 86.2497 81.1024 87.4872 81.1024 88.602V95.7271C81.1024 99.4009 81.222 103.095 81.1024 106.766C81.051 108.341 79.8748 109.528 78.3 109.578H54.513C53.1302 109.581 51.7463 109.586 50.3635 109.581L50.3604 109.585ZM121.719 108.563C120.955 109.466 119.928 109.585 118.85 109.585H98.6594C93.2403 109.585 87.815 109.511 82.3971 109.551C83.0083 108.59 83.3259 107.47 83.3109 106.331V103.874H99.1304C100.547 103.874 100.55 101.669 99.1304 101.669H83.3109V95.957H99.6036C106.147 95.957 112.691 95.9276 119.235 95.957C120.952 95.9654 122.361 97.0591 122.415 98.8646C122.462 100.466 122.415 102.078 122.415 103.68C122.41 105.184 122.771 107.319 121.722 108.559L121.719 108.563Z" fill="#757575"/>
<path d="M108.705 104.872C109.944 104.579 110.712 103.337 110.419 102.097C110.127 100.857 108.885 100.088 107.645 100.381C106.406 100.674 105.638 101.916 105.931 103.157C106.223 104.397 107.465 105.165 108.705 104.872Z" fill="#757575"/>
<defs>
<linearGradient id="paint0_linear_1_5563" x1="144.632" y1="0" x2="144.632" y2="119.265" gradientUnits="userSpaceOnUse">
<stop stop-color="#FFB600"/>
<stop offset="1" stop-color="#FF652A" stop-opacity="0.99"/>
</linearGradient>
<linearGradient id="paint1_linear_1_5563" x1="144.632" y1="0" x2="144.632" y2="119.265" gradientUnits="userSpaceOnUse">
<stop stop-color="#FBF7F7" stop-opacity="0.2"/>
<stop offset="1" stop-color="#22213B" stop-opacity="0.5"/>
</linearGradient>
</defs>
</svg>
