<svg width="170" height="169" viewBox="0 0 170 169" fill="none" xmlns="http://www.w3.org/2000/svg">
<rect x="85" y="0.353553" width="118.765" height="118.765" rx="9.75" transform="rotate(45 85 0.353553)" fill="url(#paint0_linear_1_5621)" fill-opacity="0.1" stroke="url(#paint1_linear_1_5621)" stroke-width="0.5"/>
<path d="M66.4403 88.7243C66.366 85.7905 64.3522 83.2291 61.4715 82.6498V67.0448C61.4715 65.4452 58.9866 65.4429 58.9866 67.0448V82.6599C57.9211 82.8835 56.932 83.3804 56.1163 84.1018C55.3006 84.8232 54.6864 85.7443 54.3338 86.7748C53.884 88.0966 54.019 89.5939 54.019 90.9708V97.2704C54.019 98.7047 53.9841 100.143 54.019 101.577C54.0898 104.535 56.1621 107.076 58.9866 107.662V119.381C58.9866 120.98 61.4715 120.983 61.4715 119.381V107.639C63.9722 107.089 65.9894 105.118 66.3638 102.47C66.5448 101.196 66.4403 99.8577 66.4403 98.5764C66.4403 95.2962 66.5223 92.0057 66.4403 88.7243ZM63.9553 101.28C63.9475 103.033 63.0131 104.522 61.4715 105.075C61.072 105.216 60.6525 105.292 60.2291 105.3C59.8072 105.3 59.3887 105.226 58.9922 105.082C57.5372 104.559 56.5376 103.142 56.5084 101.519C56.4893 100.447 56.5084 99.3729 56.5084 98.3008C56.5084 95.1949 56.4893 92.089 56.5084 88.9842C56.5185 87.2968 57.3821 85.768 58.9922 85.2056C59.1047 85.1673 59.2171 85.1325 59.3295 85.1043C60.0396 84.9241 60.7876 84.9633 61.4749 85.2168C62.1912 85.4868 62.8103 85.9651 63.2524 86.5903C63.6945 87.2154 63.9393 87.9587 63.9553 88.7243C64.0194 91.405 63.9553 94.0947 63.9553 96.7754C63.9553 98.2794 63.9632 99.7812 63.9553 101.282V101.28Z" fill="#757575"/>
<path d="M83.0023 72.1879C82.9775 69.2136 81.0199 66.5194 78.0335 65.931V56.0014C78.0335 54.4017 75.5497 54.3995 75.5497 56.0014V65.9479C74.2048 66.2396 72.9921 66.9633 72.0965 68.0086C71.2008 69.0539 70.6714 70.3636 70.5888 71.7379C70.364 75.5728 70.581 79.4853 70.581 83.3246C70.581 85.336 70.5652 87.3485 70.581 89.361C70.6057 92.3982 72.6431 95.0463 75.5497 95.6425V107.991C75.5497 109.59 78.0335 109.593 78.0335 107.991V95.6167C80.8783 94.9946 82.9393 92.549 83.0023 89.5072C83.0337 87.9897 83.0023 86.4699 83.0023 84.949C83.0023 80.6945 83.045 76.4412 83.0023 72.1879ZM80.406 90.4578C80.2561 91.0521 79.9608 91.5998 79.5466 92.0514C79.1325 92.5031 78.6125 92.8446 78.0335 93.0451C77.6361 93.1874 77.2186 93.266 76.7967 93.2779C76.3755 93.2789 75.9573 93.2082 75.5598 93.0687C74.0138 92.5209 73.0861 90.964 73.0749 89.244C73.0682 87.7175 73.0749 86.1898 73.0749 84.6621V72.7245C73.0749 70.8942 73.7001 69.1483 75.5598 68.5026C75.6284 68.479 75.6959 68.4531 75.7679 68.4318C76.5148 68.2098 77.3136 68.237 78.0436 68.5094C79.4705 69.0415 80.5038 70.4611 80.5286 72.1271C80.5814 75.6909 80.5286 79.2603 80.5286 82.824V88.8019C80.5185 89.3598 80.5432 89.9122 80.406 90.4589V90.4578Z" fill="#757575"/>
<path d="M95.047 66.0355C94.8974 65.9927 94.7456 65.9567 94.5972 65.923V55.9989C94.5972 54.3993 92.1123 54.397 92.1123 55.9989V65.9399C90.5973 66.2575 89.2513 67.1196 88.3286 68.3629C87.4595 69.543 87.1424 70.9289 87.1379 72.3699C87.1177 78.4029 87.1379 84.437 87.1379 90.4699V99.6448C87.1379 100.265 87.1255 100.882 87.1379 101.507C87.1773 103.627 88.1499 105.548 89.9163 106.751C90.5793 107.193 91.3234 107.499 92.1055 107.651V116.473C92.1055 118.072 94.5905 118.074 94.5905 116.473V107.627C95.6555 107.406 96.6447 106.912 97.4607 106.192C98.2767 105.473 98.8914 104.553 99.2444 103.524C99.5513 102.624 99.5592 101.708 99.5592 100.78V73.2969C99.5592 72.7772 99.5817 72.2518 99.5513 71.7332C99.3984 69.0919 97.6117 66.7667 95.047 66.0355ZM96.2557 103.925C95.8222 104.46 95.2465 104.862 94.5949 105.084C94.1947 105.222 93.7757 105.298 93.3525 105.309C92.9306 105.308 92.5122 105.233 92.1156 105.089C91.3966 104.822 90.775 104.343 90.3319 103.716C89.8888 103.09 89.6449 102.344 89.6318 101.576C89.6217 101.151 89.6318 100.725 89.6318 100.3V74.0551C89.6318 71.9762 89.4958 69.7264 91.7502 68.6487C91.8692 68.5922 91.9912 68.5422 92.1156 68.4991C93.0399 68.1891 94.048 68.2475 94.9303 68.6621C95.8126 69.0768 96.5011 69.8157 96.8528 70.7253C97.1012 71.4002 97.0776 72.0752 97.0776 72.7726V98.7663C97.0788 100.447 97.3835 102.528 96.2557 103.925Z" fill="#757575"/>
<path d="M116.118 59.3053C115.96 56.6651 114.174 54.3399 111.61 53.6087C111.459 53.5659 111.309 53.5299 111.16 53.4962V50.2002C111.16 48.6016 108.676 48.5983 108.676 50.2002V53.5142C107.164 53.8336 105.82 54.696 104.9 55.9384C104.03 57.1184 103.712 58.5043 103.708 59.9454C103.687 65.9783 103.708 72.0124 103.708 78.0454V87.2203C103.708 87.8401 103.696 88.4577 103.708 89.082C103.747 91.2025 104.72 93.1239 106.486 94.3264C107.15 94.7683 107.894 95.0741 108.676 95.2264V103.627C108.676 105.226 111.16 105.229 111.16 103.627V95.2027C112.225 94.9817 113.215 94.4871 114.031 93.7676C114.847 93.048 115.461 92.1284 115.814 91.099C116.121 90.2047 116.129 89.2834 116.129 88.3553V60.87C116.126 60.3503 116.149 59.825 116.118 59.3053ZM112.818 91.4983C112.385 92.036 111.808 92.4394 111.155 92.6615C110.756 92.7997 110.339 92.8756 109.918 92.8865C109.494 92.8843 109.073 92.8082 108.675 92.6615C107.956 92.3937 107.335 91.9152 106.891 91.2885C106.448 90.6618 106.204 89.9159 106.192 89.1484C106.181 88.7232 106.192 88.2968 106.192 87.8716V61.6271C106.192 59.5494 106.054 57.2984 108.309 56.2275C108.428 56.1711 108.551 56.1208 108.675 56.0768C109.6 55.7656 110.609 55.8233 111.493 56.2377C112.376 56.6522 113.066 57.3915 113.418 58.3019C113.665 58.9768 113.643 59.6518 113.643 60.3492V86.3428C113.642 88.0201 113.945 90.1012 112.818 91.4983Z" fill="#757575"/>
<path d="M97.0799 91.8301V76.7123C97.0799 76.1003 97.1024 75.503 96.8551 74.9124C96.104 73.1271 93.6977 72.2711 91.7469 73.09C89.4981 74.0361 89.6285 76.0148 89.6285 77.8406V100.902C89.6285 101.275 89.6184 101.65 89.6285 102.026C89.6757 103.814 91.2825 105.307 93.3548 105.307C94.4792 105.28 95.5395 104.875 96.258 104.093C97.3824 102.865 97.0811 101.037 97.0811 99.5561L97.0799 91.8301Z" fill="#C82022"/>
<path d="M80.518 74.7045C80.4809 72.5345 78.2242 70.8347 75.7572 71.4602C73.7333 71.972 73.0587 73.5627 73.0587 75.2298V85.7186C73.0587 87.0595 73.0519 88.4016 73.0587 89.7425C73.0688 91.6222 74.5069 93.2837 76.7861 93.2837C78.4862 93.2421 79.9816 92.2713 80.3999 90.8033C80.5371 90.3229 80.5123 89.8381 80.5123 89.3476V84.0987C80.518 80.968 80.5708 77.834 80.518 74.7045Z" fill="#C82022"/>
<path d="M113.641 79.6124V64.7409C113.641 64.138 113.663 63.5496 113.417 62.9703C112.665 61.2132 110.258 60.3706 108.307 61.1761C106.058 62.1075 106.19 64.0536 106.19 65.8512V88.5477C106.19 88.9155 106.18 89.2845 106.19 89.6512C106.236 91.4106 107.844 92.8798 109.916 92.8798C111.041 92.8528 112.101 92.4546 112.818 91.6851C113.943 90.4769 113.643 88.6771 113.643 87.2214L113.641 79.6124Z" fill="#C82022"/>
<path d="M63.9547 90.5013C63.8985 88.373 61.6811 86.7475 59.3255 87.2728C57.4972 87.68 56.5145 89.1289 56.5021 90.7364C56.483 93.5105 56.5021 96.2834 56.5021 99.0609C56.5021 100.018 56.483 100.973 56.5021 101.935C56.5393 103.769 58.1247 105.31 60.2284 105.31C62.4986 105.254 63.9446 103.666 63.9547 101.716C63.9626 100.376 63.9547 99.035 63.9547 97.6941C63.9547 95.2969 64.0188 92.8952 63.9547 90.5013Z" fill="#C82022"/>
<defs>
<linearGradient id="paint0_linear_1_5621" x1="144.632" y1="0" x2="144.632" y2="119.265" gradientUnits="userSpaceOnUse">
<stop stop-color="#FFB600"/>
<stop offset="1" stop-color="#FF652A" stop-opacity="0.99"/>
</linearGradient>
<linearGradient id="paint1_linear_1_5621" x1="144.632" y1="0" x2="144.632" y2="119.265" gradientUnits="userSpaceOnUse">
<stop stop-color="#FBF7F7" stop-opacity="0.2"/>
<stop offset="1" stop-color="#22213B" stop-opacity="0.5"/>
</linearGradient>
</defs>
</svg>
