<svg width="170" height="169" viewBox="0 0 170 169" fill="none" xmlns="http://www.w3.org/2000/svg">
<rect x="85" y="0.353553" width="118.765" height="118.765" rx="9.75" transform="rotate(45 85 0.353553)" fill="url(#paint0_linear_1_5542)" fill-opacity="0.1" stroke="url(#paint1_linear_1_5542)" stroke-width="0.5"/>
<path d="M111.078 65.8732C113.175 64.9314 114.112 62.4674 113.17 60.3698C112.229 58.2722 109.766 57.3353 107.669 58.2771C105.573 59.2189 104.636 61.6829 105.578 63.7805C106.519 65.8781 108.982 66.8151 111.078 65.8732Z" fill="#C82022"/>
<path d="M110.237 110.777C111.863 109.152 111.863 106.515 110.237 104.89C108.612 103.264 105.977 103.264 104.352 104.89C102.727 106.515 102.727 109.152 104.352 110.777C105.977 112.403 108.612 112.403 110.237 110.777Z" fill="#C82022"/>
<path d="M61.9524 110.178C64.2507 110.178 66.1139 108.314 66.1139 106.015C66.1139 103.716 64.2507 101.852 61.9524 101.852C59.6541 101.852 57.791 103.716 57.791 106.015C57.791 108.314 59.6541 110.178 61.9524 110.178Z" fill="#C82022"/>
<path d="M65.9917 63.3626C66.5079 61.122 65.1108 58.887 62.8713 58.3705C60.6317 57.8541 58.3977 59.2518 57.8815 61.4924C57.3653 63.733 58.7623 65.968 61.0019 66.4844C63.2414 67.0009 65.4754 65.6032 65.9917 63.3626Z" fill="#C82022"/>
<path d="M98.7638 76.5235L98.7503 81.517V82.6655V84.2551L98.7278 91.9945C98.728 92.0045 98.7254 92.0144 98.7205 92.0231C98.7156 92.0318 98.7084 92.039 98.6997 92.044L85.3295 99.8172C85.3208 99.8222 85.3111 99.8248 85.3011 99.8248C85.2912 99.8248 85.2815 99.8221 85.2729 99.817C85.2643 99.812 85.2572 99.8048 85.2524 99.7961C85.2475 99.7875 85.245 99.7777 85.2451 99.7677L85.289 84.2967C85.2888 84.2868 85.2913 84.2771 85.2963 84.2686C85.3012 84.26 85.3084 84.253 85.3171 84.2483L98.6862 76.4739C98.6946 76.4708 98.7036 76.4696 98.7125 76.4705C98.7214 76.4714 98.7299 76.4744 98.7375 76.4792C98.745 76.484 98.7513 76.4905 98.7559 76.4982C98.7605 76.5059 98.7632 76.5145 98.7638 76.5235Z" fill="#C82022"/>
<path d="M99.8772 89.0767L99.894 82.9852C99.894 81.5071 97.6025 81.5048 97.598 82.9852L97.5845 87.8707C97.5845 88.8997 97.5815 89.929 97.5755 90.9587C97.5755 91.061 97.5665 91.1746 97.5587 91.2961C97.2607 91.4806 96.9425 91.7371 96.7648 91.8406L94.4508 93.1905L88.406 96.7048L86.4293 97.8544C86.5148 93.5797 86.4203 89.2915 86.4293 85.0191C86.4293 85.0011 86.4293 84.9808 86.4293 84.9549C86.508 84.9077 86.5845 84.8604 86.661 84.811C90.349 82.7625 93.9696 80.5779 97.6093 78.4383C97.6093 78.8942 97.6093 79.3494 97.6093 79.8039C97.6093 81.2821 99.9008 81.2843 99.9053 79.8039V77.8915C99.9053 77.2875 100.039 76.4573 99.7243 75.9083C99.664 75.8074 99.5881 75.7166 99.4994 75.6394C99.1902 75.2952 98.7123 75.0837 98.2862 74.8396L95.1165 72.997L87.4863 68.5896C86.9387 68.2735 86.39 67.8808 85.8109 67.6221C85.0081 67.2633 84.4616 67.6896 83.7982 68.0721L76.7538 72.1668C74.9548 73.2141 72.95 74.1433 71.2566 75.3627C70.8822 75.6327 70.7045 75.942 70.6697 76.2514C70.5915 76.5801 70.5538 76.917 70.5572 77.2548C70.5505 79.9389 70.543 82.6226 70.5348 85.3059C70.5348 87.495 70.4077 89.719 70.5156 91.9059C70.5561 92.7214 71.0621 93.0105 71.6726 93.3683L74.5039 95.0039L82.3432 99.5317C83.046 99.9378 83.7398 100.378 84.4605 100.754C84.6021 100.829 84.7535 100.883 84.9103 100.914C85.0258 100.954 85.1469 100.974 85.2689 100.975C85.7693 100.975 86.1955 100.649 86.6115 100.407L88.7107 99.1864L94.9287 95.572C96.3252 94.7598 97.7633 93.9971 99.1295 93.1298C100.304 92.3749 99.8738 90.2781 99.8772 89.0767ZM84.1097 92.4514L84.0962 97.2886C84.0962 97.4888 84.0962 97.6891 84.0962 97.8904L81.1233 96.1716C78.735 94.7939 76.3476 93.4151 73.9608 92.0352L72.9084 91.4278L72.8353 91.3782C72.8353 91.178 72.8184 90.9744 72.8184 90.7865C72.8267 88.1092 72.8342 85.4319 72.8409 82.7546C72.8454 81.3297 72.8495 79.9014 72.8533 78.4697V78.4203L72.9848 78.4956L74.1801 79.1863L79.1668 82.0672L81.9879 83.6962C82.7019 84.109 83.4092 84.5342 84.1243 84.9336C84.1243 85.0573 84.1243 85.1833 84.1243 85.3104L84.1097 92.4514ZM86.1842 82.416C85.893 82.5847 85.5804 82.7433 85.2779 82.9143C85.0665 82.8018 84.8552 82.6972 84.6775 82.5937L77.786 78.6137L74.8266 76.9039L73.999 76.4258C77.3565 74.4759 80.7132 72.526 84.0692 70.5762L85.1138 69.9687C85.1284 69.9597 85.1531 69.9485 85.1801 69.935C85.3544 70.0317 85.5388 70.1206 85.7007 70.2139L92.6878 74.2502L96.4736 76.437L93.6761 78.0637L88.9682 80.8017L86.4046 82.2911L86.1842 82.416Z" fill="#757575"/>
<path d="M84.0626 56.2289V60.0109C84.0626 61.489 86.3586 61.4913 86.3586 60.0109V56.2278C88.3049 55.7272 89.7003 53.9993 89.8814 51.953C89.8958 51.8657 89.9014 51.7772 89.8982 51.6887C89.9014 51.601 89.8958 51.5132 89.8814 51.4266C89.6666 48.9968 87.7382 47 85.2106 47C82.6627 47 80.5229 49.1374 80.5229 51.6887C80.5229 53.8339 82.0499 55.7058 84.0626 56.2289ZM87.6022 51.6842C87.4897 54.7609 82.819 54.7834 82.819 51.6842C82.819 48.585 87.4886 48.6075 87.6022 51.6842Z" fill="#757575"/>
<path d="M85.211 62.0751C84.9082 62.0803 84.6192 62.203 84.405 62.4173C84.1908 62.6316 84.0682 62.9207 84.063 63.2237V64.7986C84.063 65.3993 84.5915 65.9741 85.211 65.9471C85.5138 65.9419 85.8028 65.8192 86.017 65.605C86.2312 65.3907 86.3538 65.1016 86.359 64.7986V63.2237C86.359 62.623 85.8305 62.0481 85.211 62.0751Z" fill="#757575"/>
<path d="M89.8814 116.499C89.7003 114.454 88.3072 112.714 86.3586 112.216V103.651C86.3586 102.173 84.0626 102.171 84.0626 103.651V112.221C82.0521 112.746 80.5229 114.608 80.5229 116.762C80.5229 119.304 82.6593 121.461 85.2106 121.452C87.7382 121.443 89.6666 119.461 89.8814 117.025C89.8957 116.938 89.9014 116.85 89.8982 116.762C89.9014 116.674 89.8957 116.586 89.8814 116.499ZM82.819 116.762C82.819 113.663 87.4886 113.685 87.6022 116.762C87.4886 119.839 82.819 119.861 82.819 116.762Z" fill="#757575"/>
<path d="M57.3753 84.2236C57.3663 81.6937 55.3851 79.7655 52.9507 79.5507C52.8639 79.5357 52.7757 79.5301 52.6876 79.5338C52.5996 79.5301 52.5114 79.5357 52.4245 79.5507C49.9969 79.7655 48 81.6948 48 84.2236C48 86.7716 50.1364 88.9123 52.6876 88.9123C55.2389 88.9123 57.3831 86.7727 57.3753 84.2236ZM52.6876 86.6163C49.5899 86.6163 49.6124 81.9434 52.6876 81.8309C55.7629 81.9434 55.7854 86.6163 52.6876 86.6163Z" fill="#757575"/>
<path d="M59.4664 83.0752C57.9889 83.0752 57.9866 85.3723 59.4664 85.3723H65.7923C67.2697 85.3723 67.272 83.0752 65.7923 83.0752H59.4664Z" fill="#757575"/>
<path d="M117.999 79.5507C117.912 79.5357 117.823 79.5301 117.735 79.5338C117.647 79.5301 117.559 79.5357 117.473 79.5507C115.428 79.7318 113.69 81.1256 113.192 83.0751H104.63C103.152 83.0751 103.15 85.3722 104.63 85.3722H113.197C113.722 87.3835 115.584 88.9123 117.736 88.9123C120.278 88.9123 122.433 86.775 122.424 84.2236C122.417 81.6937 120.432 79.7656 117.999 79.5507ZM117.735 86.6164C114.638 86.6164 114.66 81.9434 117.735 81.8309C120.81 81.9434 120.833 86.6164 117.735 86.6164Z" fill="#757575"/>
<path d="M67.6647 100.154L65.8578 101.961C63.3694 100.202 60.0199 100.588 57.8115 102.579C57.7659 102.616 57.7223 102.655 57.6811 102.697C57.6292 102.748 57.5814 102.802 57.5383 102.86C55.7977 104.813 55.3018 107.567 56.424 109.974C57.5293 112.344 60.1255 113.859 62.7342 113.617C65.4159 113.367 67.7535 111.47 68.4191 108.829C68.6408 107.94 68.6705 107.013 68.5063 106.112C68.3421 105.21 67.9877 104.353 67.4668 103.599L69.2883 101.778C70.334 100.731 68.7115 99.1063 67.6647 100.154ZM65.1224 110.142C64.3464 110.905 63.3018 111.333 62.2136 111.333C61.1253 111.333 60.0807 110.905 59.3047 110.142C57.6856 108.521 57.7587 105.951 59.3047 104.321C60.9362 102.772 63.4987 102.705 65.1224 104.321C65.8858 105.098 66.3137 106.143 66.3137 107.232C66.3137 108.321 65.8858 109.366 65.1224 110.142Z" fill="#757575"/>
<path d="M70.6677 97.1491L69.5861 98.2313C69.161 98.6565 69.1295 99.4361 69.5861 99.8557C69.804 100.066 70.095 100.184 70.3979 100.184C70.7007 100.184 70.9917 100.066 71.2097 99.8557L72.2914 98.7724C72.7164 98.3471 72.749 97.5687 72.2914 97.1491C72.0735 96.9385 71.7825 96.8208 71.4795 96.8208C71.1766 96.8208 70.8856 96.9385 70.6677 97.1491Z" fill="#757575"/>
<path d="M99.7541 71.2983L104.571 66.4791C105.784 67.3286 107.256 67.7266 108.731 67.604C111.413 67.3554 113.751 65.4577 114.417 62.8175C114.731 61.5528 114.656 60.2231 114.204 59.0013C113.751 57.7795 112.942 56.7222 111.881 55.9667C109.39 54.1871 106.026 54.5695 103.81 56.5674C103.763 56.6034 103.72 56.6429 103.679 56.6855C103.627 56.7356 103.579 56.7897 103.536 56.8475C101.795 58.8004 101.3 61.5553 102.422 63.9627C102.57 64.2771 102.745 64.5782 102.944 64.8626L98.1328 69.6761C97.0848 70.7201 98.7073 72.3456 99.7541 71.2983ZM111.117 58.3054C111.881 59.0811 112.309 60.1262 112.309 61.215C112.309 62.3038 111.881 63.3489 111.117 64.1246C110.342 64.8878 109.297 65.3156 108.209 65.3156C107.121 65.3156 106.077 64.8878 105.301 64.1246C103.681 62.5047 103.755 59.9343 105.301 58.3054C106.931 56.7564 109.495 56.6855 111.117 58.3054Z" fill="#757575"/>
<path d="M112.747 102.695C112.696 102.643 112.642 102.595 112.584 102.552C110.632 100.811 107.879 100.315 105.473 101.438C105.159 101.586 104.858 101.761 104.573 101.96L99.762 97.1468C98.7152 96.0995 97.0915 97.7239 98.1383 98.7701L102.955 103.59C102.106 104.804 101.708 106.276 101.831 107.753C102.079 110.436 103.976 112.774 106.615 113.44C107.879 113.753 109.208 113.679 110.43 113.226C111.651 112.774 112.708 111.964 113.463 110.902C115.242 108.412 114.859 105.045 112.862 102.828C112.827 102.781 112.788 102.737 112.747 102.695ZM111.123 110.14C110.347 110.903 109.303 111.332 108.215 111.332C107.126 111.332 106.082 110.903 105.306 110.14C104.543 109.363 104.116 108.318 104.116 107.23C104.116 106.141 104.543 105.096 105.306 104.319C106.926 102.699 109.495 102.773 111.123 104.319C112.666 105.957 112.733 108.519 111.117 110.142L111.123 110.14Z" fill="#757575"/>
<path d="M60.6158 67.4243C61.5048 67.6459 62.4307 67.6754 63.332 67.5112C64.2333 67.3469 65.0893 66.9925 65.8431 66.4715C67.4525 68.0802 69.0608 69.6892 70.6679 71.2986C71.7148 72.3447 73.3384 70.7215 72.2916 69.6742L67.4814 64.8606C69.24 62.3723 68.8531 59.0212 66.8641 56.8118C66.8274 56.7656 66.7876 56.722 66.7449 56.6813C66.6951 56.6288 66.6409 56.5806 66.583 56.5373C64.631 54.7959 61.8785 54.301 59.4711 55.4236C57.1031 56.5283 55.5897 59.1269 55.8314 61.7356C56.0765 64.4185 57.9768 66.7572 60.6158 67.4243ZM59.3047 58.3057C60.9239 56.6847 63.4931 56.7589 65.1224 58.3057C66.6707 59.9368 66.737 62.5016 65.1224 64.1249C64.3468 64.889 63.302 65.3173 62.2135 65.3173C61.1251 65.3173 60.0803 64.889 59.3047 64.1249C58.5419 63.3488 58.1144 62.3038 58.1144 61.2153C58.1144 60.1268 58.5419 59.0818 59.3047 58.3057Z" fill="#757575"/>
<defs>
<linearGradient id="paint0_linear_1_5542" x1="144.632" y1="0" x2="144.632" y2="119.265" gradientUnits="userSpaceOnUse">
<stop stop-color="#FFB600"/>
<stop offset="1" stop-color="#FF652A" stop-opacity="0.99"/>
</linearGradient>
<linearGradient id="paint1_linear_1_5542" x1="144.632" y1="0" x2="144.632" y2="119.265" gradientUnits="userSpaceOnUse">
<stop stop-color="#FBF7F7" stop-opacity="0.2"/>
<stop offset="1" stop-color="#22213B" stop-opacity="0.5"/>
</linearGradient>
</defs>
</svg>
