<svg width="170" height="169" viewBox="0 0 170 169" fill="none" xmlns="http://www.w3.org/2000/svg">
<rect x="85" y="0.353553" width="118.765" height="118.765" rx="9.75" transform="rotate(45 85 0.353553)" fill="url(#paint0_linear_1_5518)" fill-opacity="0.1" stroke="url(#paint1_linear_1_5518)" stroke-width="0.5"/>
<path d="M120.742 82.2443C121.675 81.3106 121.675 79.7968 120.742 78.8631C119.808 77.9295 118.295 77.9295 117.362 78.8631C116.429 79.7968 116.429 81.3106 117.362 82.2443C118.295 83.1779 119.808 83.1779 120.742 82.2443Z" fill="#C82022"/>
<path d="M69.936 68.4488V80.0757C69.936 83.1114 69.7753 86.2388 70.0556 89.2764C70.3541 91.1127 70.8232 92.9173 71.4569 94.6664C72.2273 96.4522 73.1658 98.1606 74.2595 99.7687C75.2704 101.075 76.4003 102.285 77.6348 103.382C78.6723 104.173 79.7796 104.868 80.9429 105.458C81.9414 105.852 82.9732 106.156 84.0258 106.366C84.506 106.409 84.9861 106.435 85.4691 106.438H85.4972C85.9801 106.438 86.4603 106.409 86.9396 106.366C87.9922 106.156 89.0239 105.852 90.0225 105.458C91.1856 104.867 92.2929 104.173 93.3305 103.382C94.565 102.285 95.6949 101.075 96.7058 99.7687C97.798 98.1605 98.7348 96.452 99.5038 94.6664C100.131 92.9373 100.598 91.1539 100.899 89.339C101.023 87.9183 101.027 86.5014 101.027 85.0723V68.4488C95.6539 67.4393 90.3765 65.8318 85.4831 63.2671C80.586 65.8318 75.3077 67.4375 69.936 68.4488Z" fill="#C82022"/>
<path d="M119.5 107.083C120.719 106.578 121.298 105.179 120.793 103.96C120.288 102.74 118.89 102.16 117.671 102.666C116.451 103.171 115.872 104.569 116.377 105.789C116.882 107.009 118.28 107.589 119.5 107.083Z" fill="#C82022"/>
<path d="M52.2075 82.2448C53.1408 81.3111 53.1408 79.7973 52.2075 78.8636C51.2743 77.93 49.7612 77.93 48.828 78.8636C47.8947 79.7973 47.8947 81.3111 48.828 82.2448C49.7612 83.1784 51.2743 83.1784 52.2075 82.2448Z" fill="#C82022"/>
<path d="M53.1929 105.79C53.698 104.57 53.1189 103.172 51.8996 102.666C50.6803 102.161 49.2824 102.74 48.7773 103.96C48.2722 105.18 48.8513 106.579 50.0706 107.084C51.2899 107.589 52.6878 107.01 53.1929 105.79Z" fill="#C82022"/>
<path d="M101.021 71.8779C100.774 71.8813 100.538 71.9809 100.364 72.1554C100.189 72.33 100.09 72.5657 100.086 72.8126V74.4716C100.086 74.7194 100.185 74.9572 100.36 75.1325C100.535 75.3077 100.773 75.4062 101.021 75.4062C101.268 75.4062 101.506 75.3077 101.681 75.1325C101.856 74.9572 101.955 74.7194 101.955 74.4716V72.8135C101.951 72.5667 101.851 72.3311 101.677 72.1565C101.503 71.9819 101.267 71.882 101.021 71.8779Z" fill="#757575"/>
<path d="M101.956 68.4483C101.956 68.0698 101.668 67.6174 101.269 67.5464C98.3666 67.0404 95.4981 66.3559 92.6799 65.4967C91.2312 65.0493 89.801 64.5449 88.3891 63.9835C87.7588 63.7343 87.136 63.4691 86.5206 63.1881C85.9442 62.9283 85.1445 62.3311 84.5037 62.3311C83.8628 62.3311 83.0631 62.9283 82.4858 63.1881C81.868 63.4679 81.2451 63.733 80.6174 63.9835C79.2073 64.5443 77.7767 65.0487 76.3256 65.4967C73.5074 66.356 70.6389 67.0405 67.7364 67.5464C67.3375 67.6174 67.0498 68.066 67.0498 68.4483V77.476C67.0498 80.3734 66.9564 83.2708 67.0106 86.1682C67.0619 89.1086 67.5552 91.8826 68.5987 94.6408C69.5329 97.1166 71.0678 99.5532 72.8484 101.502C76.2985 105.28 81.4217 108.297 86.7224 107.187C92.1726 106.046 96.384 102.152 99.0662 97.3989C100.595 94.6884 101.713 91.5546 101.896 88.4263C102.094 85.0616 101.964 81.6632 101.964 78.2948C101.964 77.0909 100.096 77.0891 100.096 78.2948C100.096 81.0622 100.126 83.8325 100.088 86.6C100.051 89.2796 99.5865 91.9854 98.486 94.451C96.5111 98.8756 92.9237 103.368 88.1452 104.879C85.7723 105.627 83.5293 105.68 81.1433 104.962C78.7144 104.231 76.6124 102.692 74.8523 100.898C71.2024 97.1774 69.0696 92.1125 68.9014 86.9113C68.8033 83.8718 68.9229 80.822 68.9229 77.7817V69.2213C74.3011 68.2137 79.5636 66.6585 84.5093 64.2975C89.4541 66.6585 94.7174 68.2137 100.096 69.2213V69.9979C100.096 71.2018 101.964 71.2036 101.964 69.9979L101.956 68.4483Z" fill="#757575"/>
<path d="M84.5006 90.7677C85.3113 90.7677 86.0888 90.4455 86.6621 89.872C87.2353 89.2985 87.5573 88.5206 87.5573 87.7095V84.0943C88.2881 83.4691 88.8098 82.6348 89.0521 81.7039C89.2944 80.773 89.2457 79.7901 88.9126 78.8877C88.5795 77.9853 87.978 77.2067 87.1891 76.6567C86.4001 76.1068 85.4617 75.812 84.5001 75.812C83.5386 75.812 82.6002 76.1068 81.8112 76.6567C81.0223 77.2067 80.4208 77.9853 80.0877 78.8877C79.7546 79.7901 79.7059 80.773 79.9482 81.7039C80.1905 82.6348 80.7122 83.4691 81.4429 84.0943V87.7095C81.4429 88.1112 81.522 88.509 81.6757 88.8801C81.8294 89.2512 82.0546 89.5883 82.3386 89.8723C82.6225 90.1563 82.9596 90.3816 83.3306 90.5352C83.7015 90.6888 84.0991 90.7678 84.5006 90.7677Z" fill="#757575"/>
<path d="M123.507 89.3238C123.126 89.3239 122.752 89.4296 122.428 89.629C122.103 89.8285 121.84 90.1139 121.667 90.4538H118.248V88.349C118.244 88.1023 118.145 87.8668 117.97 87.6924C117.796 87.5179 117.561 87.4182 117.314 87.4144H108.483C108.535 85.9189 108.515 84.4235 108.515 82.9178V81.8542H114.176C114.736 83.5262 116.333 84.7646 118.171 84.7646C120.45 84.7646 122.21 82.9402 122.368 80.7317C122.376 80.6732 122.38 80.6141 122.378 80.555C122.38 80.4963 122.376 80.4375 122.368 80.3793C122.211 78.1698 120.45 76.3454 118.171 76.3454C116.075 76.3454 114.292 77.9548 114.005 79.983H108.518V75.178H114.279C114.525 75.1744 114.761 75.0747 114.935 74.9002C115.11 74.7257 115.209 74.4901 115.213 74.2434V68.9393H121.671C121.881 69.3533 122.224 69.6844 122.646 69.8793C123.067 70.0742 123.541 70.1215 123.993 70.0135C124.444 69.9055 124.846 69.6485 125.133 69.2841C125.421 68.9196 125.577 68.4689 125.577 68.0046C125.577 67.5403 125.421 67.0896 125.133 66.7252C124.846 66.3607 124.444 66.1037 123.993 65.9957C123.541 65.8877 123.067 65.935 122.646 66.1299C122.224 66.3248 121.881 66.656 121.671 67.07H114.278C114.031 67.0738 113.796 67.1735 113.621 67.348C113.447 67.5224 113.347 67.7579 113.344 68.0046V73.3087H108.518V62.8005C108.518 62.2556 108.088 61.9182 107.584 61.8659C101.003 61.1724 94.3622 59.6639 88.3637 56.8085C87.7508 56.5169 87.1455 56.2103 86.5476 55.8888C85.9674 55.5757 85.348 55.0673 84.6847 55.0065C83.6365 54.9131 82.5688 55.8477 81.6691 56.3047C78.9272 57.7067 76.0302 58.7797 73.0744 59.6321C69.2643 60.7165 65.3664 61.4639 61.4257 61.8659C60.9221 61.9182 60.4915 62.2509 60.4915 62.8005V70.1842H56.2371V64.8857C56.2332 64.639 56.1336 64.4035 55.9592 64.2291C55.7848 64.0546 55.5494 63.9549 55.3029 63.9511H47.9095C47.6995 63.537 47.3563 63.2059 46.9351 63.011C46.5139 62.8161 46.0394 62.7688 45.5881 62.8768C45.1368 62.9848 44.735 63.2418 44.4475 63.6062C44.1601 63.9707 44.0037 64.4214 44.0037 64.8857C44.0037 65.35 44.1601 65.8007 44.4475 66.1652C44.735 66.5296 45.1368 66.7866 45.5881 66.8946C46.0394 67.0026 46.5139 66.9553 46.9351 66.7604C47.3563 66.5655 47.6995 66.2344 47.9095 65.8204H54.3677V71.1216C54.3716 71.3683 54.4712 71.6038 54.6456 71.7783C54.82 71.9527 55.0554 72.0524 55.3019 72.0563H60.4915V72.36C60.4915 73.5639 62.3599 73.5657 62.3599 72.36V63.6305C68.7518 62.8828 75.0895 61.3986 80.9591 58.7171C81.5819 58.4323 82.1994 58.132 82.8117 57.8161C83.1411 57.646 83.4681 57.4709 83.7926 57.2908C83.9383 57.2104 84.5717 56.9048 84.4699 56.8665H84.5072C84.454 56.9067 84.8949 57.1123 85.022 57.1842C85.6722 57.55 86.333 57.8964 87.0044 58.2236C89.8345 59.5933 92.7828 60.7038 95.8131 61.5415C99.3631 62.5397 102.991 63.2052 106.65 63.6314V81.0719C106.65 83.315 106.721 85.5759 106.629 87.82C106.4 93.4914 104.136 99.1292 100.586 103.534C96.6399 108.433 90.9468 112.017 84.5175 112.063H84.4876C77.3241 112.011 71.0453 107.567 67.1374 101.782C65.1187 98.8088 63.6853 95.4781 62.9139 91.9679C62.4085 89.6369 62.3589 87.3087 62.3589 84.9403V78.4539C62.3589 77.2501 60.4905 77.2473 60.4905 78.4539C60.4905 78.9605 60.4859 79.4708 60.4793 79.9821H55.5719C55.2842 77.9539 53.5008 76.3444 51.4053 76.3444C49.1258 76.3444 47.3658 78.1689 47.2079 80.3774C47.1942 80.4945 47.1942 80.6127 47.2079 80.7298C47.3658 82.9393 49.1258 84.7637 51.4053 84.7637C53.2429 84.7637 54.8404 83.5253 55.4 81.8532H60.4447C60.413 83.7038 60.3906 85.5675 60.4812 87.4134H52.2601C52.0135 87.417 51.778 87.5167 51.6035 87.6912C51.4291 87.8657 51.3295 88.1013 51.3259 88.3481V90.4529H47.9058C47.6958 90.0389 47.3525 89.7077 46.9313 89.5128C46.5102 89.3179 46.0356 89.2706 45.5843 89.3786C45.133 89.4866 44.7312 89.7436 44.4438 90.1081C44.1563 90.4725 44 90.9233 44 91.3875C44 91.8518 44.1563 92.3025 44.4438 92.667C44.7312 93.0315 45.133 93.2884 45.5843 93.3964C46.0356 93.5044 46.5102 93.4572 46.9313 93.2623C47.3525 93.0674 47.6958 92.7362 47.9058 92.3222H52.2601C52.5067 92.3183 52.7421 92.2186 52.9165 92.0442C53.0908 91.8697 53.1905 91.6342 53.1943 91.3875V89.2827H60.6166C60.697 90.1015 60.8082 90.9155 60.9595 91.7212C61.0314 92.1053 61.1127 92.4876 61.2005 92.868H56.4192C56.0549 92.868 55.5934 92.8044 55.2496 92.9493C54.8909 93.1007 54.6209 93.498 54.364 93.7765L52.9234 95.3383C52.475 95.8237 52.0269 96.3094 51.5791 96.7954C51.2643 97.1356 50.9831 97.3935 50.9354 97.8908C50.842 98.8329 50.8943 99.8124 50.9214 100.774C49.1174 101.198 47.8077 102.806 47.6722 104.7C47.6643 104.758 47.6612 104.817 47.6629 104.875C47.6612 104.934 47.6643 104.993 47.6722 105.052C47.8301 107.261 49.5911 109.085 51.8696 109.085C54.1482 109.085 56.0736 107.164 56.0736 104.879C56.0736 102.911 54.6545 101.216 52.8038 100.78V98.2282L56.0175 94.7457H61.6994C63.5744 100.928 67.5392 106.577 72.8651 110.205C76.289 112.541 80.3173 113.906 84.4708 113.943H84.5278C95.5094 113.857 104.322 104.712 107.349 94.584C107.507 94.6966 107.697 94.755 107.891 94.7504H113.554L116.767 98.2329V100.784C114.914 101.221 113.498 102.915 113.498 104.884C113.498 107.173 115.416 109.09 117.702 109.09C119.988 109.09 121.741 107.266 121.899 105.057C121.912 104.94 121.912 104.821 121.899 104.704C121.764 102.81 120.449 101.199 118.64 100.779C118.645 99.9003 118.655 99.0198 118.64 98.1422C118.618 97.1515 117.695 96.4767 117.059 95.7869C116.271 94.9336 115.525 93.94 114.65 93.1764C113.97 92.5839 112.44 92.8755 111.617 92.8755H107.892C107.861 92.8755 107.831 92.8755 107.799 92.8755C107.905 92.4212 107.998 91.9661 108.079 91.51C108.211 90.7697 108.303 90.0276 108.369 89.2855H116.375V91.3903C116.379 91.6371 116.478 91.8727 116.653 92.0472C116.827 92.2217 117.063 92.3214 117.309 92.325H121.664C121.83 92.6525 122.081 92.9297 122.39 93.128C122.699 93.3263 123.055 93.4386 123.422 93.4533C123.789 93.468 124.153 93.3845 124.477 93.2116C124.801 93.0386 125.072 92.7823 125.264 92.4692C125.456 92.156 125.561 91.7973 125.569 91.4301C125.576 91.0628 125.485 90.7003 125.306 90.3798C125.126 90.0594 124.864 89.7926 124.548 89.607C124.231 89.4214 123.87 89.3236 123.503 89.3238H123.507ZM118.062 78.2184C119.41 78.153 120.465 79.24 120.507 80.555C120.466 81.8308 119.479 82.8916 118.172 82.8916C117.552 82.9059 116.952 82.6734 116.504 82.2452C116.056 81.8171 115.797 81.2285 115.782 80.6087C115.768 79.989 116 79.3891 116.428 78.9408C116.856 78.4925 117.445 78.2327 118.064 78.2184H118.062ZM51.509 82.8916C50.161 82.958 49.1062 81.871 49.0642 80.555C49.1053 79.2792 50.0918 78.2184 51.3997 78.2184C52.0191 78.2041 52.6188 78.4367 53.0669 78.8648C53.515 79.2929 53.7747 79.8816 53.789 80.5013C53.8032 81.121 53.5708 81.721 53.1429 82.1692C52.715 82.6175 52.1266 82.8774 51.5072 82.8916H51.509ZM54.207 104.877C54.2026 105.478 53.9695 106.054 53.5551 106.488C53.1407 106.922 52.5763 107.182 51.9771 107.214C50.6281 107.28 49.5743 106.193 49.5313 104.877C49.5733 103.602 50.5589 102.541 51.8668 102.541C52.4848 102.545 53.0762 102.792 53.5139 103.229C53.9515 103.665 54.2004 104.256 54.207 104.874V104.877ZM120.04 104.877C119.999 106.153 119.012 107.214 117.704 107.214C117.085 107.228 116.485 106.996 116.037 106.567C115.589 106.139 115.329 105.551 115.315 104.931C115.301 104.311 115.533 103.711 115.961 103.263C116.389 102.815 116.978 102.555 117.597 102.541C118.943 102.47 119.997 103.56 120.04 104.874V104.877Z" fill="#757575"/>
<defs>
<linearGradient id="paint0_linear_1_5518" x1="144.632" y1="0" x2="144.632" y2="119.265" gradientUnits="userSpaceOnUse">
<stop stop-color="#FFB600"/>
<stop offset="1" stop-color="#FF652A" stop-opacity="0.99"/>
</linearGradient>
<linearGradient id="paint1_linear_1_5518" x1="144.632" y1="0" x2="144.632" y2="119.265" gradientUnits="userSpaceOnUse">
<stop stop-color="#FBF7F7" stop-opacity="0.2"/>
<stop offset="1" stop-color="#22213B" stop-opacity="0.5"/>
</linearGradient>
</defs>
</svg>
