<svg width="170" height="169" viewBox="0 0 170 169" fill="none" xmlns="http://www.w3.org/2000/svg">
<rect x="85" y="0.353553" width="118.765" height="118.765" rx="9.75" transform="rotate(45 85 0.353553)" fill="url(#paint0_linear_1_5589)" fill-opacity="0.1" stroke="url(#paint1_linear_1_5589)" stroke-width="0.5"/>
<path d="M63.3198 72.1894L61.876 73.6899L62.7011 74.4846L64.1449 72.984L63.3198 72.1894Z" fill="#C82022"/>
<path d="M60.7305 74.8764L59.2866 76.377L60.1117 77.1716L61.5556 75.6711L60.7305 74.8764Z" fill="#C82022"/>
<path d="M71.1001 64.1015L69.6562 65.6021L70.4814 66.3967L71.9252 64.8962L71.1001 64.1015Z" fill="#C82022"/>
<path d="M68.5103 66.7929L67.0664 68.2935L67.8915 69.0881L69.3354 67.5876L68.5103 66.7929Z" fill="#C82022"/>
<path d="M65.9282 69.477L64.4844 70.9775L65.3095 71.7722L66.7534 70.2717L65.9282 69.477Z" fill="#C82022"/>
<path d="M87.3864 67.4765L86.7905 68.4551L88.8214 69.6928L89.4172 68.7143L87.3864 67.4765Z" fill="#C82022"/>
<path d="M83.7414 65.2544L83.1455 66.2329L85.1763 67.4707L85.7722 66.4921L83.7414 65.2544Z" fill="#C82022"/>
<path d="M80.1105 63.0405L79.5146 64.019L81.5455 65.2568L82.1413 64.2783L80.1105 63.0405Z" fill="#C82022"/>
<path d="M103.917 61.3074L102.478 62.7334L103.284 63.5474L104.723 62.1214L103.917 61.3074Z" fill="#C82022"/>
<path d="M101.336 63.8674L99.8975 65.2935L100.703 66.1075L102.142 64.6815L101.336 63.8674Z" fill="#C82022"/>
<path d="M97.8779 67.1343L96.4399 68.5527L97.2417 69.3663L98.6797 67.9479L97.8779 67.1343Z" fill="#C82022"/>
<path d="M109.089 56.1858L107.65 57.6118L108.456 58.4258L109.895 56.9998L109.089 56.1858Z" fill="#C82022"/>
<path d="M106.517 58.7361L105.078 60.1621L105.884 60.9761L107.323 59.5501L106.517 58.7361Z" fill="#C82022"/>
<path d="M73.1154 61.8883L72.0537 62.9917L72.8818 63.7892L73.9435 62.6858L73.1154 61.8883Z" fill="#C82022"/>
<path d="M77.381 61.3745L76.7852 62.353L78.0916 63.1493L78.6875 62.1708L77.381 61.3745Z" fill="#C82022"/>
<path d="M90.8832 69.3036L90.2852 70.2856L91.5609 71.0632L92.1589 70.0811L90.8832 69.3036Z" fill="#C82022"/>
<path d="M95.129 69.3713L94.0684 70.4175L94.8701 71.231L95.9307 70.1849L95.129 69.3713Z" fill="#C82022"/>
<path d="M81.0375 80.9048H70.8223V118.672H81.0375V80.9048Z" fill="#C82022"/>
<path d="M99.9452 88.5356H89.73V118.672H99.9452V88.5356Z" fill="#C82022"/>
<path d="M118.854 69.4375H108.639V118.671H118.854V69.4375Z" fill="#C82022"/>
<path d="M62.7001 96.1748H52.4849V118.673H62.7001V96.1748Z" fill="#C82022"/>
<path d="M81.4763 75.6094H68.8245C68.5221 75.6136 68.2332 75.7357 68.0193 75.9497C67.8055 76.1637 67.6835 76.4526 67.6792 76.7552V118.672C67.6835 118.974 67.8055 119.263 68.0193 119.477C68.2332 119.691 68.5221 119.813 68.8245 119.818H81.4763C81.7799 119.817 82.0709 119.696 82.2856 119.481C82.5003 119.267 82.6211 118.976 82.6217 118.672V76.7603C82.6187 76.4569 82.4973 76.1666 82.2833 75.9515C82.0693 75.7365 81.7797 75.6137 81.4763 75.6094ZM69.9698 81.9362V77.9011H80.331V117.526H69.9698V81.9372V81.9362Z" fill="#757575"/>
<path d="M100.165 83.4565H87.514C87.2115 83.4608 86.9227 83.5829 86.7088 83.7969C86.4949 84.0108 86.3729 84.2998 86.3687 84.6024V118.672C86.3726 118.975 86.4946 119.264 86.7085 119.478C86.9224 119.692 87.2114 119.814 87.514 119.818H100.165C100.468 119.818 100.76 119.697 100.974 119.482C101.189 119.267 101.31 118.976 101.31 118.672V84.6024C101.306 84.2998 101.184 84.0108 100.97 83.7969C100.756 83.5829 100.467 83.4608 100.165 83.4565ZM88.6593 88.8288V85.7482H99.0195V117.526H88.6593V88.8288Z" fill="#757575"/>
<path d="M118.855 64.437H106.209C105.907 64.4413 105.618 64.5634 105.404 64.7773C105.19 64.9913 105.068 65.2803 105.064 65.5829V118.672C105.068 118.975 105.19 119.264 105.404 119.478C105.618 119.692 105.907 119.814 106.209 119.818H118.855C119.159 119.818 119.45 119.697 119.665 119.482C119.879 119.267 120 118.976 120 118.672V65.5829C119.996 65.2803 119.874 64.9913 119.66 64.7773C119.446 64.5634 119.157 64.4413 118.855 64.437ZM107.349 72.1318V66.7307H117.71V117.528H107.349V72.1318Z" fill="#757575"/>
<path d="M62.791 91.0957H50.1453C49.8429 91.1 49.554 91.222 49.3402 91.436C49.1263 91.65 49.0043 91.939 49 92.2415V118.676C49.004 118.979 49.1259 119.268 49.3399 119.482C49.5538 119.696 49.8428 119.818 50.1453 119.822H62.791C63.0947 119.822 63.3858 119.701 63.6005 119.486C63.8153 119.271 63.936 118.98 63.9363 118.676V92.2415C63.932 91.939 63.81 91.65 63.5961 91.436C63.3823 91.222 63.0934 91.1 62.791 91.0957ZM51.2855 93.3874H61.6457V117.526H51.2814V93.3874H51.2855Z" fill="#757575"/>
<path d="M56.4051 84.3338C58.7492 84.3338 60.5176 82.4978 60.7448 80.2575C60.7722 80.0683 60.7722 79.876 60.7448 79.6867C60.5206 77.4413 58.7482 75.6176 56.4051 75.6094C54.0405 75.6001 52.0357 77.609 52.045 79.9716C52.0542 82.3342 54.0292 84.3338 56.4051 84.3338ZM58.4747 79.9716C58.3719 82.6346 54.3356 82.6459 54.3356 79.9716C54.3356 77.2973 58.3698 77.3055 58.4727 79.9716H58.4747Z" fill="#757575"/>
<path d="M75.1512 64.8548C77.4953 64.8548 79.2636 63.0188 79.4909 60.7785C79.5183 60.5892 79.5183 60.397 79.4909 60.2077C79.2667 57.9623 77.4943 56.1386 75.1512 56.1304C72.7866 56.1211 70.7818 58.13 70.791 60.4926C70.8003 62.8552 72.7753 64.8548 75.1512 64.8548ZM77.2208 60.4926C77.118 63.1556 73.0817 63.1669 73.0817 60.4926C73.0817 57.8183 77.1139 57.8265 77.2208 60.4926Z" fill="#757575"/>
<path d="M93.8402 76.246C96.1843 76.246 97.9526 74.41 98.1798 72.1687C98.1983 72.0746 98.2055 71.9786 98.2014 71.8828C98.2055 71.7876 98.1983 71.6923 98.1798 71.5989C97.9567 69.3525 96.1833 67.5298 93.8402 67.5205C91.4756 67.5113 89.4708 69.5211 89.48 71.8828C89.4893 74.2444 91.4643 76.246 93.8402 76.246ZM95.9108 71.8828C95.808 74.5458 91.7706 74.5571 91.7706 71.8828C91.7706 69.2085 95.8028 69.2167 95.9108 71.8828Z" fill="#757575"/>
<path d="M112.529 57.7255C114.872 57.7255 116.642 55.8895 116.868 53.6482C116.886 53.5541 116.893 53.4581 116.889 53.3622C116.893 53.2671 116.886 53.1719 116.869 53.0784C116.645 50.8319 114.871 49.0093 112.529 49C110.165 48.9908 108.159 51.0006 108.168 53.3622C108.177 55.7239 110.153 57.7255 112.529 57.7255ZM114.599 53.3622C114.491 56.0252 110.459 56.0365 110.459 53.3622C110.459 50.6879 114.491 50.6972 114.599 53.3622Z" fill="#757575"/>
<defs>
<linearGradient id="paint0_linear_1_5589" x1="144.632" y1="0" x2="144.632" y2="119.265" gradientUnits="userSpaceOnUse">
<stop stop-color="#FFB600"/>
<stop offset="1" stop-color="#FF652A" stop-opacity="0.99"/>
</linearGradient>
<linearGradient id="paint1_linear_1_5589" x1="144.632" y1="0" x2="144.632" y2="119.265" gradientUnits="userSpaceOnUse">
<stop stop-color="#FBF7F7" stop-opacity="0.2"/>
<stop offset="1" stop-color="#22213B" stop-opacity="0.5"/>
</linearGradient>
</defs>
</svg>
