<svg width="170" height="169" viewBox="0 0 170 169" fill="none" xmlns="http://www.w3.org/2000/svg">
<rect x="85" y="0.353553" width="118.765" height="118.765" rx="9.75" transform="rotate(45 85 0.353553)" fill="url(#paint0_linear_1_5530)" fill-opacity="0.1" stroke="url(#paint1_linear_1_5530)" stroke-width="0.5"/>
<path d="M110.421 69.8833L110.18 70.0239L107.861 71.3738C107.535 71.5639 107.209 71.7866 106.873 71.9722C106.873 72.2838 106.839 72.6168 106.817 72.9138C106.794 73.2108 106.797 73.5111 106.795 73.8047C106.791 75.5806 106.786 77.3565 106.781 79.1324L106.772 82.0999L106.762 85.8695L110.801 83.5185L113.151 82.1528L113.263 82.0876C113.558 81.8794 113.905 81.7141 114.23 81.5251L115.242 80.9379C115.379 80.8569 115.517 80.777 115.656 80.6971L115.691 80.6758L118.124 79.2617C118.335 79.1391 118.544 79.0064 118.757 78.8849C118.757 78.4109 118.757 77.9369 118.757 77.463L118.767 73.8823C118.767 73.4976 118.737 73.1084 118.767 72.7417V72.6011V71.2579C118.771 69.9995 118.775 68.7407 118.778 67.4815L118.785 65.0596C117.365 65.8965 115.91 66.6862 114.489 67.513L110.421 69.8833Z" fill="#C82022"/>
<path d="M119.908 87.483C119.741 87.3061 119.548 87.1545 119.337 87.033L113.739 83.8L118.104 81.261C119.148 80.6536 120.418 80.2486 120.447 78.8762C120.484 77.119 120.457 75.3574 120.461 73.5991C120.461 72.1502 118.213 72.148 118.213 73.5991C118.208 75.0878 118.204 76.5757 118.2 78.0629C118.2 78.2035 118.185 78.3632 118.176 78.5218C117.81 78.7299 117.397 79.0685 117.171 79.1968C115.089 80.4064 113.007 81.6165 110.926 82.8269L109.709 83.5356L107.364 84.899L107.235 84.9733L107.245 81.5287V81.4376C107.253 78.6253 107.345 75.7972 107.297 72.9827C107.316 72.7577 107.335 72.5147 107.337 72.2852C107.588 72.13 107.829 71.9624 108.048 71.8353L108.78 71.4089L114.478 68.096L118.128 65.9744L118.241 65.9126C118.241 66.2017 118.241 66.4908 118.241 66.7799C118.241 67.6648 118.238 68.5494 118.233 69.4336C118.233 70.8836 120.482 70.8847 120.482 69.4336C120.482 68.4586 120.484 67.4818 120.49 66.5031C120.49 65.6313 120.75 64.2679 120.293 63.4715C120.28 63.449 120.265 63.4287 120.25 63.4074C119.985 62.9821 119.43 62.6863 118.977 62.4242L115.973 60.6952L108.487 56.3721C107.898 56.0346 107.315 55.624 106.698 55.3394C105.798 54.9243 105.078 55.5351 104.327 55.9716L99.6487 58.6928C99.6487 57.3151 99.6525 55.9379 99.66 54.5609C99.66 53.6351 99.9523 52.1266 99.4643 51.2773C99.4576 51.266 99.4508 51.257 99.4441 51.2469C99.1877 50.7441 98.5558 50.4595 98.0633 50.1805L91.0482 46.1308C89.3503 45.1498 87.6581 43.9574 85.8759 43.1407C85.0697 42.7729 84.5064 43.1992 83.8441 43.5839L80.8588 45.3197L73.3725 49.6731C72.8002 50.0106 72.1672 50.302 71.6275 50.6856C71.2665 50.9432 71.09 51.2402 71.0461 51.5394C70.9491 51.7766 70.898 52.0301 70.8955 52.2864C70.8539 54.4237 70.8662 56.5611 70.8707 58.6984L67.61 56.8164C66.7745 56.3338 65.9436 55.7511 65.0677 55.3473C64.2536 54.9715 63.6925 55.3945 63.0235 55.7837L60.0382 57.5195L52.5565 61.8673C51.983 62.2048 51.35 62.4962 50.8103 62.8798C50.5595 63.0441 50.3693 63.2858 50.2683 63.5682C50.1019 63.9698 50.0794 64.4884 50.0771 64.9339C50.0771 66.0588 50.0741 67.1837 50.0682 68.3087C50.0607 71.2335 50.0524 74.1552 50.0434 77.0741C50.0434 77.7558 49.9782 78.4701 50.0378 79.1507C50.1221 80.1125 50.9373 80.4139 51.6637 80.838C53.3559 81.8156 55.0425 82.8258 56.7336 83.8303L53.9057 85.4738C53.3008 85.8248 51.4321 86.6089 50.5921 87.5527C50.3268 87.7214 50.1322 88.0274 50.076 88.5213C49.9636 89.4988 50.0693 90.5461 50.067 91.5327C50.067 92.9827 52.3158 92.9838 52.3158 91.5327V90.2953L53.0051 90.6935L53.9384 91.2323L60.1462 94.8186L62.2409 96.029C62.558 96.2113 62.9459 96.5172 63.3282 96.7343C63.2788 97.7951 63.3676 98.8976 63.3642 99.9415L63.344 107.054L63.3372 109.383L63.1225 109.258L59.0465 106.904L54.7288 104.406C53.9485 103.956 53.1265 103.334 52.2855 102.944C52.2855 102.926 52.2855 102.908 52.2855 102.891L52.2922 100.612C52.2922 99.163 50.0434 99.1608 50.0434 100.612C50.0434 101.57 49.9512 102.568 50.0355 103.522C50.1053 104.32 50.582 104.604 51.1881 104.955L56.7123 108.146L62.8065 111.667C63.2192 111.904 63.6858 112.267 64.1659 112.342C64.2697 112.357 64.3748 112.362 64.4796 112.357H64.5156C65.0385 112.357 65.4388 112.056 65.8716 111.804L68.008 110.566L70.8651 108.906C70.8393 111.156 70.7403 113.434 70.8505 115.678C70.8932 116.539 71.4363 116.828 72.075 117.197L74.9029 118.83L82.5151 123.226C83.1695 123.604 83.8138 124.014 84.485 124.365C84.6839 124.471 84.9041 124.531 85.1293 124.541C85.196 124.555 85.2637 124.562 85.3317 124.563C85.976 124.563 86.5978 124.061 87.1307 123.749L90.3623 121.87L97.5809 117.68C98.0487 117.407 98.5817 117.167 99.0179 116.845C99.8388 116.236 99.6274 115.13 99.6296 114.227C99.6341 112.453 99.639 110.678 99.6442 108.904L102.471 110.536L104.959 111.974C105.176 112.099 105.41 112.193 105.654 112.252C105.808 112.329 105.978 112.369 106.15 112.37C106.795 112.37 107.416 111.868 107.949 111.556L111.182 109.678L118.396 105.483C118.865 105.211 119.397 104.971 119.833 104.647C120.546 104.119 120.441 103.37 120.443 102.591L120.466 94.6633L120.478 90.1884C120.478 89.4865 120.646 88.501 120.279 87.8699C120.19 87.7121 120.062 87.5791 119.908 87.483ZM99.0618 61.6378L104.091 58.713L105.58 57.848C105.652 57.8052 105.872 57.7107 106.084 57.605C106.248 57.695 106.421 57.7771 106.569 57.8648L113.373 61.7942L117.003 63.8911L117.115 63.9563L116.448 64.3444L114.2 65.6516L108.454 68.9926L107.169 69.7395C106.871 69.9128 106.445 70.0838 106.089 70.2919C105.905 70.1884 105.714 70.0916 105.535 69.9882L103.811 68.9926L99.0888 66.2658L95.0814 63.9507L96.1586 63.3241C97.1132 62.7706 98.1634 62.2779 99.0618 61.6378ZM99.6454 76.2213C99.6401 76.1824 99.6334 76.1449 99.6251 76.1089C99.6251 76.092 99.6184 76.0762 99.6139 76.0605C99.6003 76.0041 99.5834 75.9485 99.5633 75.894C99.5606 75.8844 99.5572 75.875 99.5532 75.8659C99.5284 75.8003 99.4987 75.7368 99.4643 75.6758V75.6701C99.4222 75.5803 99.3685 75.4963 99.3047 75.4204L99.2822 75.3889C99.0427 75.0863 98.6503 74.9164 98.3219 74.7263L96.497 73.6723L93.9446 72.1975C93.9446 71.5315 93.9465 70.8648 93.9503 70.1974C93.9694 69.9173 93.9503 69.6192 93.9503 69.3177C93.9503 68.261 93.9532 67.2043 93.9592 66.1476V65.9069L103.885 71.644C104.21 71.8319 104.61 72.148 105.002 72.3674C105.002 72.5507 105.017 72.7352 105.017 72.9107C105.009 75.4845 105.002 78.0583 104.994 80.6322C104.994 82.0878 104.99 83.5431 104.982 84.998L102.351 83.4782L99.6521 81.9202C99.6521 81.0045 99.6547 80.0885 99.66 79.172C99.66 78.5721 99.66 77.9747 99.66 77.38C99.669 76.9976 99.7038 76.5971 99.6454 76.2213ZM97.3887 86.2174L97.3797 89.4909V90.7902C97.184 90.9027 96.994 91.022 96.8006 91.1345L94.5765 92.4281L94.5439 92.4461L94.1661 92.6711L93.2419 93.2077C92.945 93.3809 92.6279 93.5317 92.3581 93.7218L92.2547 93.7825L90.107 95.0312L86.4122 97.1731C86.4122 96.0241 86.4152 94.8756 86.4212 93.7274C86.4212 92.823 86.4239 91.9185 86.4291 91.0141L86.4426 86.1443C86.4426 85.8766 86.4538 85.6032 86.4617 85.3299C86.4696 85.0565 86.5134 84.7539 86.5134 84.4693C86.8204 84.2994 87.1195 84.0958 87.413 83.9226L89.5336 82.6852L89.7585 82.5569L93.4847 80.3948C94.7846 79.6389 96.1147 78.9178 97.4134 78.1529L97.4067 80.3656L97.3965 83.818V85.0464V85.1701C97.3617 85.5076 97.3898 85.8665 97.3887 86.2174ZM70.8932 76.4306C70.8932 76.5037 70.8932 76.5768 70.8932 76.65V76.8603V77.7974L70.882 81.9067L69.2898 82.8325L67.9169 83.6301L65.5973 84.98L65.6074 81.5355C65.6157 78.8537 65.6231 76.1718 65.6299 73.49C65.6299 73.1593 65.6985 72.6936 65.6996 72.2774C66.0066 72.1064 66.3045 71.9039 66.5991 71.7307L72.7541 68.1511L74.0618 67.3918L76.1689 66.1589C76.2904 66.088 76.4365 66.0127 76.594 65.9339C76.594 66.9614 76.5913 67.9884 76.5861 69.0151C76.5861 70.0763 76.5831 71.1371 76.5771 72.1975L73.7335 73.85C73.2309 74.1425 72.3358 74.525 71.7095 75.0233C71.3574 75.2658 71.0876 75.61 70.936 76.0099C70.892 76.1443 70.8774 76.2866 70.8932 76.4272V76.4306ZM73.1061 89.6574V88.3075C73.1061 87.6641 73.1079 87.021 73.1117 86.3783L73.1218 82.7043C73.1218 82.6323 73.1218 82.5603 73.1218 82.4883C73.1803 81.9078 73.1218 81.2948 73.1218 80.7121V80.4207C73.1218 80.2182 73.1218 80.0146 73.1218 79.811C73.1218 79.6265 73.1218 79.442 73.1218 79.2575V78.0988L73.9696 78.5882L76.0734 79.8031L82.7613 83.6661C82.9333 83.7662 83.1065 83.8708 83.2785 83.9777C83.554 84.1599 83.861 84.3849 84.1646 84.5548C84.1646 84.7382 84.1792 84.9227 84.1781 85.0981C84.1713 87.672 84.1642 90.2458 84.1567 92.8196C84.1522 94.2753 84.1481 95.7305 84.1443 97.1854L82.795 96.4081L80.3956 95.0222L78.2592 93.7848L73.9685 91.31L73.7582 91.1885C73.5558 91.076 73.3253 90.8982 73.0937 90.7655C73.0937 90.6777 73.0937 90.59 73.0937 90.5034C73.1049 90.2188 73.1049 89.9364 73.1061 89.6541V89.6574ZM78.9001 78.8289L78.5628 78.6354C77.1415 77.8142 75.7338 76.9424 74.3013 76.1291L75.3402 75.525C76.2926 74.9716 77.3428 74.4788 78.2412 73.8376L78.2648 73.823L78.682 73.5812L82.7636 71.2076L84.5997 70.14C84.7762 70.0376 85.0495 69.9251 85.2833 69.8025L90.1014 72.5845L91.5733 73.4349L92.1827 73.787L92.2153 73.8061L92.2423 73.8219L95.0331 75.4328L96.2586 76.1415C96.0259 76.2978 95.8089 76.4463 95.611 76.56L92.4897 78.3745L90.6906 79.4218L88.1382 80.8954L87.7851 81.1013L86.8317 81.6559C86.3673 81.9258 85.7837 82.1778 85.2721 82.4883C85.0866 82.3837 84.8954 82.2869 84.7166 82.1834L78.9001 78.8289ZM97.4044 56.2956L97.3943 60.0078C96.1912 60.694 94.9701 61.3577 93.7782 62.0709C93.3188 62.293 92.8839 62.5626 92.4807 62.8753C92.2711 63.0143 92.0976 63.2013 91.9747 63.4208C91.9073 63.5325 91.8555 63.6529 91.8206 63.7786C91.5362 64.602 91.7082 65.8192 91.7082 66.5099C91.7082 67.5786 91.7052 68.6473 91.6992 69.7159L90.6737 70.3121L86.482 67.8913L86.4291 67.8598C86.4291 66.4514 86.4332 65.0434 86.4415 63.6357V62.1058C86.4415 61.6862 86.4415 61.2666 86.4415 60.847C86.4415 60.6333 86.4527 60.4151 86.4572 60.1991C86.4572 60.1833 86.4572 60.1676 86.4572 60.1518C86.6945 59.9977 86.9373 59.8143 87.0194 59.7637L90.179 57.9256C91.8484 56.9559 93.5174 55.9855 95.186 55.0143L97.4022 53.7262C97.4067 54.5782 97.4074 55.4335 97.4044 56.2922V56.2956ZM77.1809 50.059L84.2118 45.9722C84.5109 45.7978 84.9359 45.6268 85.2912 45.4187C85.4756 45.5233 85.6668 45.62 85.8455 45.7235L92.556 49.5989L96.1833 51.6958C96.2215 51.7171 96.2598 51.7385 96.2958 51.761L95.8201 52.0377L91.3146 54.6577L88.8668 56.0807C87.7053 56.7557 86.4494 57.3676 85.3148 58.1056C84.7976 57.7951 84.2466 57.5217 83.7328 57.2248L79.288 54.6577L75.4842 52.4607C75.0794 52.2267 74.6757 51.9882 74.2721 51.7509L77.1809 50.059ZM73.133 56.2877L73.1398 53.7082C76.0632 55.4114 78.9743 57.1483 81.9169 58.821C82.6333 59.2839 83.373 59.7097 84.1331 60.0967C84.0791 60.8841 84.1938 61.738 84.1915 62.3465C84.187 64.1344 84.1822 65.9219 84.1769 67.7091C83.5113 68.0409 82.8636 68.5426 82.4285 68.7957L79.8424 70.2964L78.8304 69.7126C78.8304 69.6214 78.8304 69.5303 78.8304 69.4392L78.8371 66.9643C78.8371 66.2976 78.8371 65.6313 78.8371 64.9654C78.8371 64.6954 78.8551 64.4243 78.8371 64.161C78.8371 64.1295 78.8304 64.0992 78.827 64.0677C78.8237 64.0362 78.827 64.0227 78.818 64.0002C78.8098 63.9484 78.7997 63.8967 78.7877 63.8449C78.7871 63.8382 78.7871 63.8314 78.7877 63.8247C78.7727 63.7694 78.7547 63.7149 78.7337 63.6616C78.7337 63.6616 78.7337 63.6514 78.7337 63.6458C78.7093 63.5858 78.6808 63.5275 78.6482 63.4715C78.6159 63.4137 78.5783 63.3591 78.5358 63.3083C78.3193 63.0227 78.0478 62.7833 77.7375 62.6042C77.146 62.2071 76.4298 61.8988 76.0003 61.6513L73.1297 59.9932C73.1267 58.7588 73.1278 57.5236 73.133 56.2877ZM56.3626 62.2566L63.3923 58.172C63.6948 57.9965 64.1277 57.8232 64.4853 57.6095L65.6636 58.2912L71.4217 61.6165L74.2158 63.2341L75.4426 63.9428C75.2098 64.0992 74.9928 64.2465 74.7938 64.3613L72.4696 65.7112L71.6713 66.1702L68.8423 67.8148L66.0111 69.4606C65.5501 69.7283 64.9721 69.9791 64.4639 70.2851C64.23 70.1603 63.995 70.0467 63.7994 69.933L63.4744 69.7452L62.9122 69.4212L58.4686 66.8541L54.0238 64.287L53.574 64.0294L53.4391 63.9518L56.3626 62.2566ZM54.1947 79.7041C53.6089 79.3666 52.9579 78.8537 52.3057 78.5364C52.3001 78.3497 52.2866 78.1618 52.2866 77.9886C52.2948 75.4148 52.3023 72.8406 52.3091 70.266C52.3091 68.8584 52.3128 67.4507 52.3203 66.043C52.3203 65.9969 52.3203 65.9508 52.3203 65.9058C55.7419 67.8992 59.1443 69.9375 62.603 71.8679C62.8436 72.0321 63.1045 72.2166 63.362 72.3606C63.362 72.544 63.3766 72.7285 63.3766 72.9039C63.3683 75.4778 63.3609 78.0516 63.3541 80.6254C63.3541 82.0803 63.3496 83.5352 63.3406 84.9901L62.2387 84.3534L59.5963 82.8269L54.1947 79.7041ZM64.5032 94.732L64.4065 94.678L62.9145 93.8163L58.4708 91.2447L54.0261 88.6776L53.4459 88.3401L55.7565 86.997L58.9532 85.1386C60.4374 86.0026 61.9306 86.8485 63.4407 87.6483C63.5081 87.6855 63.5756 87.7237 63.6442 87.7608L63.715 87.7923L63.7634 87.8137C63.7839 87.8231 63.8049 87.8314 63.8264 87.8384C63.9777 87.9004 64.1378 87.9383 64.3009 87.9509C64.3703 87.9661 64.4412 87.974 64.5122 87.9745C64.5823 87.9738 64.6522 87.9678 64.7214 87.9566H64.7461C64.8055 87.9469 64.8641 87.933 64.9215 87.9149L64.9586 87.9037C64.998 87.8913 65.0362 87.8767 65.0711 87.8609C65.4309 87.7214 65.7648 87.4841 66.0898 87.2985L67.8326 86.286L69.8565 85.1116L70.8685 85.6966L70.8595 88.8722C70.8595 89.4887 70.7471 90.3256 70.8213 91.0692L67.3221 93.1042L67.1456 93.2066L64.7124 94.6217L64.5032 94.732ZM71.4869 99.6175C71.2773 99.7654 71.1246 99.9806 71.054 100.227C71.045 100.249 71.0372 100.27 71.0282 100.292C70.7077 101.114 70.8887 102.383 70.8865 103.094V104.134C70.8865 104.855 70.8865 105.577 70.8865 106.3L67.7359 108.119L65.5894 109.366C65.5984 106.441 65.6067 103.517 65.6142 100.592C65.6142 99.7285 65.6168 98.8661 65.622 98.0044C65.622 97.7243 65.6445 97.4262 65.6558 97.1292C65.7502 97.0482 65.8064 96.8862 65.7682 96.5994L72.1874 92.868L74.642 94.2854L76.5793 95.4047V96.5915L76.2802 96.7647L73.7357 98.244C73.1668 98.5758 72.1042 99.0067 71.4869 99.6153V99.6175ZM84.1724 117.399L84.1657 120.074V121.035C84.1657 121.217 84.1657 121.399 84.1657 121.582L81.2906 119.921L74.2395 115.848C73.919 115.663 73.5187 115.342 73.1274 115.125C73.1387 114.725 73.1094 114.315 73.1106 113.923L73.1308 106.995V106.882C73.1893 106.302 73.1308 105.688 73.1308 105.106V105.041C73.1308 104.763 73.1308 104.485 73.1308 104.205C73.1308 103.633 73.1308 103.062 73.1308 102.492L73.7009 102.821L78.1456 105.388L79.3971 106.112L80.9611 107.012C82.0203 107.624 83.0761 108.35 84.1758 108.914C84.1814 109.078 84.1882 109.237 84.1882 109.383L84.1724 117.399ZM85.2766 106.881C85.0821 106.775 84.8864 106.678 84.7144 106.577L81.4266 104.677L74.2619 100.54L74.3598 100.484L74.4081 100.456L77.2765 98.7873C77.5733 98.6152 77.8904 98.4633 78.1603 98.2732L78.2637 98.2136L79.8457 97.2946L82.7928 98.9966C83.346 99.316 83.8925 99.6659 84.4603 99.9595C84.5832 100.052 84.7254 100.115 84.8763 100.145C85.001 100.176 85.1305 100.182 85.2575 100.163C85.2732 100.163 85.289 100.163 85.3047 100.163C85.4463 100.181 85.59 100.168 85.7264 100.126C85.7934 100.109 85.8585 100.085 85.9209 100.055C86.7293 99.7874 87.5816 99.0854 88.2113 98.7198L90.6737 97.3002L92.2479 98.2069L95.0387 99.8189L95.1432 99.8796L96.2114 100.497L96.3003 100.548C93.0515 102.438 89.8023 104.327 86.5528 106.215C86.1986 106.42 85.7151 106.629 85.2766 106.881ZM97.4055 103.647C97.4055 104.727 97.4025 105.807 97.3965 106.887C97.3905 108.899 97.3846 110.911 97.3786 112.922C97.3786 113.493 97.3786 114.066 97.3786 114.639C97.3786 114.721 97.3493 114.958 97.3336 115.193C97.166 115.294 96.9963 115.408 96.8433 115.5C94.6185 116.793 92.3941 118.087 90.17 119.38L86.5191 121.505L86.4471 121.547C86.5258 117.685 86.455 113.811 86.4471 109.948C86.4617 109.63 86.5123 109.23 86.5123 108.864C86.8193 108.693 87.1184 108.49 87.4118 108.317L89.1895 107.284L89.8203 106.917L93.5668 104.738L96.7455 102.89C96.9187 102.789 97.1514 102.675 97.4078 102.546L97.4055 103.647ZM104.989 105.198C104.989 106.089 104.986 106.981 104.981 107.873V108.834C104.981 109.016 104.981 109.198 104.981 109.381C104.257 108.962 103.532 108.543 102.806 108.124L99.6577 106.303L99.6645 103.835L99.6712 101.489C99.6712 101.234 99.687 100.984 99.6712 100.74C99.6712 100.709 99.6633 100.678 99.66 100.648C99.6566 100.618 99.66 100.598 99.651 100.574C99.6431 100.526 99.633 100.48 99.6217 100.433C99.619 100.423 99.6167 100.413 99.615 100.403C99.6004 100.352 99.5835 100.301 99.5644 100.252C99.5644 100.245 99.5644 100.238 99.5565 100.232C99.5335 100.173 99.5061 100.116 99.4744 100.062V100.055C99.3849 99.8695 99.2527 99.7076 99.0888 99.5827C99.023 99.5275 98.9539 99.4764 98.8819 99.4297C97.9824 98.8526 97.0266 98.3587 96.1057 97.8266L93.9547 96.5836V95.3968C94.5424 95.0541 95.1312 94.7117 95.7212 94.3698L96.5622 93.8804L98.3613 92.832L104.382 96.3102C104.594 96.4329 104.802 96.5656 105.01 96.6882C105.01 96.8626 105.022 97.0325 105.022 97.1877C105.01 99.8598 104.999 102.531 104.992 105.201L104.989 105.198ZM106.113 94.705C105.982 94.6352 105.854 94.5677 105.733 94.498L103.744 93.3483L99.669 90.995C99.7353 90.2559 99.6285 89.4336 99.6296 88.8666C99.6296 87.81 99.6326 86.7529 99.6386 85.6955L100.637 85.115C102.046 85.9531 103.46 86.7866 104.901 87.5583C105.027 87.6281 105.153 87.6978 105.28 87.7642C105.453 87.853 105.641 87.9084 105.834 87.9273C105.936 87.9582 106.041 87.9741 106.148 87.9745C106.197 87.974 106.246 87.9706 106.295 87.9644L106.359 87.9566L106.429 87.9431C106.466 87.9352 106.503 87.9262 106.541 87.916C106.58 87.9059 106.61 87.8958 106.644 87.8846H106.653C107.082 87.7349 107.484 87.4346 107.857 87.2197L109.514 86.2568L111.492 85.106L114.783 87.0071L117.116 88.357L107.906 93.7117L107.28 94.075C106.918 94.282 106.487 94.471 106.119 94.7072L106.113 94.705ZM118.222 93.5756L118.198 101.675C118.198 101.854 118.109 102.529 118.107 103.025C117.954 103.119 117.804 103.222 117.657 103.305L110.984 107.185L107.334 109.308L107.271 109.344C107.258 108.768 107.231 108.191 107.232 107.631C107.233 107.072 107.232 106.493 107.237 105.924C107.237 105.373 107.237 104.823 107.237 104.274L107.247 100.532C107.247 99.6321 107.25 98.7345 107.256 97.839C107.262 97.5139 107.323 97.0741 107.325 96.6758C107.894 96.3597 108.449 95.9919 109.003 95.6634L114.466 92.4866L117.267 90.8577C117.583 90.6744 117.903 90.4944 118.223 90.3144C118.222 91.4026 118.222 92.4896 118.222 93.5756Z" fill="#757575"/>
<path d="M52.2995 97.2349L52.3096 95.1437C52.3163 93.6948 50.0608 93.6925 50.0608 95.1437C50.0608 95.8411 50.0578 96.5382 50.0518 97.2349C50.0428 98.6838 52.2927 98.6861 52.2995 97.2349Z" fill="#757575"/>
<path d="M89.7574 82.5614L89.5325 82.6896L87.4118 83.927C87.115 84.1003 86.8159 84.3039 86.5123 84.4738C86.5123 84.7584 86.482 85.0632 86.4606 85.3343C86.4392 85.6054 86.4426 85.881 86.4415 86.1488L86.428 91.0186C86.428 91.923 86.4254 92.8275 86.4201 93.7319C86.4201 94.8808 86.4171 96.0294 86.4111 97.1775L90.1025 95.0312L92.2502 93.7825L92.3536 93.7218C92.6235 93.5317 92.9405 93.3843 93.2374 93.2077L94.1616 92.6711L94.5394 92.4461L94.572 92.4281L96.7961 91.1344C96.9895 91.0219 97.1795 90.9016 97.3752 90.7902V89.4909L97.3842 86.2174C97.3842 85.8664 97.3572 85.5098 97.3842 85.1746V85.0463V83.8179L97.3943 80.3655L97.4011 78.1528C96.1024 78.9178 94.7722 79.6388 93.4724 80.3948L89.7574 82.5614Z" fill="#C82022"/>
<path d="M74.0607 67.3875L72.753 68.1468L66.598 71.7263C66.3001 71.8996 66.0021 72.102 65.6985 72.273C65.6985 72.6893 65.6299 73.155 65.6288 73.4857C65.6206 76.1675 65.6131 78.8493 65.6063 81.5311L65.5962 84.9757L67.9158 83.6258L69.2887 82.8282L70.8809 81.9024L70.8921 77.793V76.856V76.6456C70.8921 76.5725 70.8921 76.4994 70.8921 76.4262C70.8687 76.1451 70.9486 75.8651 71.117 75.6388C71.2295 75.3671 71.4397 75.1476 71.7062 75.0235C72.3325 74.5195 73.2275 74.1427 73.7301 73.8502L76.5737 72.1976C76.5737 71.1372 76.5767 70.0764 76.5827 69.0152C76.5827 67.9886 76.5854 66.9615 76.5906 65.9341C76.4332 66.014 76.287 66.0893 76.1656 66.1591L74.0607 67.3875Z" fill="#C82022"/>
<path d="M90.1888 57.9169L87.0293 59.755C86.9438 59.8045 86.701 59.989 86.4671 60.1431C86.4671 60.1589 86.4671 60.1746 86.4671 60.1903C86.4671 60.4063 86.4513 60.6246 86.4513 60.8383C86.4513 61.2579 86.4513 61.6775 86.4513 62.0971V63.627C86.4468 65.0354 86.4427 66.4434 86.439 67.8511L86.4918 67.8826L90.6735 70.3034L91.6989 69.7072C91.6989 68.6385 91.7019 67.5699 91.7079 66.5012C91.7079 65.8105 91.5393 64.5888 91.8204 63.7699C91.8552 63.6442 91.9071 63.5238 91.9744 63.4121C92.0974 63.1927 92.2708 63.0056 92.4804 62.8665C92.8837 62.5539 93.3185 62.2843 93.7779 62.0622C94.9698 61.3524 96.1909 60.6853 97.394 59.9991L97.4041 56.2869C97.4041 55.4289 97.4068 54.5706 97.412 53.7119L95.1958 55C93.5302 55.9749 91.8612 56.9472 90.1888 57.9169Z" fill="#C82022"/>
<path d="M93.572 104.737L89.8255 106.916L89.1947 107.282L87.4125 108.315C87.1145 108.488 86.8154 108.692 86.513 108.863C86.513 109.229 86.4624 109.629 86.4478 109.946C86.4545 113.809 86.5253 117.684 86.4478 121.545L86.5197 121.504L90.1695 119.382C92.3936 118.088 94.618 116.795 96.8429 115.502C97.0003 115.41 97.1656 115.296 97.3331 115.195C97.3488 114.96 97.3781 114.723 97.3781 114.641C97.3781 114.068 97.3781 113.495 97.3781 112.924C97.3848 110.913 97.3908 108.901 97.3961 106.889C97.3961 105.809 97.3991 104.729 97.4051 103.649V102.545C97.1487 102.675 96.9159 102.788 96.7428 102.89L93.572 104.737Z" fill="#C82022"/>
<path d="M117.275 90.8632L114.474 92.4921L109.01 95.6688C108.455 95.9917 107.902 96.3595 107.333 96.6813C107.333 97.0795 107.27 97.5193 107.264 97.8444C107.264 98.7444 107.261 99.6421 107.255 100.538L107.245 104.279C107.245 104.829 107.245 105.379 107.245 105.929C107.245 106.498 107.243 107.068 107.239 107.637C107.239 108.199 107.265 108.773 107.279 109.349L107.342 109.313L110.991 107.19L117.659 103.305C117.803 103.222 117.953 103.119 118.109 103.025C118.109 102.525 118.2 101.85 118.2 101.675L118.224 93.5753C118.224 92.4902 118.227 91.405 118.233 90.3198C117.911 90.4998 117.591 90.6821 117.275 90.8632Z" fill="#C82022"/>
<path d="M72.1874 92.8701L65.7681 96.6015C65.8097 96.8884 65.7535 97.0515 65.6557 97.1313C65.6445 97.4283 65.622 97.7264 65.622 98.0065C65.622 98.8705 65.6193 99.7329 65.6141 100.594C65.6058 103.519 65.5976 106.443 65.5894 109.368L67.7358 108.118L70.874 106.294C70.874 105.572 70.874 104.85 70.874 104.128V103.088C70.874 102.377 70.6953 101.108 71.0157 100.287C71.0247 100.264 71.0326 100.243 71.0416 100.222C71.1122 99.9748 71.2649 99.7597 71.4745 99.6118C72.0918 99.0066 73.1543 98.5724 73.7233 98.2428L76.2813 96.7669L76.5804 96.5936V95.4068L74.6431 94.2875L72.1874 92.8701Z" fill="#C82022"/>
<defs>
<linearGradient id="paint0_linear_1_5530" x1="144.632" y1="0" x2="144.632" y2="119.265" gradientUnits="userSpaceOnUse">
<stop stop-color="#FFB600"/>
<stop offset="1" stop-color="#FF652A" stop-opacity="0.99"/>
</linearGradient>
<linearGradient id="paint1_linear_1_5530" x1="144.632" y1="0" x2="144.632" y2="119.265" gradientUnits="userSpaceOnUse">
<stop stop-color="#FBF7F7" stop-opacity="0.2"/>
<stop offset="1" stop-color="#22213B" stop-opacity="0.5"/>
</linearGradient>
</defs>
</svg>
