<svg width="88" height="112" viewBox="0 0 88 112" fill="none" xmlns="http://www.w3.org/2000/svg">
<path fill-rule="evenodd" clip-rule="evenodd" d="M43.8244 31.3375C46.3267 31.3367 48.773 32.0779 50.8539 33.4675C52.9348 34.8571 54.5568 36.8328 55.5148 39.1444C56.4727 41.456 56.7236 43.9997 56.2357 46.4539C55.7477 48.9081 54.5429 51.1625 52.7735 52.9319C51.0041 54.7012 48.7498 55.9061 46.2956 56.3941C43.8414 56.882 41.2976 56.6312 38.9859 55.6732C36.6743 54.7152 34.6988 53.0932 33.3091 51.0123C31.9195 48.9314 31.1782 46.4851 31.1791 43.9829C31.1791 42.3223 31.5062 40.6779 32.1417 39.1437C32.7772 37.6095 33.7086 36.2155 34.8828 35.0412C36.057 33.867 37.451 32.9355 38.9852 32.3C40.5194 31.6645 42.1638 31.3375 43.8244 31.3375ZM35.9211 73.7607C34.8482 77.9971 34.2358 82.3369 34.0946 86.7047C41.5033 88.3803 49.2203 88.1023 56.4894 85.8982C63.7585 83.694 70.3302 79.6392 75.5608 74.1311C80.7913 68.623 84.5012 61.8506 86.3269 54.4774C88.1526 47.1042 88.0315 39.3831 85.9755 32.0707C86.1497 34.6319 86.0732 37.2039 85.7471 39.7501C84.3245 50.7928 78.4849 60.1056 69.0009 65.8618C65.6605 67.8868 62.0276 69.3842 58.2304 70.3009C41.7212 74.2745 21.3878 65.5194 18.9377 47.3769C7.52182 70.279 14.4899 98.362 35.1834 111.196C29.4228 100.816 29.7741 84.6278 35.9211 73.7607Z" fill="url(#paint0_linear_9_363)"/>
<path fill-rule="evenodd" clip-rule="evenodd" d="M68.3512 38.749C69.4087 43.7655 68.9101 48.9854 66.922 53.7109C64.9338 58.4365 61.5509 62.4428 57.2251 65.1945C71.3764 62.0024 79.2885 51.1002 80.8341 39.1179C82.0986 29.3309 79.0778 19.1663 72.417 11.8514C68.2211 7.32938 62.9043 3.99695 57.0056 2.19174C48.6004 -0.4155 39.6105 -0.46892 31.1749 2.03812C25.1686 3.85173 19.6214 6.93311 14.908 11.0742C10.1946 15.2153 6.42475 20.3196 3.85302 26.0424C1.28128 31.7653 -0.0324302 37.9733 0.00060803 44.2474C0.0336463 50.5214 1.41266 56.7153 4.04452 62.4107C4.4836 43.2627 20.2902 19.0259 42.5908 18.6439C48.2463 18.5243 53.7854 20.2592 58.3623 23.5835C63.4794 27.2097 67.0452 32.628 68.3512 38.7622" fill="url(#paint1_linear_9_363)"/>
<defs>
<linearGradient id="paint0_linear_9_363" x1="13.4801" y1="71.2668" x2="87.6132" y2="71.2668" gradientUnits="userSpaceOnUse">
<stop stop-color="#49C8F5"/>
<stop offset="1" stop-color="#0094D3"/>
</linearGradient>
<linearGradient id="paint1_linear_9_363" x1="0.000662191" y1="32.6898" x2="81.1151" y2="32.6898" gradientUnits="userSpaceOnUse">
<stop stop-color="#49C8F5"/>
<stop offset="1" stop-color="#0094D3"/>
</linearGradient>
</defs>
</svg>
