<svg width="91" height="102" viewBox="0 0 91 102" fill="none" xmlns="http://www.w3.org/2000/svg">
<path d="M65.0156 30.8633H40.0537V50.667H65.2241C65.9413 50.6634 66.6521 50.8011 67.3161 51.0723C67.98 51.3434 68.584 51.7427 69.0937 52.2472C69.6033 52.7518 70.0086 53.3518 70.2863 54.013C70.5641 54.6741 70.7089 55.3836 70.7125 56.1007C70.7161 56.8179 70.5784 57.5287 70.3072 58.1927C70.0361 58.8566 69.6368 59.4606 69.1323 59.9703C68.6277 60.4799 68.0277 60.8852 67.3666 61.1629C66.7054 61.4407 65.9959 61.5855 65.2788 61.5891H40.0537V101.197C42.6541 101.197 45.2291 100.684 47.6315 99.689C50.0339 98.6937 52.2168 97.2349 54.0553 95.3959C55.8939 93.5569 57.3521 91.3737 58.3468 88.971C59.3415 86.5684 59.8531 83.9932 59.8525 81.3928H65.2788C71.8891 81.3942 78.2365 78.8037 82.9583 74.1776C87.68 69.5514 90.3998 63.2583 90.5336 56.6494C90.8166 42.4606 79.2144 30.8633 65.0156 30.8633Z" fill="url(#paint0_linear_9_342)"/>
<path d="M90.5391 0.216167C90.5398 2.81506 90.0284 5.38864 89.0341 7.78982C88.0399 10.191 86.5822 12.3728 84.7445 14.2104C82.9069 16.0481 80.7251 17.5057 78.3239 18.5C75.9227 19.4942 73.3492 20.0056 70.7503 20.005H29.1868V61.5685C29.1868 64.1691 28.6746 66.7443 27.6794 69.147C26.6841 71.5497 25.2254 73.7329 23.3864 75.5718C21.5475 77.4108 19.3643 78.8695 16.9616 79.8647C14.5589 80.86 11.9837 81.3722 9.38307 81.3722H0C6.00722 75.3656 9.38241 67.2188 9.38307 58.7238V20C9.38307 17.3994 9.89534 14.8242 10.8906 12.4215C11.8858 10.0188 13.3445 7.83565 15.1835 5.99671C17.0224 4.15776 19.2055 2.69901 21.6082 1.70378C24.0109 0.708554 26.5861 0.196289 29.1868 0.196289L90.5391 0.216167Z" fill="url(#paint1_linear_9_342)"/>
<defs>
<linearGradient id="paint0_linear_9_342" x1="19.3861" y1="97.1852" x2="86.2641" y2="26.271" gradientUnits="userSpaceOnUse">
<stop stop-color="#00BAC2"/>
<stop offset="0.68" stop-color="#7CC8A8"/>
<stop offset="0.99" stop-color="#BBDEBD"/>
</linearGradient>
<linearGradient id="paint1_linear_9_342" x1="-7.88872" y1="71.4579" x2="58.9842" y2="0.543778" gradientUnits="userSpaceOnUse">
<stop stop-color="#00BAC2"/>
<stop offset="0.68" stop-color="#7CC8A8"/>
<stop offset="0.99" stop-color="#BBDEBD"/>
</linearGradient>
</defs>
</svg>
